<svg xmlns="http://www.w3.org/2000/svg" width="390" height="368" fill="none" viewBox="0 0 390 368">
    <g clip-path="url(#a)">
        <path fill="url(#b)" fill-rule="evenodd" d="M364.603 229.456c6.327-.885 10.739-6.732 9.853-13.059-.885-6.327-6.732-10.739-13.059-9.853l-337 47.145c-6.327.885-10.739 6.732-9.853 13.059.885 6.327 6.732 10.739 13.059 9.854l164.055-22.951-44.441 76.973c-2.016 3.493.504 7.858 4.537 7.858h90.73c4.033 0 6.553-4.365 4.537-7.858l-45.257-78.387z" clip-rule="evenodd"/>
        <rect width="62.469" height="62.469" x="-.553" y="140.48" fill="#E9983D" rx="11.67" transform="rotate(-27.808 -.553 140.48)"/>
        <g clip-path="url(#c)">
            <path fill="#fff" d="M53.397 150.891c-.86-1.194-2.018-1.855-3.495-1.914-.675-.02-1.348.075-2.066.136.043-.081.065-.15.098-.196 2.063-2.938-.487-7.171-3.332-7.578-1.158-.17-2.288-.065-3.38.222-.784.211-1.545.468-2.328.736-.668-1.266-1.564-3.019-2.303-4.421l-2.645 1.395c.704 1.392 1.599 3.088 2.232 4.343l-2.125 1.121c-.656-1.244-1.528-2.951-2.256-4.331l-2.623 1.384c.717 1.414 1.636 3.155 2.269 4.41-1.821.932-3.562 1.85-5.383 2.781.513.973.967 1.889 1.468 2.839.385-.203.724-.382 1.052-.526.34-.179.679-.358 1.007-.502.963-.421 1.712-.152 2.189.753 1.946 3.8 3.905 7.622 5.874 11.41.44.837.246 1.344-.568 1.774l-1.764.93c.38 1.158.736 2.271 1.115 3.429l5.395-2.758c.716 1.356 1.6 3.087 2.35 4.511l2.646-1.395c-.728-1.437-1.611-3.11-2.292-4.456.758-.371 1.448-.706 2.161-1.053.716 1.357 1.564 3.019 2.291 4.399l2.646-1.396c-.729-1.436-1.611-3.109-2.28-4.433.078-.07.146-.106.202-.164 1.159-.872 2.388-1.665 3.454-2.602 1.39-1.254 2.168-2.849 2.012-4.79-.17-1.471-.736-2.82-1.62-4.058m-17.653-3.059c1.65-.871 3.184-1.853 5.034-1.962 1.222-.095 2.148.456 2.593 1.465.481 1.075.287 2.132-.597 3.031-1.197 1.238-2.724 2.015-4.32 2.77-.883-1.73-1.767-3.461-2.71-5.304m12.73 10.164c-1.124 1.431-2.661 2.242-4.21 3.087-.43.227-.87.431-1.346.681l-3.02-5.892c2.012-1.061 3.918-2.269 6.236-2.422 1.2-.084 2.158.364 2.742 1.472.562 1.12.344 2.131-.402 3.074"/>
        </g>
        <rect width="53.545" height="53.545" x="7.649" y="198.423" fill="#687DE3" rx="9.611" transform="rotate(-8.057 7.649 198.423)"/>
        <path fill="#C5CEF4" d="m39.49 228.125.971 6.855 6.813-13.158zM46.635 219.655 36.53 207.21l1.4 9.893z"/>
        <path fill="#8597E7" d="m38.041 217.884 1.195 8.44 7.441-5.9z"/>
        <path fill="#fff" d="m29.56 222.072 6.253-14.76 1.4 9.893z"/>
        <path fill="#C1CAF4" d="m37.325 217.986 1.194 8.439-8.808-3.599z"/>
        <path fill="#fff" d="m38.752 228.229.97 6.856-10.196-10.75z"/>
        <rect width="70.519" height="70.519" x="129.627" y="163.823" fill="#50AF95" rx="12.089" transform="rotate(-8.057 129.627 163.823)"/>
        <path fill="#fff" fill-rule="evenodd" d="M171.724 193.157c-.13.028-.805.165-2.324.38-1.207.171-2.07.256-2.373.285-4.696.455-8.295.136-8.432-.837s3.231-2.277 7.868-3.146l.45 3.174a36 36 0 0 0 2.397-.265c1.449-.205 2.166-.368 2.295-.399l-.449-3.172c4.687-.452 8.278-.132 8.415.839.138.97-3.222 2.275-7.851 3.14zm-.61-4.309-.402-2.841 6.5-.92-.613-4.331-17.696 2.505.613 4.331 6.498-.92.402 2.84c-5.248.99-9.072 2.599-8.894 3.852.177 1.254 4.297 1.737 9.614 1.233l1.288 9.102 4.697-.665-1.289-9.105c5.236-.989 9.054-2.595 8.876-3.848-.177-1.253-4.287-1.737-9.595-1.234z" clip-rule="evenodd"/>
        <rect width="57.663" height="57.663" x="104.877" y="96.523" fill="#8247E5" rx="9.611" transform="rotate(4.493 104.877 96.523)"/>
        <g clip-path="url(#d)">
            <path fill="#fff" d="M140.406 122.493c-.587-.397-1.376-.459-2.105-.166l-5.138 2.49-3.477 1.568-5.051 2.496c-.641.301-1.431.239-2.105-.165l-3.594-2.562a2.13 2.13 0 0 1-.909-1.913l.343-4.357c.055-.697.46-1.366 1.196-1.747l3.943-1.882c.642-.3 1.431-.238 2.105.165l3.594 2.562c.587.397.971 1.129.909 1.913l-.226 2.876 3.484-1.656.233-2.962c.054-.697-.242-1.422-.909-1.913l-6.696-4.647c-.586-.397-1.376-.459-2.105-.165l-7.521 3.617c-.729.294-1.135.963-1.19 1.66l-.643 8.192c-.055.697.241 1.421.908 1.912l6.784 4.654c.586.397 1.376.459 2.105.166l5.043-2.41 3.484-1.655 5.044-2.41c.641-.3 1.431-.238 2.105.166l3.601 2.475c.586.397.97 1.128.908 1.912l-.342 4.358c-.055.697-.46 1.366-1.196 1.747l-3.856 1.889c-.641.3-1.43.238-2.105-.166l-3.6-2.475a2.13 2.13 0 0 1-.909-1.912l.219-2.789-3.484 1.656-.226 2.875c-.055.697.241 1.422.909 1.913l6.783 4.654c.587.397 1.376.459 2.105.165l7.427-3.537a2.13 2.13 0 0 0 1.197-1.747l.65-8.279c.055-.697-.241-1.422-.909-1.913z"/>
        </g>
        <rect width="41.188" height="41.188" x="91.39" y="185.524" fill="#3C3C3C" rx="9.611" transform="rotate(15.563 91.39 185.524)"/>
        <g clip-path="url(#e)">
            <path fill="#fff" d="M108.3 199.92q-12.669 10.612-11.94 16.045c.728 5.434 10.271 8.726 14.561 4.056q4.289-4.67-2.621-20.101"/>
        </g>
        <rect width="49.178" height="49.178" x="66.427" y="34.107" fill="#fff" rx="10.983" transform="rotate(22.577 66.427 34.107)"/>
        <g clip-path="url(#f)">
            <path fill="#0D022B" fill-rule="evenodd" d="M91.742 61.224c-.064-.157-.085-.296-.02-.45.064-.156.177-.24.334-.304.305-.107.66.04.82.341.065.157.085.296.02.45-.064.156-.176.24-.333.304a.75.75 0 0 1-.464-.01.49.49 0 0 1-.357-.331M89.687 62.164c-.043-.148-.063-.286.002-.441.064-.155.177-.239.312-.313a.595.595 0 0 1 .753.314c.043.148.063.286-.001.441-.065.155-.177.239-.312.313-.148.042-.286.063-.442-.002-.155-.065-.238-.177-.312-.312M87.527 62.982a.58.58 0 0 1 .001-.442c.065-.155.177-.238.312-.312a.595.595 0 0 1 .754.313.58.58 0 0 1-.002.442c-.064.155-.177.238-.311.312a.53.53 0 0 1-.442-.001.58.58 0 0 1-.312-.312M85.423 63.85a.51.51 0 0 1-.02-.451c.064-.155.177-.239.334-.303.304-.108.66.04.82.34a.51.51 0 0 1 .02.451.51.51 0 0 1-.333.304.62.62 0 0 1-.464-.011c-.155-.065-.279-.142-.357-.33M83.387 64.746c-.074-.135-.063-.286.001-.442.065-.155.177-.238.312-.312a.595.595 0 0 1 .754.313c.074.135.063.287-.001.442a.58.58 0 0 1-.312.312c-.135.074-.287.063-.442-.001a.41.41 0 0 1-.312-.312M81.219 65.144c.064-.155.177-.238.312-.312a.595.595 0 0 1 .753.314.53.53 0 0 1-.001.441c-.065.155-.177.238-.312.312a.58.58 0 0 1-.442-.001c-.155-.065-.238-.177-.312-.312s-.063-.286.002-.442M77.082 67.273a.58.58 0 0 1 .002-.441c.064-.156.177-.239.312-.313a.595.595 0 0 1 .754.314.53.53 0 0 1-.002.441c-.064.155-.177.239-.312.313-.135.073-.286.063-.441-.002-.142-.033-.257-.133-.313-.312M74.935 68.123a.51.51 0 0 1-.021-.45c.064-.156.177-.24.334-.304.305-.107.66.04.82.341.065.157.085.296.021.451s-.177.238-.334.303a.62.62 0 0 1-.464-.01.52.52 0 0 1-.356-.331M72.867 69.031a.58.58 0 0 1 .313-.754.595.595 0 0 1 .754.314.58.58 0 0 1-.001.441c-.065.155-.178.239-.312.313a.53.53 0 0 1-.442-.002c-.155-.065-.216-.168-.312-.312M70.764 69.9c-.074-.135-.063-.287.001-.442.065-.155.177-.238.312-.312a.595.595 0 0 1 .754.313c.043.148.063.287-.002.442a.58.58 0 0 1-.312.312.53.53 0 0 1-.441-.001c-.133-.056-.27-.165-.312-.312M68.616 70.749a.51.51 0 0 1-.02-.45c.064-.156.176-.24.333-.304.305-.107.66.04.776.323.065.157.086.295.021.45a.51.51 0 0 1-.334.304.75.75 0 0 1-.464-.011c-.155-.065-.27-.164-.312-.312M66.535 71.626a.53.53 0 0 1 .001-.442c.065-.155.178-.238.312-.312a.595.595 0 0 1 .754.314.53.53 0 0 1-.001.441c-.065.155-.177.238-.312.312a.58.58 0 0 1-.442-.001c-.12-.024-.225-.146-.312-.312M74.692 54.135c.135-.074.247-.158.312-.313.064-.155.044-.294.001-.441a.595.595 0 0 0-.754-.314.53.53 0 0 0-.312.313c-.064.155-.044.293-.001.441a.58.58 0 0 0 .312.312c.146.087.298.098.442.002M75.541 56.283c.157-.065.27-.148.334-.304.065-.155.044-.293-.02-.45-.14-.292-.494-.44-.82-.341-.158.064-.27.148-.335.303-.064.155-.044.294.02.45a.75.75 0 0 0 .335.322c.165.042.338.062.486.02M76.44 58.372a.58.58 0 0 0 .312-.312c.065-.155.045-.294.002-.442a.595.595 0 0 0-.754-.313.58.58 0 0 0-.312.313c-.064.155-.044.293-.001.441a.53.53 0 0 0 .312.312.68.68 0 0 0 .442.001M77.308 60.476a.58.58 0 0 0 .312-.313c.065-.155.044-.294.002-.441a.595.595 0 0 0-.754-.314.58.58 0 0 0-.313.754.53.53 0 0 0 .312.312c.133.055.275.089.441.002M78.154 62.57a.51.51 0 0 0 .334-.303c.064-.155.044-.294-.021-.45a.626.626 0 0 0-.776-.324.51.51 0 0 0-.334.304.51.51 0 0 0 .02.45.62.62 0 0 0 .335.321.41.41 0 0 0 .442.002M79.356 64.37c.064-.155.044-.294.001-.442a.595.595 0 0 0-.754-.313.53.53 0 0 0-.312.312c-.064.156-.044.294-.001.442a.58.58 0 0 0 .312.312c.155.064.294.044.442.001.147-.042.247-.157.312-.312M79.903 66.808a.53.53 0 0 0 .312-.312c.064-.156.044-.294.001-.442a.595.595 0 0 0-.754-.313.53.53 0 0 0-.312.312c-.064.155-.044.294-.001.442a.58.58 0 0 0 .754.313M80.808 68.822a.51.51 0 0 0 .334-.303c.065-.155.044-.294-.02-.45-.14-.293-.494-.44-.777-.323-.157.064-.27.148-.334.303s-.044.293.02.45a.62.62 0 0 0 .335.322.44.44 0 0 0 .442.001M81.698 70.935a.58.58 0 0 0 .312-.312c.064-.156.044-.294.001-.442a.595.595 0 0 0-.754-.313c-.135.074-.247.157-.312.312-.064.155-.044.294-.001.442a.53.53 0 0 0 .312.311c.102.069.285.067.442.002M82.557 73.06a.58.58 0 0 0 .313-.754.595.595 0 0 0-.754-.313.58.58 0 0 0-.312.312c-.064.155-.044.294-.001.441a.53.53 0 0 0 .312.312c.155.065.294.044.442.002M83.336 75.127c.147-.043.247-.157.311-.312.065-.156.045-.294.002-.442a.595.595 0 0 0-.754-.314c-.135.075-.247.158-.312.313a.58.58 0 0 0-.001.441.53.53 0 0 0 .312.312c.133.056.307.076.442.002M84.292 77.267c.148-.043.247-.157.312-.313.064-.155.044-.293.001-.441a.595.595 0 0 0-.754-.314.53.53 0 0 0-.311.313.58.58 0 0 0-.002.441.58.58 0 0 0 .312.312c.156.065.307.076.442.002M85.16 79.37c.157-.065.27-.148.334-.303.064-.156.044-.294-.02-.451-.14-.292-.494-.44-.777-.323-.157.065-.27.148-.334.303-.064.156-.044.294.02.451a.75.75 0 0 0 .335.321c.102.069.263.057.442.002M78.042 56.022c1.922-.371 3.779-.145 5.629.598 1.796.746 3.256 1.926 4.393 3.569l4.52-1.866c-1.712-2.948-4.021-5.026-7.014-6.27-2.994-1.245-6.14-1.435-9.371-.542zM69.4 67.798c-.374-1.976-.18-3.82.558-5.593.746-1.796 1.926-3.256 3.573-4.34l-1.853-4.489c-2.876 1.665-4.932 3.983-6.186 6.998-1.236 2.971-1.438 6.086-.586 9.353zM81.275 76.454c-1.932.393-3.816.234-5.622-.49-1.84-.766-3.322-1.954-4.387-3.646l-4.512 1.844c1.66 2.952 4.013 5.048 7.037 6.28 3.003 1.223 6.114 1.372 9.327.523zM89.868 64.606c.375 1.976.206 3.882-.594 5.682-.76 1.765-1.943 3.171-3.536 4.251l1.875 4.498c2.898-1.655 4.999-3.954 6.234-6.925 1.276-3.007 1.466-6.153.56-9.416zM87.312 80.135a2.434 2.434 0 0 1 1.309 3.17 2.434 2.434 0 0 1-3.171 1.308 2.434 2.434 0 0 1-1.308-3.17 2.42 2.42 0 0 1 3.17-1.308M64.475 70.64a2.413 2.413 0 0 1 1.286 3.16c-.507 1.22-1.93 1.825-3.149 1.318a2.414 2.414 0 0 1-1.286-3.161 2.414 2.414 0 0 1 3.149-1.318M96.852 57.315a2.413 2.413 0 0 1 1.286 3.162 2.413 2.413 0 0 1-3.148 1.317 2.414 2.414 0 0 1-1.286-3.161 2.413 2.413 0 0 1 3.148-1.318M73.926 47.783c1.22.507 1.824 1.928 1.317 3.148a2.414 2.414 0 0 1-3.161 1.286c-1.22-.507-1.825-1.929-1.318-3.148a2.413 2.413 0 0 1 3.162-1.286" clip-rule="evenodd"/>
        </g>
        <g clip-path="url(#g)">
            <path fill="#FFBD37" d="M326.145 140.614c-8.47 2.058-13.593 10.568-11.542 19.012 2.052 8.448 10.506 13.656 18.977 11.598 8.463-2.055 13.685-10.585 11.633-19.033-2.051-8.444-10.604-13.632-19.068-11.577m2.303 5.195c1.29-.314 2.713-.138 4.044.536l1.005.507-1.013 2.005-1.008-.507c-1.228-.624-2.274-.583-3.2-.085-.925.498-1.766 1.536-2.23 3.161-.182.635-.268 1.318-.302 2.018l5.554-1.349-.401 2.413-5.029 1.221c.111.742.29 1.479.534 2.186l5.739-1.394-.398 2.412-4.384 1.065c.344.588.721 1.14 1.159 1.606 1.156 1.231 2.382 1.771 3.432 1.787 1.051.018 1.998-.43 2.804-1.545l.659-.91 1.823 1.317-.658.915c-1.165 1.621-2.884 2.502-4.665 2.471-1.783-.03-3.555-.919-5.033-2.494a12 12 0 0 1-1.832-2.585l-3.308.803.4-2.413 2.029-.492a14 14 0 0 1-.535-2.186l-2.738.665.401-2.413 2.143-.52c.01-1.091.154-2.168.447-3.193.59-2.077 1.756-3.684 3.327-4.529q.588-.317 1.236-.476z"/>
        </g>
        <g clip-path="url(#h)">
            <path fill="#FFBD37" d="M318.093 211.189c10.861-1.43 18.527-11.422 17.096-22.282-1.43-10.861-11.421-18.527-22.282-17.096-10.861 1.43-18.527 11.421-17.096 22.282 1.43 10.861 11.422 18.527 22.282 17.096m.39-17.549a2.02 2.02 0 0 0-1.512-.395l-2.439.321a5.86 5.86 0 0 1-4.353-1.158 5.87 5.87 0 0 1-2.246-3.905c-.393-2.985 1.548-5.709 4.385-6.444l-.112-.851a1.92 1.92 0 0 1 1.654-2.157 1.92 1.92 0 0 1 2.157 1.655l.104.787 3.239-.426a1.92 1.92 0 0 1 2.156 1.654 1.92 1.92 0 0 1-1.654 2.156l-6.364.839a2.034 2.034 0 0 0-1.754 2.285c.072.547.342 1.028.773 1.359.432.331.966.467 1.513.395l2.439-.321a5.863 5.863 0 0 1 6.598 5.062c.393 2.986-1.548 5.71-4.385 6.445l.112.851a1.92 1.92 0 0 1-1.654 2.157 1.92 1.92 0 0 1-2.157-1.655l-.103-.787-3.24.426a1.92 1.92 0 0 1-2.156-1.654 1.92 1.92 0 0 1 1.654-2.157l6.365-.838a2.034 2.034 0 0 0 1.753-2.286 2.02 2.02 0 0 0-.773-1.358"/>
        </g>
        <g clip-path="url(#i)">
            <path fill="#FFBD37" d="M297.209 176.605c5.446.288 10.108-3.905 10.396-9.352.288-5.446-3.905-10.107-9.352-10.395-5.446-.288-10.107 3.905-10.396 9.351-.288 5.447 3.906 10.108 9.352 10.396m1.788-8.555a1.01 1.01 0 0 0-.705-.331l-1.223-.065a2.917 2.917 0 0 1-2.769-3.078c.079-1.497 1.277-2.654 2.733-2.756l.022-.427a.956.956 0 0 1 1.006-.904.955.955 0 0 1 .905 1.006l-.021.395 1.625.085a.956.956 0 1 1-.101 1.911l-3.192-.168a1.01 1.01 0 0 0-1.066.959 1.004 1.004 0 0 0 .959 1.066l1.223.065a2.915 2.915 0 0 1 2.769 3.079c-.079 1.497-1.277 2.653-2.732 2.755l-.023.427a.955.955 0 0 1-1.006.905.955.955 0 0 1-.905-1.006l.021-.395-1.624-.086a.955.955 0 0 1-.905-1.006.955.955 0 0 1 1.006-.905l3.191.169a1.01 1.01 0 0 0 1.066-.96 1 1 0 0 0-.254-.735"/>
        </g>
    </g>
    <defs>
        <clipPath id="a">
            <path fill="#fff" d="M0 0h390v368H0z"/>
        </clipPath>
        <clipPath id="c">
            <path fill="#fff" d="m17.532 146.075 31.573-16.652 16.653 31.573-31.574 16.653z"/>
        </clipPath>
        <clipPath id="d">
            <path fill="#fff" d="m114.808 108.149 35.93 2.823-2.824 35.93-35.93-2.824z"/>
        </clipPath>
        <clipPath id="e">
            <path fill="#fff" d="m96.758 195.035 24.799 6.907-6.907 24.799-24.799-6.907z"/>
        </clipPath>
        <clipPath id="f">
            <path fill="#fff" d="m71.401 46.161 28.382 11.8-11.8 28.382-28.382-11.8z"/>
        </clipPath>
        <clipPath id="g">
            <path fill="#fff" d="m308.168 142.665 34.983-8.497 8.497 34.983-34.983 8.497z"/>
        </clipPath>
        <clipPath id="h">
            <path fill="#fff" d="m292.499 173.853 40.649-5.354 5.354 40.649-40.649 5.354z"/>
        </clipPath>
        <clipPath id="i">
            <path fill="#fff" d="m288.078 156 20.385 1.078-1.078 20.385L287 176.385z"/>
        </clipPath>
        <linearGradient id="b" x1="194.5" x2="194.5" y1="206.431" y2="338.482" gradientUnits="userSpaceOnUse">
            <stop stop-color="#686868"/>
            <stop offset="1" stop-color="#2F2F2F"/>
        </linearGradient>
    </defs>
</svg>
