<svg xmlns="http://www.w3.org/2000/svg" width="122" height="115" fill="none" xmlns:v="https://vecta.io/nano"><style><![CDATA[.B{fill:#969697}]]></style><g fill-rule="evenodd" class="B"><path d="M37.06 64.7c.455 3.941-.241 3.356 0 6.555.221 2.751 1.99 4.409 3.473 5.918.515-1.111.796-2.316.824-3.54s-.197-2.441-.661-3.574c-.761-2.1-2.549-4.598-3.661-5.358h.026z"/><path d="M26.861 78.649c4.155-.65 3.141-1.489 6.061-2.452 2.504-.832 6.139.208 8.558 1.346-2.087 3.173-5.671 3.212-6.841 3.186-2.276-.058-6.431-1.073-7.804-2.075l.026-.007zm4.653-18.171c-.41 3.856-.858 3.095-1.301 6.197-.364 2.66.754 4.747 1.658 6.601 1.314-1.96 1.863-4.334 1.541-6.672-.202-2.204-1.171-5.085-1.951-6.126h.052z"/><path d="M19.191 71.534c3.902.28 3.108-.65 5.918-.936 2.419-.228 5.684 1.301 7.713 2.783-2.413 2.38-5.814 1.827-6.874 1.567-2.068-.514-5.69-2.257-6.757-3.421v.007zm7.615-16.426c-1.053 3.544-1.379 2.77-2.322 5.586-.813 2.432-.052 4.611.546 6.503 1.634-1.57 2.589-3.718 2.66-5.983.169-2.114-.312-5.001-.884-6.126v.02z"/><path d="M13.204 62.644c3.59 1.158 3.056.072 5.755.475 2.315.345 5.04 2.601 6.62 4.494-2.77 1.704-5.853.319-6.763-.176-1.808-.963-4.832-3.447-5.612-4.793zm10.801-14.73c-1.821 3.252-1.951 2.406-3.512 5.001-1.333 2.231-1.06 4.552-.897 6.64a8.66 8.66 0 0 0 3.934-5.313c.65-2.061.793-5.066.468-6.327h.006z"/><path d="M8.956 52.361c3.349 1.951 3.037.78 5.645 1.795 2.244.878 4.507 3.772 5.71 6.015-3.102 1.066-5.853-1.021-6.711-1.73-1.632-1.379-4.155-4.559-4.643-6.08zm13.61-11.841c-2.244 2.777-2.23 1.951-4.11 4.103-1.613 1.873-1.743 4.149-1.931 6.1 1.007-.384 1.928-.964 2.709-1.707a8.16 8.16 0 0 0 1.843-2.618c.903-1.834 1.41-3.837 1.489-5.879z"/><path d="M8 41.698c2.725 2.647 2.692 1.437 4.936 3.004 1.951 1.346 3.434 4.598 4.084 6.991-3.154.28-5.313-2.328-5.95-3.187-1.243-1.684-2.933-5.26-3.07-6.808zm14.341-7.928c-2.465 2.1-2.296 1.346-4.338 2.972-1.749 1.398-2.289 3.401-2.816 5.124a7.49 7.49 0 0 0 4.767-3.089 13.67 13.67 0 0 0 2.354-5.001l.033-.006z"/><path d="M9.132 31.957c1.996 2.913 2.146 1.821 3.902 3.661 1.489 1.587 2.315 4.806 2.523 7.088-2.816-.364-4.318-3.128-4.747-4.025-.858-1.756-1.801-5.306-1.684-6.718l.006-.006zm14.573-4.273c-2.536 1.385-2.289.722-4.37 1.769-1.788.897-2.536 2.601-3.251 4.11a6.18 6.18 0 0 0 2.587-.376 6.17 6.17 0 0 0 2.2-1.412 11.23 11.23 0 0 0 2.822-4.097l.013.006z"/><path d="M12.07 22.891c1.353 3.121 1.782 2.14 3.082 4.214 1.151 1.782 1.242 4.923.91 7.062-2.803-.949-3.687-3.824-3.902-4.741-.442-1.795-.566-5.261-.111-6.503l.02-.033zm13.867-.931c-2.439 1.073-2.166.488-4.162 1.301-1.717.65-2.517 2.218-3.252 3.525.805.128 1.628.082 2.413-.136a5.7 5.7 0 0 0 2.139-1.126 10.15 10.15 0 0 0 2.861-3.564zm-9.367-6.248c.65 3.115 1.203 2.315 2.023 4.481.709 1.86.221 4.747-.462 6.627-2.341-1.444-2.601-4.24-2.647-5.131-.072-1.73.442-4.916 1.086-5.983v.007zm12.429 1.097c-2.406.735-2.1.195-4.064.715-1.691.449-2.569 1.834-3.375 3.004.741.229 1.524.29 2.291.177a5.2 5.2 0 0 0 2.144-.827 9.11 9.11 0 0 0 3.011-3.069h-.007zm-7.506-6.717c.104 2.907.65 2.237 1.027 4.299.319 1.769-.468 4.338-1.301 5.976-1.697-1.567-1.541-4.149-1.45-4.955.176-1.58 1.027-4.422 1.691-5.326l.032.006zm11.388 2.731c-2.387.208-2.009-.247-3.947-.156-1.658.078-2.712 1.229-3.655 2.198.642.376 1.362.599 2.105.65a4.83 4.83 0 0 0 2.174-.351 8.09 8.09 0 0 0 3.323-2.335v-.007zm-6.477-7.166c-.182 2.601.39 2.081.54 3.967.124 1.619-.845 3.798-1.743 5.15-1.411-1.626-1.021-3.902-.858-4.611.312-1.385 1.372-3.798 2.068-4.513l-.006.006zm9.759 4.137c-2.055 0-1.684-.338-3.343-.416-1.424-.065-2.452.715-3.375 1.359a4.63 4.63 0 0 0 1.748.644c.62.094 1.254.06 1.861-.098 1.133-.256 2.193-.766 3.102-1.489h.007zm-4.68-6.985c-.455 2.257.136 1.918.072 3.616-.059 1.457-1.203 3.173-2.192 4.181-.379-.635-.604-1.35-.657-2.087a4.74 4.74 0 0 1 .351-2.16c.442-1.158 1.704-3.063 2.426-3.544v-.006zm7.594 4.994c-1.626-.325-1.301-.579-2.601-.897-1.118-.273-1.983.351-2.751.858a3.29 3.29 0 0 0 1.282.875 3.3 3.3 0 0 0 1.54.191 4.99 4.99 0 0 0 2.536-1.027h-.007zm-1.814-6.646c-.897 1.847-.345 1.619-.8 3.03-.39 1.216-1.717 2.543-2.744 3.284-.507-1.561.442-3.115.761-3.583a10.85 10.85 0 0 1 2.783-2.731zm5.856 3.973c-1.548-.182-1.301-.449-2.536-.65-1.073-.169-1.821.481-2.484 1.021.36.341.797.59 1.273.727s.979.157 1.465.06c.857-.156 1.65-.559 2.283-1.158z"/><path d="M42.347 0c-1.086 1.619-.533 1.554-1.112 2.861-.514 1.125-1.951 2.094-3.063 2.549a4.03 4.03 0 0 1 .155-1.866c.197-.601.534-1.147.983-1.594A8.47 8.47 0 0 1 42.347 0zm3.818 1.952c-1.17.585-.806.754-1.587 1.301a3.99 3.99 0 0 1-2.66.429A2.56 2.56 0 0 1 43.7 2.05c.804-.218 1.646-.251 2.465-.098z"/><path d="M52.871 82.653c-2.068-1.853-14.307-7.277-14.489-7.329-16.849-5.944-26.103-27.508-20.719-45.248 3.766-12.42 10.529-20.322 20.564-24.588l.169-.605c-10.041 4.09-18.352 13.201-21.681 25.362-5.424 19.776 4.331 40.319 21.863 46.217 0 0 6.698 2.933 8.707 4.305 1.145.78 4.142 2.601 5.203 3.479.585.423 1.281-.787.384-1.593zM85.432 64.7c-.455 3.941.241 3.356 0 6.555-.221 2.751-1.99 4.409-3.473 5.918a8.9 8.9 0 0 1-.824-3.54c-.028-1.224.197-2.441.661-3.574.761-2.1 2.549-4.598 3.661-5.358h-.026z"/><path d="M95.615 78.649c-4.155-.65-3.141-1.489-6.061-2.452-2.504-.832-6.139.208-8.558 1.346 2.088 3.173 5.671 3.212 6.841 3.186 2.276-.058 6.432-1.073 7.804-2.075l-.026-.007zm-4.636-18.171c.41 3.856.858 3.095 1.301 6.197.364 2.66-.754 4.747-1.658 6.601-1.314-1.96-1.863-4.334-1.541-6.672.202-2.204 1.171-5.085 1.951-6.126h-.052z"/><path d="M103.3 71.534c-3.901.28-3.108-.65-5.918-.936-2.419-.228-5.684 1.301-7.713 2.783 2.413 2.38 5.814 1.827 6.874 1.567 2.068-.514 5.69-2.257 6.756-3.421v.007zm-7.614-16.426c1.053 3.544 1.379 2.751 2.322 5.586.813 2.432.052 4.611-.546 6.503-1.634-1.57-2.589-3.718-2.66-5.983-.169-2.114.312-5.001.884-6.126v.02z"/><path d="M109.264 62.644c-3.59 1.158-3.056.072-5.755.475-2.315.345-5.04 2.601-6.62 4.494 2.77 1.704 5.852.319 6.763-.176 1.834-.963 4.858-3.447 5.612-4.793zM98.49 47.914c1.821 3.252 1.951 2.406 3.512 5.001 1.301 2.231 1.06 4.552.897 6.64a8.66 8.66 0 0 1-3.934-5.313c-.65-2.061-.793-5.066-.468-6.327h-.007z"/><path d="M113.534 52.361c-3.349 1.951-3.037.78-5.645 1.795-2.243.878-4.506 3.772-5.709 6.015 3.102 1.066 5.852-1.021 6.711-1.73 1.632-1.379 4.155-4.552 4.643-6.08zM99.925 40.52c2.243 2.777 2.23 1.951 4.11 4.103 1.612 1.873 1.743 4.149 1.951 6.126a8.15 8.15 0 0 1-2.709-1.707 8.14 8.14 0 0 1-1.843-2.618 14.57 14.57 0 0 1-1.483-5.905h-.026z"/><path d="M114.492 41.698c-2.731 2.647-2.692 1.437-4.935 3.004-1.951 1.346-3.434 4.598-4.084 6.991 3.154.28 5.313-2.328 5.95-3.187 1.242-1.684 2.933-5.261 3.063-6.809h.006zm-14.339-7.928c2.465 2.1 2.296 1.346 4.338 2.972 1.749 1.398 2.289 3.401 2.816 5.124a7.49 7.49 0 0 1-4.767-3.089c-1.127-1.487-1.937-3.189-2.38-5.001l-.007-.006z"/><path d="M113.35 31.957c-1.997 2.913-2.146 1.821-3.902 3.661-1.489 1.587-2.315 4.806-2.523 7.088 2.816-.364 4.318-3.128 4.747-4.025.839-1.756 1.775-5.306 1.658-6.718l.02-.006zm-14.562-4.273c2.536 1.385 2.289.722 4.37 1.769 1.788.897 2.536 2.601 3.252 4.11a6.18 6.18 0 0 1-2.587-.376 6.17 6.17 0 0 1-2.2-1.412 11.23 11.23 0 0 1-2.822-4.097l-.013.006z"/><path d="M110.421 22.891c-1.353 3.115-1.769 2.14-3.109 4.214-1.151 1.782-1.242 4.923-.91 7.062 2.803-.949 3.687-3.824 3.902-4.741.442-1.795.566-5.261.11-6.503l.007-.033zm-13.863-.931c2.439 1.073 2.166.488 4.162 1.301 1.716.65 2.516 2.218 3.251 3.525a5.68 5.68 0 0 1-4.552-1.262 10.15 10.15 0 0 1-2.861-3.564zm9.367-6.248c-.651 3.115-1.203 2.315-2.023 4.481-.709 1.86-.221 4.747.462 6.627 2.341-1.444 2.601-4.24 2.647-5.131.071-1.73-.443-4.916-1.086-5.983v.007zm-12.431 1.097c2.406.735 2.101.195 4.064.715 1.691.449 2.569 1.834 3.375 3.004a5.2 5.2 0 0 1-4.435-.65 9.11 9.11 0 0 1-3.011-3.069h.006zm7.499-6.717c-.104 2.907-.65 2.237-1.027 4.299-.319 1.769.468 4.338 1.301 5.976 1.697-1.567 1.541-4.149 1.45-4.955-.176-1.58-1.028-4.422-1.691-5.326l-.033.006zM89.61 12.823c2.387.208 2.009-.247 3.947-.156 1.658.078 2.712 1.229 3.655 2.198-.642.376-1.362.599-2.105.65a4.83 4.83 0 0 1-2.174-.351 8.09 8.09 0 0 1-3.323-2.335v-.007zm6.48-7.166c.182 2.601-.39 2.081-.54 3.967-.124 1.619.845 3.798 1.743 5.15 1.411-1.626 1.021-3.902.858-4.611-.312-1.385-1.372-3.798-2.068-4.513l.007.006zm-9.762 4.137c2.055 0 1.684-.338 3.343-.416 1.424-.065 2.452.715 3.375 1.359a4.63 4.63 0 0 1-1.748.644c-.62.094-1.254.06-1.861-.098-1.133-.256-2.193-.766-3.102-1.489h-.006zm4.681-6.985c.455 2.257-.137 1.918-.072 3.616.058 1.457 1.203 3.173 2.191 4.181.379-.635.604-1.35.657-2.087a4.73 4.73 0 0 0-.352-2.16c-.442-1.151-1.697-3.063-2.426-3.544v-.006zm-7.573 4.994c1.626-.325 1.301-.579 2.601-.897 1.125-.273 1.983.351 2.751.858a3.3 3.3 0 0 1-1.282.875c-.491.186-1.019.251-1.54.191a4.99 4.99 0 0 1-2.53-1.027zm1.799-6.646c.897 1.847.345 1.619.8 3.03.39 1.216 1.717 2.543 2.744 3.284.507-1.561-.442-3.115-.761-3.583a10.84 10.84 0 0 0-2.777-2.731h-.007zM79.356 5.13c1.548-.182 1.301-.449 2.536-.65 1.073-.169 1.821.481 2.484 1.021-.36.341-.797.59-1.273.727s-.979.157-1.465.06c-.855-.159-1.646-.564-2.276-1.164l-.007.006z"/><path d="M80.144 0c1.086 1.619.514 1.554 1.112 2.861.514 1.125 1.951 2.094 3.063 2.549a4.03 4.03 0 0 0-.155-1.866c-.197-.601-.534-1.147-.983-1.594C82.32 1.09 81.285.424 80.144 0zm-3.818 1.952c1.171.585.806.754 1.587 1.301a3.99 3.99 0 0 0 2.66.429 2.56 2.56 0 0 0-1.781-1.658c-.806-.209-1.648-.233-2.465-.072z"/><path d="M69.62 82.653c2.068-1.853 14.307-7.277 14.489-7.329 16.849-5.944 26.103-27.508 20.718-45.248-3.765-12.421-10.528-20.322-20.562-24.588l-.182-.605c10.041 4.09 18.352 13.201 21.682 25.362 5.423 19.776-4.331 40.319-21.864 46.217 0 0-6.698 2.933-8.708 4.305-1.145.78-4.142 2.601-5.202 3.479-.553.436-1.249-.774-.351-1.58l-.02-.013z"/></g><path d="M54.281 52.913c.064 0 .112-.032.152-.088.024-.032.064-.112.112-.224l.593-1.458h.072l.593 1.402a1.69 1.69 0 0 0 .152.304c.032.048.08.064.144.064v.064h-.865v-.064c.088 0 .144-.008.168-.024.024-.008.04-.04.04-.088 0-.024 0-.056-.024-.096-.008-.024-.024-.056-.032-.088l-.064-.16h-.601l-.072.208c-.024.072-.032.12-.032.152 0 .04.024.064.08.08a.52.52 0 0 0 .136.016v.064h-.545v-.064h-.008zm1.002-.561l-.256-.617h-.024l-.24.617h.521zm1.314-.601v.064s-.056.008-.072.016-.032.032-.032.064v.032c0 .008 0 .024.016.048l.208.521h.008l.168-.441s0-.032-.024-.08l-.032-.096c-.016-.024-.024-.04-.04-.048-.016 0-.04-.008-.08-.016v-.064h.625v.064s-.072 0-.088.016c-.024 0-.032.024-.032.048v.048c0 .016.008.04.016.072l.16.481h-.016l.2-.513v-.024-.024c0-.04-.008-.064-.032-.072a.83.83 0 0 0-.096-.024v-.064h.361v.064s-.056.016-.072.032-.04.048-.056.104l-.417 1.066h-.064l-.273-.825h-.008l-.321.825h-.064l-.393-.994-.072-.16c-.016-.024-.04-.04-.08-.048v-.064h.593l.008-.008z" class="B"/><path d="M58.128 52.448a2.23 2.23 0 0 1 .545-.216v-.192c0-.08-.016-.136-.048-.176s-.096-.056-.176-.056c-.048 0-.088.008-.12.024s-.048.04-.048.064v.024s.008.016.016.024l.016.016a.48.48 0 0 0 .032.048c0 .016.008.04.008.056 0 .048-.016.088-.048.12-.032.024-.072.04-.12.04s-.096-.016-.128-.048-.056-.072-.056-.128c0-.104.048-.184.144-.24s.216-.088.353-.088c.152 0 .28.032.377.088.104.056.152.168.152.328v.649s0 .032.016.048c.008.016.024.024.032.024h.032c.008 0 .024-.016.04-.032l.04.056c-.048.064-.112.104-.176.128-.04.016-.08.024-.128.024-.08 0-.136-.024-.176-.072-.024-.024-.032-.064-.048-.112-.072.072-.16.128-.248.16-.056.016-.112.032-.168.032-.072 0-.144-.024-.208-.072s-.096-.12-.096-.216c0-.12.056-.216.176-.288l.016-.016zm.465.345s.048-.04.072-.072v-.393a.56.56 0 0 0-.184.08c-.088.064-.136.144-.136.24 0 .056.016.104.04.136s.056.048.088.048c.04 0 .08-.016.12-.04z" class="B"/><path d="M59.266 52.913c.048 0 .088-.016.104-.04.016-.016.032-.056.032-.104v-.08-.721c0-.056-.008-.096-.032-.112-.016-.024-.056-.032-.112-.04v-.064h.505v.208c.056-.072.112-.136.168-.176s.12-.064.192-.064c.056 0 .104.016.144.056.04.032.064.088.064.152 0 .048-.016.096-.048.128s-.072.048-.12.048c-.056 0-.104-.024-.144-.08s-.072-.08-.088-.08c-.032 0-.072.024-.104.064-.04.04-.056.104-.056.184v.505c0 .088.016.144.04.168s.08.04.152.04v.064h-.713v-.064l.016.008zm1.354-1.01c.104-.12.224-.184.361-.184.072 0 .136.016.184.056.032.024.08.056.128.112v-.489c0-.064-.016-.112-.04-.128s-.08-.024-.16-.032v-.064h.577v1.538c0 .056.008.096.032.112.024.024.064.032.12.04v.064l-.289.032c-.04 0-.12.024-.232.056v-.176c-.048.056-.096.088-.136.112-.064.04-.136.056-.216.056-.128 0-.24-.056-.337-.168s-.144-.256-.144-.449c0-.208.048-.377.152-.497v.008zm.609.889c.048-.048.072-.088.072-.104v-.649s-.016-.056-.056-.096-.088-.064-.152-.064c-.096 0-.16.064-.192.2-.016.072-.024.168-.024.297a1.55 1.55 0 0 0 .024.313c.032.128.096.192.184.192.056 0 .112-.024.152-.08l-.008-.008z" class="B"/><path d="M61.95 52.576h.072c.024.128.072.216.144.272s.144.08.216.08.12-.016.152-.048.048-.072.048-.12-.016-.088-.048-.12a.25.25 0 0 0-.096-.056l-.2-.096c-.104-.048-.176-.104-.224-.168a.32.32 0 0 1-.072-.216c0-.104.032-.192.112-.264.072-.072.176-.112.304-.112.056 0 .12.008.176.032l.12.032c.024 0 .04 0 .048-.016.008-.008.016-.024.024-.04h.056v.385h-.064c-.024-.088-.064-.16-.12-.216s-.12-.08-.2-.08c-.056 0-.104.016-.128.048-.032.032-.04.072-.04.104s.016.064.04.096a.37.37 0 0 0 .144.096l.144.072a.87.87 0 0 1 .2.128c.072.072.104.152.104.256a.42.42 0 0 1-.104.28c-.072.088-.176.128-.321.128-.032 0-.072 0-.104-.008-.032 0-.08-.024-.136-.04l-.048-.016s-.024-.008-.032-.008c-.032 0-.04 0-.056.016-.008.008-.024.032-.04.056h-.064v-.441l-.008-.016zm1.683.337l.553-.641c.128-.184.2-.345.2-.481 0-.08-.024-.16-.072-.232s-.128-.112-.232-.112c-.096 0-.176.032-.24.096a.56.56 0 0 0-.096.144h-.072a.85.85 0 0 1 .248-.409.54.54 0 0 1 .353-.136.51.51 0 0 1 .337.128c.105.088.152.208.152.377 0 .088-.024.176-.072.264s-.128.192-.24.297l-.409.385v.024h.377c.128 0 .216-.008.256-.032s.08-.08.12-.176h.064l-.12.561h-1.106v-.064.008z" class="B"/><path d="M65.196 51.35c.112-.136.24-.208.385-.208.168 0 .313.088.425.256.12.176.176.393.176.665 0 .313-.064.561-.2.729-.112.144-.248.216-.401.216-.112 0-.2-.032-.281-.096a.78.78 0 0 1-.2-.248.86.86 0 0 1-.096-.296l-.024-.28c0-.321.072-.569.216-.737zm.256 1.474c.032.072.08.112.136.112.08 0 .128-.072.152-.208.016-.08.024-.192.024-.345v-.609c0-.216-.016-.361-.048-.441-.032-.072-.072-.112-.136-.112s-.104.04-.136.112c-.032.08-.048.224-.048.441v.609c0 .216.016.361.048.441h.008z" class="B"/><path d="M66.301 52.913l.553-.641c.128-.184.2-.345.2-.481 0-.08-.024-.16-.072-.232s-.128-.112-.232-.112c-.096 0-.176.032-.24.096a.56.56 0 0 0-.096.144h-.072c.056-.184.144-.321.248-.409a.54.54 0 0 1 .353-.136c.12 0 .232.04.337.128s.152.208.152.377c0 .088-.024.176-.072.264s-.128.192-.24.297l-.409.385v.024h.377c.128 0 .216-.008.256-.032s.08-.08.12-.176h.064l-.12.561h-1.106v-.064.008z" class="B"/><path d="M67.656 52.256l.072-.104.281-.393.36-.473.112-.136h.208v1.154h.168v.296h-.168v.377h-.385V52.6h-.665v-.304s.016-.032.024-.04h-.008zm.641.048v-.737h-.016l-.521.713v.024h.537zM56.821 28.215l.825.874c.665.673 1.474 1.034 2.404 1.122l1.747.096c.337 0 .673-.064 1.01-.096a1.84 1.84 0 0 1 .297 0 .37.37 0 0 1 .328.361c0 .184-.088.353-.28.401-.321.08-.641.168-.962.2-1.282.128-2.524-.048-3.718-.529-.513-.208-.962-.497-1.314-.93a1.69 1.69 0 0 1-.393-1.25c0-.072.04-.136.072-.248h-.016zm5.065-3.453c1.675.176 3.366 1.306 3.999 3.325.593 1.891-.08 4.007-1.619 5.176-1.45 1.098-3.59 1.242-4.784.553 1.563.465 2.965.232 4.239-.673a4.31 4.31 0 0 0 1.747-2.58c.561-2.356-.609-5.08-3.582-5.809v.008zm-4.367 1.971c.353 1.25 1.33 1.595 2.364 1.843.809.192 1.627.216 2.452.104l.922-.152c.176-.024.345 0 .393.224a.34.34 0 0 1-.256.433c-.305.088-.617.184-.93.208-.585.048-1.17.08-1.747.048-.865-.048-1.723-.216-2.484-.657-.417-.248-.745-.569-.841-1.082-.064-.32.032-.593.136-.962l-.008-.008zm-.2 5.201c1.154.874 2.468 1.154 3.878 1.082.288-.016.569-.08.857-.12l.248-.032c.168-.016.313.048.321.208 0 .128-.048.337-.136.385a2.64 2.64 0 0 1-.833.256c-1.042.136-2.051.008-2.973-.505-.553-.304-1.034-.705-1.354-1.282l-.008.008z" class="B"/><path d="M56.718 30.307l1.17.769c.745.409 1.563.585 2.396.665l.777.096c.224.024.361.144.353.353 0 .2-.176.321-.369.313l-1.186-.104c-.825-.16-1.635-.369-2.324-.889-.425-.321-.737-.713-.825-1.202h.008zm1.94-4.656c-.2.609-.08.906.497 1.234.529.296 1.106.409 1.699.465.096.008.184.016.28.04.192.04.321.16.297.352s-.184.305-.369.273c-.489-.072-.994-.12-1.466-.273a4.16 4.16 0 0 1-1.178-.625c-.609-.465-.481-1.162.24-1.466zm1.105-.625c-.409.497-.353.753.24 1.002.601.256 1.234.289 1.867.224.2-.016.441-.056.489.168.064.256-.192.313-.377.328-.873.088-1.731.064-2.516-.393-.569-.337-.577-.769-.032-1.146.104-.072.216-.12.321-.184h.008z" class="B"/><use href="#B" class="B"/><use href="#C" class="B"/><path d="M56.63 35.716h.962v.289h-.032c-.016-.088-.048-.152-.072-.176-.032-.024-.096-.04-.192-.04H57.2v.866c0 .064.008.104.032.12a.33.33 0 0 0 .136.032v.032h-.497v-.032c.072 0 .12-.016.136-.032s.024-.064.024-.136v-.85h-.096c-.096 0-.16.016-.192.04s-.056.088-.08.176h-.04v-.289h.008zm1.026 1.09c.064 0 .104-.016.12-.032s.024-.056.024-.12V35.9c0-.064-.008-.096-.024-.12-.016-.016-.056-.032-.12-.032v-.032h.898v.241h-.04c-.016-.072-.032-.12-.064-.144s-.096-.032-.192-.032h-.233s-.04 0-.048.016c0 0-.008.024-.008.048v.377h.265c.072 0 .12-.008.136-.032a.43.43 0 0 0 .048-.128h.04v.393h-.04c-.016-.064-.032-.112-.048-.128-.016-.024-.064-.032-.136-.032h-.265v.417s.008.056.032.056l.192.008c.112 0 .2-.016.257-.04s.104-.088.144-.184h.048l-.08.289h-.914v-.032h.008zm1.033.001c.064 0 .104-.016.12-.04.016-.016.024-.064.024-.136v-.738c0-.056-.008-.096-.024-.12-.016-.016-.056-.032-.12-.032v-.032h.473c.096 0 .176.016.241.04.12.048.184.136.184.257 0 .088-.024.152-.08.193a.44.44 0 0 1-.224.088l.353.433a.24.24 0 0 0 .064.056l.08.024v.032h-.273l-.425-.521h-.072v.337c0 .064.008.104.032.12.016.016.064.024.128.032v.032h-.473V36.8l-.008.008zm.577-.585a.21.21 0 0 0 .136-.209c0-.104-.04-.168-.12-.2-.04-.016-.096-.032-.168-.032-.048 0-.08 0-.088.008-.008 0-.016.024-.016.048v.417a.7.7 0 0 0 .265-.04l-.008.008z" class="B"/><use href="#C" x="4.422" class="B"/><path d="M61.052 36.838v-.032c.04 0 .08-.024.096-.048.024-.032.056-.104.112-.233l.353-.834h.032l.425.962c.032.064.048.104.064.12s.048.024.088.032v.032h-.433v-.032a.23.23 0 0 0 .096-.016c.016 0 .024-.024.024-.048 0-.008 0-.024-.008-.04 0-.024-.016-.04-.024-.064l-.064-.16h-.449l-.08.2c-.008.024-.016.04-.016.056 0 .032.008.048.032.056.016 0 .04.008.08.016v.032h-.337.008zm.73-.433l-.193-.465-.192.465h.393-.008zm.312-.689h.962v.289h-.032a.37.37 0 0 0-.072-.176c-.032-.024-.096-.04-.192-.04h-.096v.866c0 .064.008.104.032.12a.33.33 0 0 0 .136.032v.032h-.497v-.032c.072 0 .12-.016.136-.032s.024-.064.024-.136v-.85h-.096c-.096 0-.16.016-.192.04s-.056.088-.08.176h-.04v-.289h.008z" class="B"/><use href="#B" x="8.293" class="B"/><path d="M63.88 35.844c.104-.096.233-.152.385-.152a.52.52 0 0 1 .385.152c.112.112.168.257.168.433a.58.58 0 0 1-.177.441.54.54 0 0 1-.377.144.53.53 0 0 1-.393-.16c-.104-.112-.16-.249-.16-.425 0-.184.056-.329.168-.433zm.128.834c.072.088.16.128.257.128s.185-.04.257-.128c.072-.08.104-.216.104-.401s-.032-.321-.104-.401-.16-.12-.257-.12-.184.04-.257.128-.104.217-.104.393.032.313.104.393v.008z" class="B"/><use href="#C" x="9.51" class="B"/><path d="M66.133 36.838v-.032c.04 0 .08-.024.096-.048.024-.032.056-.104.112-.233l.353-.834h.032l.425.962c.032.064.048.104.064.12s.048.024.088.032v.032h-.433v-.032a.23.23 0 0 0 .096-.016c.016 0 .024-.024.024-.048 0-.008 0-.024-.008-.04 0-.024-.016-.04-.024-.064l-.064-.16h-.449l-.08.2c-.008.024-.016.04-.016.056 0 .032.008.048.032.056.016 0 .04.008.08.016v.032h-.337.008zm.73-.433l-.192-.465-.192.465h.393-.008zm.496.401c.064 0 .104-.016.12-.032s.024-.056.024-.12V35.9c0-.064-.008-.096-.024-.12-.016-.016-.056-.032-.12-.032v-.032h.481v.032c-.064 0-.104.016-.128.032s-.032.056-.032.112v.818s0 .032.008.048c0 .008.024.016.04.024h.04.08c.152 0 .257-.016.305-.04.056-.024.104-.088.152-.192h.04l-.08.297h-.914v-.032l.008-.008zM54.85 38.145c.056 0 .088-.008.104-.024s.024-.048.024-.096v-.586c0-.048 0-.08-.024-.096-.016-.016-.048-.024-.104-.024v-.024h.369c.104 0 .185.016.249.048s.096.088.096.177c0 .064-.024.112-.064.145-.024.016-.064.032-.112.048.064.016.112.04.153.072s.064.08.064.145a.2.2 0 0 1-.144.209c-.048.016-.112.032-.185.032h-.425v-.024zm.49-.474c.056-.024.08-.072.08-.137a.16.16 0 0 0-.096-.16c-.032-.016-.088-.024-.16-.024h-.048s-.008.016-.008.04v.297h.128c.04 0 .08-.008.112-.024l-.008.008zm.04.417c.048-.024.064-.072.064-.153s-.024-.12-.08-.153c-.056-.024-.12-.04-.201-.04h-.04-.024v.329s0 .04.016.04.04.008.088.008a.38.38 0 0 0 .169-.04l.008.008z" class="B"/><path d="M56.092 37.302v.024c-.048 0-.08.008-.096.024s-.024.048-.024.096v.417c0 .072.008.12.032.161.032.072.104.104.201.104.104 0 .177-.032.217-.104.024-.04.032-.104.032-.185v-.345c0-.072-.008-.112-.024-.136-.016-.016-.048-.032-.096-.032v-.024h.305v.024c-.048 0-.08.016-.096.04-.016.016-.024.064-.024.128v.345a.48.48 0 0 1-.04.209c-.048.096-.152.137-.289.137s-.241-.048-.289-.137a.43.43 0 0 1-.04-.193v-.409c0-.048 0-.08-.024-.088-.016-.016-.048-.024-.096-.024v-.024h.369l-.016-.008z" class="B"/><path d="M56.733 37.904c.024.056.048.104.08.145.048.064.12.088.193.088.04 0 .08-.016.112-.04s.048-.064.048-.112c0-.04-.016-.08-.048-.112-.016-.024-.064-.048-.128-.088l-.112-.072s-.064-.04-.08-.064c-.04-.04-.056-.088-.056-.136 0-.064.024-.12.064-.169a.25.25 0 0 1 .177-.064c.032 0 .064 0 .104.024.04.016.064.024.072.024.016 0 .024 0 .032-.008l.016-.032h.024l.032.281h-.032c-.024-.08-.056-.145-.104-.177s-.096-.048-.136-.048c-.032 0-.064.008-.096.032-.024.024-.04.048-.04.088 0 .032.008.064.032.088s.048.048.096.072l.112.072a1 1 0 0 1 .153.12c.032.04.04.08.04.136 0 .072-.024.128-.08.169a.28.28 0 0 1-.201.072c-.04 0-.08 0-.128-.024l-.072-.024c-.016 0-.024 0-.032.016 0 .008-.008.016-.008.032h-.032l-.04-.281h.032l.008-.008z" class="B"/><use href="#D" class="B"/><use href="#E" class="B"/><path d="M58.776 38.145c.048 0 .08-.016.096-.024.016-.016.024-.04.024-.096v-.586c0-.048 0-.08-.024-.088-.016-.016-.048-.024-.096-.024v-.024h.698v.185h-.032c-.008-.056-.024-.096-.048-.112s-.072-.024-.152-.024h-.177s-.032 0-.032.008v.032.289h.201c.056 0 .088-.008.104-.024s.024-.048.04-.104h.032v.305h-.032c-.008-.048-.024-.088-.04-.104s-.048-.024-.104-.024h-.201v.321s.008.04.024.048h.145c.088 0 .153-.008.201-.032.04-.016.08-.064.112-.145h.04l-.056.225h-.706v-.024l-.016.024z" class="B"/><path d="M59.642 37.904c.024.056.048.104.08.145.048.064.12.088.193.088.04 0 .08-.016.112-.04s.048-.064.048-.112c0-.04-.016-.08-.048-.112-.016-.024-.064-.048-.128-.088l-.112-.072s-.064-.04-.08-.064c-.04-.04-.056-.088-.056-.136a.26.26 0 0 1 .064-.169c.04-.048.104-.064.177-.064.032 0 .064 0 .104.024.04.016.064.024.072.024.016 0 .024 0 .032-.008l.016-.032h.024l.032.281h-.032c-.024-.08-.056-.145-.104-.177s-.096-.048-.136-.048c-.032 0-.064.008-.096.032-.024.024-.04.048-.04.088 0 .032.008.064.032.088a.5.5 0 0 0 .096.072l.112.072a1 1 0 0 1 .153.12c.032.04.04.08.04.136 0 .072-.024.128-.08.169s-.12.072-.201.072c-.04 0-.08 0-.128-.024l-.072-.024c-.016 0-.024 0-.032.016 0 .008-.008.016-.008.032h-.032l-.04-.281h.032l.008-.008z" class="B"/><path d="M60.371 37.904c.024.056.048.104.08.145.048.064.12.088.193.088.04 0 .08-.016.112-.04s.048-.064.048-.112c0-.04-.016-.08-.048-.112-.016-.024-.064-.048-.128-.088l-.112-.072s-.064-.04-.08-.064c-.04-.04-.056-.088-.056-.136a.26.26 0 0 1 .064-.169.25.25 0 0 1 .177-.064c.032 0 .064 0 .104.024.04.016.064.024.072.024.016 0 .024 0 .032-.008l.016-.032h.024l.032.281h-.032c-.024-.08-.056-.145-.104-.177s-.096-.048-.136-.048c-.032 0-.064.008-.096.032-.024.024-.04.048-.04.088 0 .032.008.064.032.088a.5.5 0 0 0 .096.072l.112.072c.072.048.12.088.153.12.032.04.04.08.04.136 0 .072-.024.128-.08.169a.28.28 0 0 1-.201.072c-.04 0-.08 0-.128-.024l-.072-.024c-.016 0-.024 0-.032.016 0 .008-.008.016-.008.032h-.032l-.04-.281h.032l.008-.008zm.986.24c.056 0 .088-.016.104-.04.016-.016.024-.064.024-.128v-.529c0-.048 0-.08-.024-.096-.016-.016-.048-.024-.104-.024v-.024h.257l.305.65.297-.65h.257v.024c-.048 0-.08.016-.096.024-.016.016-.024.048-.024.088v.585c0 .048 0 .08.024.088.016.016.048.024.096.024v.024h-.369v-.024c.056 0 .088-.016.096-.032.016-.016.016-.048.016-.104v-.585l-.337.746h-.016l-.329-.714v.521c0 .072.008.12.032.136.016.016.048.024.088.032v.024h-.305v-.024l.008.008z" class="B"/><use href="#F" class="B"/><path d="M64.09 37.302a.49.49 0 0 0 .088.024c.016 0 .032 0 .04-.008 0 0 .016-.016.024-.032h.032v.273h-.016a.58.58 0 0 0-.08-.145c-.048-.056-.12-.08-.201-.08s-.16.032-.225.096-.096.169-.096.313c0 .12.032.217.096.281a.33.33 0 0 0 .233.104h.056c.024 0 .04 0 .064-.016.032-.008.048-.016.056-.024 0 0 .008-.016.008-.032v-.209c0-.048 0-.08-.024-.096-.016-.016-.048-.024-.096-.024v-.024h.337v.024s-.056 0-.064.016c-.016.016-.024.04-.024.088v.257s-.04.032-.112.064c-.072.024-.144.04-.217.04a.49.49 0 0 1-.321-.112c-.096-.08-.145-.193-.145-.329a.48.48 0 0 1 .112-.313c.088-.096.201-.144.337-.144.048 0 .104 0 .153.024l-.016-.016z" class="B"/><use href="#F" x="1.892" class="B"/><path d="M65.355 38.153l.578-.803h-.305c-.072 0-.128.016-.16.056a.46.46 0 0 0-.048.12h-.032l.024-.225h.69v.016l-.578.803h.337c.08 0 .136-.016.169-.056.024-.024.04-.064.056-.128h.032l-.032.233h-.739v-.016h.008z" class="B"/><use href="#D" x="8.775" class="B"/><use href="#E" x="8.767" class="B"/><path d="M67.543 38.145c.048 0 .08-.016.096-.024.016-.016.024-.04.024-.096v-.586c0-.048 0-.08-.024-.088s-.048-.024-.096-.024v-.024h.698v.185h-.032c-.008-.056-.024-.096-.048-.112s-.072-.024-.153-.024h-.177s-.032 0-.032.008v.032.289H68c.056 0 .088-.008.104-.024s.024-.048.04-.104h.032v.305h-.032c-.008-.048-.024-.088-.04-.104s-.048-.024-.104-.024h-.2v.321s.008.04.024.048h.145c.088 0 .153-.008.201-.032.04-.016.08-.064.112-.145h.04l-.056.225h-.706v-.024l-.016.024zm-6.083 5.737l.016.209c-.177.016-.345.024-.521.016-.032 0-.064 0-.088-.008-.032-.008-.056-.024-.08-.048a.19.19 0 0 1-.048-.072c-.008-.032-.016-.056-.016-.088v-.609s0-.064.016-.088c.008-.032.032-.056.056-.072.024-.024.048-.04.08-.048s.064-.016.088-.008l.521.016-.016.208h-.393-.024c-.008 0-.016 0-.024.016s-.008.016-.016.024v.024.128h.401v.193h-.401v.16.024c0 .008 0 .016.016.024 0 0 .016.008.024.016h.024.393l-.008-.016z" class="B"/><path d="M62.085 44.099l-.16-.305-.169.305h-.273l.225-.385-.209-.369h.281l.152.281.145-.281h.273l-.209.369.225.385h-.273-.008z" class="B"/><path d="M63.048 43.377l-.024.169h-.225c-.112 0-.153.04-.153.177s.04.177.153.177c.08 0 .16 0 .241-.016l.024.177a.7.7 0 0 1-.313.056c-.289 0-.393-.104-.393-.401s.104-.401.393-.401a.92.92 0 0 1 .297.048m.352.471c0 .048.024.064.08.064h.056l.032.184a.58.58 0 0 1-.2.032c-.144 0-.24-.08-.24-.209v-.874h.273v.802zm.963-.489v.755h-.217l-.024-.104a.44.44 0 0 1-.305.128c-.145 0-.217-.072-.217-.209v-.57h.281v.482c0 .048.016.064.064.064a.3.3 0 0 0 .144-.04v-.506h.281-.008z" class="B"/><path d="M65.147 43.353l-.016.169h-.297c-.112 0-.129 0-.129.032s.024.032.096.048l.185.048c.128.032.193.088.193.217 0 .193-.104.241-.361.241a1.91 1.91 0 0 1-.369-.032l.016-.169h.265c.144 0 .177 0 .177-.04s-.024-.032-.104-.056l-.177-.048a.21.21 0 0 1-.193-.241c0-.145.088-.217.337-.217a1.91 1.91 0 0 1 .369.032" class="B"/><path d="M65.531 43.088v.08.032c0 .008-.008.016-.016.024 0 0-.016.016-.024.016h-.032-.12-.032c-.008 0-.016-.008-.024-.016 0 0-.016-.016-.016-.024v-.032-.08-.032c0-.008.008-.024.016-.032 0 0 .016-.016.024-.016h.032.12c.056 0 .08.024.08.08h-.008zm0 1.01h-.273v-.754h.273v.754z" class="B"/><path d="M66.213 44.035s-.016.032-.032.048c-.016.008-.032.016-.056.016h-.241s-.04 0-.056-.016c-.016-.008-.024-.032-.032-.048l-.233-.69h.289l.112.441.024.136h.016l.024-.136.112-.441h.289l-.233.69h.016z" class="B"/><path d="M67.183 43.883l.024.169a.89.89 0 0 1-.353.064c-.305 0-.417-.12-.417-.393 0-.297.112-.401.409-.401.273 0 .377.088.377.265 0 .136-.072.201-.265.201h-.225c.008.088.048.112.152.112.096 0 .201 0 .297-.016zm-.45-.233h.152c.064 0 .072-.016.072-.064 0-.064-.024-.072-.104-.072-.096 0-.12.016-.12.145m-4.769.679l.04.946h-.256l-.032-.833h-.024l-.128.585s-.016.048-.04.064a.13.13 0 0 1-.072.024h-.16s-.056 0-.072-.024c-.024-.016-.032-.04-.04-.064l-.128-.585h-.024l-.024.833h-.264l.04-.946v-.04c0-.016.016-.024.024-.032s.024-.016.032-.024h.04.256s.056 0 .072.024c.024.016.032.04.04.064l.096.465.024.152h.016l.024-.152.096-.465s.016-.048.04-.064.048-.024.072-.024h.256.04c.016 0 .024.016.032.024s.016.024.024.032v.04z" class="B"/><path d="M62.84 44.803v.482h-.217l-.024-.112c-.032.04-.072.072-.12.096s-.096.032-.153.032c-.145 0-.257-.072-.257-.217v-.072c0-.12.088-.193.241-.193h.249v-.024c0-.064-.024-.088-.104-.088l-.321.008-.024-.177a3.49 3.49 0 0 1 .417-.04c.201 0 .313.072.313.297m-.425.313a.23.23 0 0 0 .145-.056v-.088h-.161c-.048 0-.064.024-.064.064v.024s.024.064.072.064" class="B"/><path d="M63.529 44.506l-.024.257h-.072c-.072 0-.136.016-.209.032v.498h-.273v-.763h.217l.024.112c.08-.08.185-.128.305-.128h.04l-.008-.008z" class="B"/><path d="M63.889 44.948h-.056l.008.112v.225h-.273v-1.067h.273v.425c0 .048 0 .096-.008.144h.056l.16-.257h.305l-.176.257s-.048.064-.08.08l.08.096.2.321h-.305l-.192-.337h.008z" class="B"/><path d="M65.091 45.068l.024.169a.89.89 0 0 1-.353.064c-.305 0-.417-.12-.417-.393 0-.297.112-.401.409-.401.273 0 .377.088.377.265 0 .136-.064.201-.265.201h-.225c.016.088.048.112.153.112.096 0 .201 0 .297-.016zm-.45-.233h.153c.064 0 .072-.016.072-.064 0-.064-.024-.072-.104-.072-.096 0-.12.016-.12.145" class="B"/><path d="M65.563 44.708v.321c0 .048.016.064.072.064h.088l.032.185c-.08.024-.16.032-.241.032-.144 0-.233-.08-.233-.217v-.385h-.129v-.169h.129v-.209h.281v.201h.193v.177h-.193z" class="B"/><path d="M66.486 44.538l-.016.169h-.297c-.112 0-.128 0-.128.032s.024.032.096.048l.185.048c.129.04.193.096.193.225 0 .193-.104.241-.361.241-.12 0-.249-.008-.369-.032l.016-.169h.265c.144 0 .177 0 .177-.04s-.024-.032-.104-.056l-.177-.048c-.153-.048-.193-.12-.193-.241 0-.145.088-.217.337-.217.12 0 .249.008.369.032m-8.352-1.626l-.689.345-1.635.873.128.072 1.643-.881 2.236 1.21.697-.345-2.372-1.282-.008.008zm-.729 2.139l.777.369.673-.337-.729-.401-.721.369zm.729-1.265l-.689.345-.825.449.12.048.817-.433 1.418.793.705-.353-1.546-.849zm12.477-31.115c-.921-.737-1.546-1.522-2.468-2.26l-2.724.008c-2.508 0-5.08-.016-7.588-.016l-2.724.008-2.332 2.604-5.585 43.087 3.606 13.542 3.093 1.531h.008 2.132 1.499 8.983 1.739 1.13l3.406-1.659 2.981-12.805-5.16-44.04h.008zm1.362 22.1l2.484 21.251-2.284 1.042-4.039-42.261h.016l1.346-1.162 2.476 21.131zm-.962 22.821l-.072.032-18.518.04 1.923-21.107 2.027-21.852 10.682.088 2.18 24.24 1.771 18.558h.008zM54.85 12.51l.785-.889h2.196l3.79.008 3.798.008h2.284l.825.777.248.24-.112.096-.954.825-6.034-.048-6.146-.048-.913-.649-.024-.016.264-.305h-.008zM51.3 33.769l2.588-19.961 1.234.873-3.91 42.862-2.7-2.244 2.797-21.539-.008.008zm1.546 35.53l-1.034-.513-3.149-11.835 2.636 2.083 2.252 10.617-.705-.353zm15.554.649h-1.907-.954-3.574-2.724-2.997-1.386l-.881-4.151-1.434-6.779h18.334l-1.234 5.441L68.4 69.94v.008zm3.317-1.274l-2.003.978 2.524-11.146 2.099-1.058-2.62 11.226zm39.579 42.856l.447-1.711.131.578a.65.65 0 0 1-.455-.17c-.118-.113-.177-.264-.177-.455s.059-.341.177-.454c.124-.119.273-.178.448-.178s.328.059.447.178a.61.61 0 0 1 .177.454c0 .057-.005.116-.015.178-.006.056-.021.123-.047.2-.02.072-.056.167-.108.285l-.4 1.095h-.625zm1.634 0l.447-1.711.131.578c-.179 0-.331-.057-.454-.17s-.178-.264-.178-.455.059-.341.178-.454a.62.62 0 0 1 .447-.178c.18 0 .329.059.447.178s.177.269.177.454c0 .057-.005.116-.015.178-.005.056-.021.123-.047.2-.02.072-.056.167-.107.285l-.401 1.095h-.625zm-6.906 2.159v-.694l2.66-3.477h1.071l-2.621 3.477-.501-.154h4.279v.848h-4.888zm2.96 1.225v-1.225l.031-.848v-1.087h.941v3.16h-.972zm-7.326 0v-.671l2.143-2.035c.18-.169.314-.318.401-.447a1.12 1.12 0 0 0 .17-.354 1.2 1.2 0 0 0 .046-.316c0-.247-.085-.437-.254-.571s-.419-.208-.748-.208c-.262 0-.501.046-.717.139a1.44 1.44 0 0 0-.547.424l-.702-.54c.211-.283.494-.501.848-.655.36-.159.761-.239 1.203-.239.39 0 .729.064 1.017.193.293.123.517.3.671.532s.239.506.239.824c0 .175-.023.35-.07.524s-.133.35-.262.54-.316.403-.562.64l-1.843 1.75-.208-.378h3.153v.848h-3.978zm-2.859.077a2.13 2.13 0 0 1-1.156-.324c-.339-.216-.606-.529-.802-.94s-.293-.92-.293-1.511.098-1.092.293-1.503.462-.732.802-.948a2.13 2.13 0 0 1 1.156-.324c.432 0 .817.108 1.156.324s.606.532.802.948.3.912.3 1.503-.1 1.095-.3 1.511-.463.724-.802.94-.725.324-1.156.324zm0-.871c.252 0 .47-.067.655-.201s.329-.349.432-.632.161-.639.161-1.071-.053-.794-.161-1.072c-.103-.282-.247-.49-.432-.624a1.06 1.06 0 0 0-.655-.208 1.07 1.07 0 0 0-.647.208c-.185.134-.332.342-.439.624s-.154.635-.154 1.072.051.789.154 1.071c.108.283.254.494.439.632.19.134.406.201.647.201zm-6.807.794v-.671l2.143-2.035c.18-.169.314-.318.401-.447a1.13 1.13 0 0 0 .17-.354 1.21 1.21 0 0 0 .046-.316c0-.247-.085-.437-.254-.571s-.419-.208-.748-.208c-.262 0-.501.046-.717.139a1.44 1.44 0 0 0-.547.424l-.701-.54c.211-.283.493-.501.848-.655.36-.159.761-.239 1.203-.239.391 0 .73.064 1.017.193.293.123.517.3.671.532s.239.506.239.824a2.03 2.03 0 0 1-.069.524 1.85 1.85 0 0 1-.262.54c-.128.19-.316.403-.563.64l-1.842 1.75-.208-.378h3.153v.848h-3.978zm-2.358-5.72l-.447 1.712-.123-.579a.62.62 0 0 1 .447.17.6.6 0 0 1 .177.455c0 .19-.059.344-.177.462a.61.61 0 0 1-.439.17c-.185 0-.337-.059-.455-.177s-.177-.27-.177-.455l.008-.17c.01-.056.028-.123.054-.2l.108-.293.409-1.095h.617zm1.634 0l-.447 1.712-.123-.579a.62.62 0 0 1 .447.17.6.6 0 0 1 .177.455c0 .19-.059.344-.177.462a.61.61 0 0 1-.439.17c-.185 0-.337-.059-.455-.177s-.177-.27-.177-.455l.008-.17c.01-.056.028-.123.054-.2l.108-.293.409-1.095h.617z" class="B"/><use href="#G" class="B"/><use href="#H" class="B"/><path d="M70.474 114.914v-5.396h2.528c.648 0 1.141.129 1.48.386a1.2 1.2 0 0 1 .509 1.017c0 .288-.067.535-.2.74s-.313.357-.54.47c-.221.108-.462.162-.724.162l.139-.277c.303 0 .576.056.817.169s.432.268.57.478c.144.211.216.473.216.787 0 .462-.177.822-.532 1.079s-.881.385-1.58.385h-2.683zm1.002-.786h1.619c.375 0 .663-.062.863-.185s.301-.321.301-.594c0-.267-.1-.462-.301-.585-.2-.129-.488-.193-.863-.193h-1.696v-.779h1.495c.349 0 .617-.061.802-.185s.285-.308.285-.555-.095-.439-.285-.562-.452-.185-.802-.185h-1.418v3.823zm-4.963.863c-.421 0-.809-.069-1.164-.208s-.663-.332-.925-.578a2.68 2.68 0 0 1-.609-.879c-.144-.334-.216-.709-.216-1.11s.072-.768.216-1.102a2.57 2.57 0 0 1 .609-.879 2.86 2.86 0 0 1 .925-.586 3.14 3.14 0 0 1 1.156-.208 3.1 3.1 0 0 1 1.156.208 2.78 2.78 0 0 1 .925.586 2.62 2.62 0 0 1 .609.879c.144.334.216.701.216 1.102a2.81 2.81 0 0 1-.216 1.11 2.58 2.58 0 0 1-.609.879 2.84 2.84 0 0 1-.925.578 3.08 3.08 0 0 1-1.148.208zm-.008-.879c.272 0 .524-.046.755-.139s.432-.223.601-.393.301-.375.393-.601c.098-.231.146-.486.146-.763s-.049-.529-.146-.755a1.77 1.77 0 0 0-.393-.602 1.73 1.73 0 0 0-.601-.401c-.231-.092-.483-.138-.755-.138s-.524.046-.755.138a1.83 1.83 0 0 0-.601.401c-.17.17-.303.37-.401.602-.093.226-.139.477-.139.755 0 .272.046.524.139.755a1.94 1.94 0 0 0 .401.609 1.76 1.76 0 0 0 .601.393c.231.092.483.139.755.139z" class="B"/><use href="#G" x="-22.643" class="B"/><path d="M56.035 114.991a3.29 3.29 0 0 1-1.164-.2 2.87 2.87 0 0 1-.917-.579c-.262-.251-.465-.547-.609-.886a2.81 2.81 0 0 1-.216-1.11 2.81 2.81 0 0 1 .216-1.11 2.58 2.58 0 0 1 .609-.879 2.77 2.77 0 0 1 .933-.578c.355-.139.743-.208 1.164-.208.457 0 .868.074 1.233.223a2.42 2.42 0 0 1 .933.656l-.632.616c-.211-.21-.439-.365-.686-.462-.242-.103-.509-.154-.802-.154a2.19 2.19 0 0 0-.786.138 1.82 1.82 0 0 0-.624.394 1.79 1.79 0 0 0-.408.601c-.093.231-.139.485-.139.763 0 .272.046.524.139.755a1.88 1.88 0 0 0 .408.609 1.82 1.82 0 0 0 .617.393 2.13 2.13 0 0 0 .786.139 2.43 2.43 0 0 0 .771-.123c.252-.087.491-.231.717-.432l.571.748c-.283.226-.612.398-.987.516a3.83 3.83 0 0 1-1.125.17zm1.164-.817v-2.02h.948v2.151l-.948-.131zm-13.178.74v-5.396h.825l2.359 3.939h-.432l2.32-3.939h.825l.008 5.396h-.948l-.008-3.908h.2l-1.973 3.292h-.447l-2.004-3.292h.231v3.908h-.956z" class="B"/><use href="#H" x="-38.091" class="B"/><path d="M32.609 114.914v-5.396h2.22c.478 0 .886.077 1.226.232s.609.375.794.662.278.63.278 1.026-.093.737-.278 1.025-.45.501-.794.655-.748.224-1.226.224h-1.665l.447-.455v2.027h-1.002zm3.53 0l-1.364-1.958h1.072l1.372 1.958H36.14zm-2.528-1.919l-.447-.478h1.619c.442 0 .774-.095.994-.285.226-.19.339-.455.339-.794 0-.345-.113-.609-.339-.794-.221-.185-.552-.278-.994-.278h-1.619l.447-.493v3.122zm-4.435 1.996a3.29 3.29 0 0 1-1.164-.2 2.87 2.87 0 0 1-.917-.579c-.262-.251-.465-.547-.609-.886a2.81 2.81 0 0 1-.216-1.11 2.81 2.81 0 0 1 .216-1.11 2.58 2.58 0 0 1 .609-.879 2.77 2.77 0 0 1 .933-.578c.355-.139.743-.208 1.164-.208.457 0 .869.074 1.233.223a2.42 2.42 0 0 1 .933.656l-.632.616c-.211-.21-.439-.365-.686-.462-.242-.103-.509-.154-.802-.154a2.19 2.19 0 0 0-.786.138 1.81 1.81 0 0 0-.624.394 1.83 1.83 0 0 0-.409.601c-.092.231-.139.485-.139.763 0 .272.046.524.139.755a1.88 1.88 0 0 0 .409.609 1.82 1.82 0 0 0 .617.393 2.13 2.13 0 0 0 .786.139 2.43 2.43 0 0 0 .771-.123c.252-.087.491-.231.717-.432l.57.748c-.283.226-.611.398-.987.516a3.83 3.83 0 0 1-1.125.17zm1.164-.817v-2.02h.948v2.151l-.948-.131zm-7.646.817c-.421 0-.809-.069-1.164-.208s-.663-.332-.925-.578a2.68 2.68 0 0 1-.609-.879 2.81 2.81 0 0 1-.216-1.11c0-.401.072-.768.216-1.102a2.57 2.57 0 0 1 .609-.879 2.86 2.86 0 0 1 .925-.586 3.14 3.14 0 0 1 1.156-.208 3.1 3.1 0 0 1 1.156.208 2.78 2.78 0 0 1 .925.586 2.62 2.62 0 0 1 .609.879c.144.334.216.701.216 1.102a2.81 2.81 0 0 1-.216 1.11 2.58 2.58 0 0 1-.609.879 2.84 2.84 0 0 1-.925.578 3.08 3.08 0 0 1-1.149.208zm-.008-.879c.272 0 .524-.046.756-.139s.432-.223.601-.393.301-.375.393-.601a1.94 1.94 0 0 0 .146-.763 1.88 1.88 0 0 0-.146-.755 1.77 1.77 0 0 0-.393-.602 1.74 1.74 0 0 0-.601-.401c-.231-.093-.483-.138-.756-.138a2.02 2.02 0 0 0-.755.138c-.226.093-.427.227-.601.401a1.87 1.87 0 0 0-.401.602c-.092.226-.139.477-.139.755 0 .272.046.524.139.755s.231.435.401.609.37.301.601.393.483.139.755.139zm-8.158.802v-5.396h2.22c.478 0 .886.077 1.226.232s.609.375.794.662.277.63.277 1.026-.093.737-.277 1.025-.45.501-.794.655c-.339.149-.748.224-1.226.224h-1.665l.447-.455v2.027h-1.002zm3.531 0l-1.364-1.958h1.071l1.372 1.958h-1.079zm-2.528-1.919l-.447-.478h1.619c.442 0 .773-.095.994-.285s.339-.455.339-.794c0-.345-.113-.609-.339-.794s-.553-.278-.994-.278h-1.619l.447-.493v3.122zm-6.521 1.919v-5.396h2.22c.478 0 .886.077 1.226.232s.609.375.794.662.277.63.277 1.026-.092.737-.277 1.025-.45.509-.794.663c-.339.154-.748.231-1.226.231H9.565l.447-.47v2.027H9.01zm1.002-1.919l-.447-.486h1.619c.442 0 .773-.092.994-.277.226-.19.339-.455.339-.794 0-.345-.113-.609-.339-.794-.221-.185-.552-.278-.994-.278H9.565l.447-.493v3.122zm81.737-7.204a4.11 4.11 0 0 1-1.21-.177c-.385-.124-.691-.28-.917-.47l.347-.779c.216.17.483.311.802.424a2.91 2.91 0 0 0 .979.17c.283 0 .511-.031.686-.093s.303-.144.385-.247a.58.58 0 0 0 .123-.362c0-.164-.059-.295-.177-.393s-.272-.183-.462-.239a6.39 6.39 0 0 0-.624-.17l-.686-.177a3.27 3.27 0 0 1-.624-.27 1.4 1.4 0 0 1-.455-.447c-.118-.185-.177-.421-.177-.709a1.46 1.46 0 0 1 .231-.802c.159-.246.398-.442.717-.585.324-.15.732-.224 1.226-.224a3.85 3.85 0 0 1 .963.123 2.81 2.81 0 0 1 .833.355l-.316.778a2.91 2.91 0 0 0-.748-.316 2.74 2.74 0 0 0-.74-.108c-.278 0-.504.034-.678.101s-.295.154-.378.262a.62.62 0 0 0-.116.37c0 .164.056.298.17.401.118.097.27.174.455.231l.632.169.686.178a2.75 2.75 0 0 1 .624.262c.19.108.342.254.455.439s.177.419.177.702a1.46 1.46 0 0 1-.239.801c-.154.242-.393.437-.717.586s-.732.216-1.226.216zm-7.311-.077v-5.396h2.22c.478 0 .886.077 1.226.231a1.79 1.79 0 0 1 .794.663c.185.288.278.63.278 1.026s-.093.737-.278 1.025a1.8 1.8 0 0 1-.794.655c-.339.149-.748.223-1.226.223h-1.665l.447-.454v2.027h-1.002zm3.53 0l-1.364-1.958h1.071l1.372 1.958h-1.079zm-2.528-1.919l-.447-.478h1.619c.442 0 .773-.095.994-.286s.339-.454.339-.793c0-.345-.113-.609-.339-.794s-.552-.278-.994-.278h-1.619l.447-.493v3.122zm-5.242-1.234h2.683v.825h-2.683v-.825zm.077 2.313h3.045v.84h-4.047v-5.396h3.939v.84h-2.937v3.716zm-7.242.84v-5.396h.825l3.384 4.155h-.409v-4.155h.994v5.396h-.825l-3.384-4.155h.409v4.155h-.994zm-3.542 0v-4.548h-1.788v-.848h4.579v.848h-1.788v4.548h-1.002zm-6.658 0v-5.396h2.22c.478 0 .886.077 1.226.231a1.79 1.79 0 0 1 .794.663c.185.288.278.63.278 1.026s-.093.737-.278 1.025a1.8 1.8 0 0 1-.794.655c-.339.149-.748.223-1.226.223h-1.665l.447-.454v2.027h-1.002zm3.531 0L65 103.756h1.071l1.372 1.958h-1.079zm-2.528-1.919l-.447-.478h1.619c.442 0 .773-.095.994-.286s.339-.454.339-.793c0-.345-.113-.609-.339-.794s-.552-.278-.994-.278h-1.619l.447-.493v3.122z" class="B"/><use href="#H" x="-19.279" y="-9.2" class="B"/><path d="M51.813 105.714v-5.396h2.22c.478 0 .886.077 1.226.231a1.79 1.79 0 0 1 .794.663c.185.288.277.63.277 1.026s-.093.737-.277 1.025a1.78 1.78 0 0 1-.794.663c-.339.154-.748.231-1.226.231h-1.665l.447-.47v2.027h-1.002zm1.002-1.919l-.447-.486h1.619c.442 0 .773-.093.994-.278.226-.19.339-.454.339-.793 0-.345-.113-.609-.339-.794-.221-.185-.552-.278-.994-.278h-1.619l.447-.493v3.122zm-6.675 1.919v-4.548h-1.788v-.848h4.579v.848h-1.788v4.548H46.14zm-4.195.077a4.11 4.11 0 0 1-1.21-.177c-.385-.124-.691-.28-.917-.47l.347-.779c.216.17.483.311.802.424a2.91 2.91 0 0 0 .979.17c.283 0 .511-.031.686-.093s.303-.144.386-.247a.58.58 0 0 0 .123-.362c0-.164-.059-.295-.177-.393s-.272-.183-.463-.239a6.39 6.39 0 0 0-.624-.17l-.686-.177c-.226-.072-.434-.162-.624-.27a1.4 1.4 0 0 1-.455-.447c-.118-.185-.177-.421-.177-.709a1.46 1.46 0 0 1 .231-.802c.159-.246.398-.442.717-.585.324-.15.732-.224 1.226-.224a3.85 3.85 0 0 1 .964.123 2.8 2.8 0 0 1 .832.355l-.316.778c-.241-.143-.491-.249-.748-.316a2.74 2.74 0 0 0-.74-.108c-.278 0-.504.034-.678.101a.85.85 0 0 0-.378.262.62.62 0 0 0-.116.37c0 .164.056.298.17.401.118.097.27.174.455.231l.632.169.686.178a2.75 2.75 0 0 1 .624.262c.19.108.342.254.455.439.118.185.177.419.177.702a1.46 1.46 0 0 1-.239.801c-.154.242-.393.437-.717.586s-.732.216-1.226.216zm-5.912-3.23h2.682v.825h-2.682v-.825zm.077 2.313h3.045v.84h-4.047v-5.396h3.939v.84H36.11v3.716zm-6.866.84v-5.396h2.528c.648 0 1.141.129 1.48.386a1.2 1.2 0 0 1 .509 1.017c0 .288-.067.534-.2.74a1.37 1.37 0 0 1-.54.47 1.63 1.63 0 0 1-.725.162l.139-.277c.303 0 .576.056.817.169a1.3 1.3 0 0 1 .57.478c.144.211.216.473.216.786 0 .463-.177.823-.532 1.08s-.881.385-1.58.385h-2.683zm1.002-.786h1.619c.375 0 .663-.062.863-.185s.301-.321.301-.594c0-.267-.1-.462-.301-.586s-.488-.192-.863-.192h-1.696v-.779h1.495c.349 0 .617-.062.802-.185s.285-.308.285-.555-.095-.439-.285-.563-.452-.185-.802-.185h-1.418v3.824z" class="B"/><defs ><path id="B" d="M54.834 36.806c.072 0 .112-.016.136-.032s.032-.056.032-.12V35.9c0-.064-.008-.104-.032-.12s-.064-.032-.136-.032v-.032h.505v.032c-.072 0-.112.016-.136.032s-.032.056-.032.12v.754c0 .064.008.104.032.12s.064.024.136.032v.032h-.505v-.032z"/><path id="C" d="M55.396 36.806c.072 0 .112-.024.136-.048.016-.024.032-.08.032-.168v-.746l-.024-.024s-.048-.048-.064-.056c-.016 0-.04-.008-.08-.016v-.032h.289l.658.81v-.561c0-.096-.016-.152-.04-.184-.016-.016-.056-.032-.12-.032v-.032h.401v.032c-.064 0-.104.024-.128.048s-.032.08-.032.168v.89h-.032l-.754-.93v.657c0 .096.016.152.04.184.016.016.056.032.12.04v.032h-.401v-.032z"/><path id="D" d="M57.398 38.145c.056 0 .088-.008.104-.024s.024-.04.024-.096v-.586c0-.048 0-.08-.024-.096-.016-.016-.048-.024-.104-.024v-.024h.385v.024c-.056 0-.088.008-.104.024s-.024.048-.024.096v.586c0 .048 0 .08.024.096.016.016.048.016.104.024v.024h-.385v-.024z"/><path id="E" d="M57.831 38.145c.056 0 .088-.016.104-.04.016-.016.024-.064.024-.128v-.578l-.016-.024s-.032-.04-.048-.04-.032-.008-.064-.008v-.024h.225l.506.626v-.433c0-.072-.008-.12-.032-.136-.016-.016-.048-.024-.096-.024v-.024h.305v.024c-.048 0-.08.016-.096.04-.016.016-.024.064-.024.128v.69h-.024l-.578-.722v.514c0 .072.008.12.032.137.016.016.048.024.088.032v.024h-.305v-.024-.008z"/><path id="F" d="M62.526 38.169v-.024s.056-.016.072-.04a1.1 1.1 0 0 0 .088-.177l.273-.642h.024l.329.746c.024.048.04.08.056.088s.032.016.064.024v.024h-.337v-.024s.064 0 .072-.016c.008 0 .016-.016.016-.032v-.032c0-.016-.008-.032-.016-.048l-.056-.128h-.345l-.064.161c0 .016-.008.032-.008.048 0 .024.008.04.024.048.008 0 .032.008.064.008v.024h-.257v-.008zm.562-.337l-.153-.361-.152.361h.305z"/><path id="G" d="M82.111 114.914v-5.396h1.002v4.548h2.821v.848h-3.823z"/><path id="H" d="M75.575 114.914l2.428-5.396h.987l2.436 5.396h-1.048l-2.089-4.864h.401l-2.081 4.864h-1.033zm1.118-1.249l.27-.786h2.914l.27.786h-3.453z"/></defs></svg>