<svg width="50" height="50" viewBox="0 0 50 50" fill="none" xmlns="http://www.w3.org/2000/svg">
<path d="M40.766 12.4566V5H13.2746C9.80935 5 7.03711 7.81074 7.03711 11.2375V29.3726V35.2636V33.9545C7.03711 32.5298 8.19221 31.4132 9.57833 31.4132H39.1103C40.0344 31.4132 40.8045 30.6817 40.8045 29.7191V23.135" stroke="#001D3A" stroke-width="1.5" stroke-miterlimit="10" stroke-linecap="round"/>
<path d="M28.5985 22.8655H43.0757C43.3452 22.8655 43.5762 22.6345 43.5762 22.365V13.1242C43.5762 12.8547 43.3452 12.6237 43.0757 12.6237H28.5985C25.7877 12.6237 23.4775 14.8954 23.4775 17.7446C23.4775 20.5938 25.7877 22.8655 28.5985 22.8655Z" stroke="#001D3A" stroke-width="1.5" stroke-miterlimit="10" stroke-linecap="round"/>
<path d="M28.2546 20.0552C29.5092 20.0552 30.5263 19.0382 30.5263 17.7835C30.5263 16.5289 29.5092 15.5118 28.2546 15.5118C27 15.5118 25.9829 16.5289 25.9829 17.7835C25.9829 19.0382 27 20.0552 28.2546 20.0552Z" stroke="#001D3A" stroke-width="1.6955" stroke-miterlimit="10"/>
<path d="M34.2621 46.8147H15.1644C14.2404 46.8147 13.5088 46.0831 13.5088 45.1591V32.6455H35.8792V45.1591C35.8792 46.0831 35.1476 46.8147 34.2621 46.8147Z" fill="#A9DAF0"/>
<path d="M7 35.3408C7 37.3115 8.1936 38.036 9.69523 38.036H12.3135" stroke="#001D3A" stroke-width="1.5" stroke-miterlimit="10" stroke-linecap="square"/>
<path d="M25.4307 36.2151V42.4288" stroke="#001D3A" stroke-width="1.5" stroke-miterlimit="10" stroke-linecap="round"/>
<path d="M23.2388 40.9664L25.4318 43.1594L27.6249 40.9664" stroke="#001D3A" stroke-width="1.5" stroke-miterlimit="10" stroke-linecap="round"/>
</svg>
