<svg width="50" height="50" viewBox="0 0 50 50" fill="none" xmlns="http://www.w3.org/2000/svg">
<path d="M25.2104 29.3856C27.6676 29.3856 29.6595 27.3936 29.6595 24.9364C29.6595 22.4793 27.6676 20.4873 25.2104 20.4873C22.7532 20.4873 20.7612 22.4793 20.7612 24.9364C20.7612 27.3936 22.7532 29.3856 25.2104 29.3856Z" fill="#A9DAF0"/>
<path d="M4.7373 28.4023C4.7373 26.0154 6.69422 24.0672 9.07237 24.0672H12.1087C12.2227 24.0672 12.3105 23.9707 12.3105 23.8654V21.4609C12.3105 21.2854 12.5123 21.1889 12.6527 21.2942L19.8135 26.7964C19.9276 26.8841 19.9188 27.0421 19.8135 27.1298L12.6527 32.3863C12.5123 32.4916 12.3193 32.3863 12.3193 32.2196V28.8323C12.3193 28.7182 12.2227 28.6304 12.1174 28.6304H4.95669C4.83383 28.6304 4.7373 28.5339 4.7373 28.4111V28.4023Z" fill="#A9DAF0"/>
<path d="M3 28.5686H4.28121L9.83606 28.5335H11.8807C12.0475 28.5335 12.1879 28.6651 12.1879 28.8407V32.4825C12.1879 32.7282 12.4687 32.8773 12.6705 32.7282L23.0519 25.1111C23.2186 24.9882 23.2186 24.7513 23.0519 24.6284L12.6705 16.6516C12.4687 16.5024 12.1791 16.6428 12.1791 16.8885V20.3636C12.1791 20.5303 12.0475 20.6707 11.872 20.6707H3.01755" stroke="#001D3A" stroke-width="1.5" stroke-miterlimit="10"/>
<path d="M45.2801 21.4784C45.2801 23.8653 43.3231 25.8135 40.945 25.8135H37.9087C37.7946 25.8135 37.7069 25.91 37.7069 26.0153V28.4198C37.7069 28.5953 37.505 28.6918 37.3646 28.5865L30.2039 23.0843C30.0898 22.9965 30.0986 22.8386 30.2039 22.7508L37.3646 17.4943C37.505 17.389 37.6981 17.4943 37.6981 17.6611V21.0484C37.6981 21.1625 37.7946 21.2502 37.8999 21.2502H45.0519C45.1748 21.2502 45.2713 21.3468 45.2713 21.4696L45.2801 21.4784Z" fill="#A9DAF0"/>
<path d="M45.7365 21.3202L38.137 21.3553C37.9703 21.3553 37.8298 21.2237 37.8298 21.0482V17.4064C37.8298 17.1607 37.549 17.0115 37.3472 17.1607L26.9659 24.7777C26.7991 24.9006 26.7991 25.1375 26.9659 25.2604L37.3472 33.2372C37.549 33.3864 37.8386 33.246 37.8386 33.0003V29.5252C37.8386 29.3585 37.9703 29.2181 38.1458 29.2181H47.0002" stroke="#001D3A" stroke-width="1.5" stroke-miterlimit="10"/>
<path d="M35.4514 34.6503C32.7924 37.4585 29.019 39.2135 24.8419 39.2135C20.6648 39.2135 16.5842 37.3093 13.9077 34.2905" stroke="#001D3A" stroke-width="1.5" stroke-miterlimit="10"/>
<path d="M14.7505 14.0455C17.3743 11.5357 20.9284 10 24.8422 10C29.502 10 33.644 12.1763 36.3205 15.5724" stroke="#001D3A" stroke-width="1.5" stroke-miterlimit="10"/>
</svg>
