<svg xmlns="http://www.w3.org/2000/svg" width="122" height="115" fill="none" xmlns:v="https://vecta.io/nano"><style><![CDATA[.B{fill:#969697}]]></style><g fill-rule="evenodd" class="B"><path d="M37.061 64.705c.455 3.941-.241 3.356 0 6.555.221 2.751 1.99 4.409 3.473 5.918a8.9 8.9 0 0 0 .824-3.54c.028-1.224-.197-2.441-.661-3.574-.761-2.1-2.549-4.598-3.661-5.358h.026z"/><path d="M26.861 78.654c4.155-.65 3.141-1.489 6.061-2.452 2.504-.832 6.139.208 8.558 1.346-2.087 3.173-5.671 3.212-6.841 3.186-2.276-.059-6.431-1.073-7.804-2.075l.026-.007zm4.653-18.171c-.41 3.857-.858 3.096-1.301 6.198-.364 2.66.754 4.748 1.658 6.601 1.314-1.96 1.863-4.335 1.541-6.673-.202-2.205-1.171-5.086-1.951-6.126h.052z"/><path d="M19.191 71.54c3.902.28 3.108-.65 5.918-.936 2.419-.228 5.684 1.301 7.713 2.783-2.413 2.38-5.814 1.827-6.874 1.567-2.068-.514-5.69-2.257-6.757-3.421v.007zm7.615-16.428c-1.053 3.544-1.379 2.77-2.322 5.586-.813 2.432-.052 4.611.546 6.503 1.634-1.57 2.589-3.718 2.66-5.983.169-2.114-.312-5.001-.884-6.126v.02z"/><path d="M13.204 62.649c3.59 1.158 3.056.072 5.755.475 2.315.345 5.04 2.601 6.62 4.494-2.77 1.704-5.853.319-6.763-.175-1.808-.962-4.832-3.447-5.612-4.793zm10.801-14.731c-1.821 3.252-1.951 2.406-3.512 5.001-1.333 2.231-1.06 4.552-.897 6.64a8.66 8.66 0 0 0 3.934-5.313c.65-2.061.793-5.066.468-6.327h.006z"/><path d="M8.956 52.366c3.349 1.951 3.037.78 5.645 1.795 2.244.878 4.507 3.772 5.71 6.015-3.102 1.066-5.853-1.021-6.711-1.73-1.632-1.379-4.155-4.559-4.643-6.08zm13.61-11.843c-2.244 2.777-2.23 1.951-4.11 4.103-1.613 1.873-1.743 4.149-1.931 6.1 1.007-.384 1.928-.964 2.709-1.707a8.16 8.16 0 0 0 1.843-2.618 14.58 14.58 0 0 0 1.489-5.879z"/><path d="M8 41.701c2.725 2.647 2.692 1.437 4.936 3.004 1.951 1.346 3.434 4.598 4.084 6.991-3.154.28-5.313-2.328-5.95-3.186-1.243-1.684-2.933-5.261-3.07-6.809zm14.341-7.928c-2.465 2.1-2.296 1.346-4.338 2.972-1.749 1.398-2.289 3.401-2.816 5.124a7.49 7.49 0 0 0 4.767-3.089 13.67 13.67 0 0 0 2.354-5.001l.033-.007z"/><path d="M9.132 31.96c1.996 2.913 2.146 1.821 3.902 3.661 1.489 1.587 2.315 4.806 2.523 7.088-2.816-.364-4.318-3.128-4.747-4.025-.858-1.756-1.801-5.306-1.684-6.718l.006-.007zm14.574-4.274c-2.536 1.385-2.289.722-4.37 1.769-1.788.897-2.536 2.601-3.251 4.11a6.18 6.18 0 0 0 4.787-1.788 11.23 11.23 0 0 0 2.822-4.097l.013.006z"/><path d="M12.07 22.893c1.353 3.121 1.782 2.139 3.082 4.214 1.151 1.782 1.242 4.923.91 7.062-2.803-.949-3.687-3.824-3.902-4.741-.442-1.795-.566-5.261-.111-6.503l.02-.032zm13.867-.931c-2.439 1.073-2.166.488-4.162 1.301-1.717.65-2.517 2.218-3.252 3.525.805.128 1.628.082 2.413-.136a5.7 5.7 0 0 0 2.139-1.126 10.15 10.15 0 0 0 2.861-3.564zm-9.367-6.249c.65 3.115 1.203 2.315 2.023 4.481.709 1.86.221 4.747-.462 6.627-2.341-1.444-2.601-4.24-2.647-5.131-.072-1.73.442-4.916 1.086-5.983v.006zm12.429 1.098c-2.406.735-2.1.195-4.064.715-1.691.449-2.569 1.834-3.375 3.004.741.229 1.524.29 2.291.177a5.2 5.2 0 0 0 2.144-.827 9.11 9.11 0 0 0 3.011-3.069h-.007zm-7.506-6.718c.104 2.907.65 2.237 1.027 4.299.319 1.769-.468 4.337-1.301 5.976-1.697-1.567-1.541-4.149-1.45-4.955.176-1.58 1.027-4.422 1.691-5.326l.032.006zm11.388 2.731c-2.387.208-2.009-.247-3.947-.156-1.658.078-2.712 1.229-3.655 2.198a4.83 4.83 0 0 0 4.279.299 8.09 8.09 0 0 0 3.323-2.335v-.007zm-6.477-7.167c-.182 2.601.39 2.081.54 3.967.124 1.619-.845 3.798-1.743 5.15-1.411-1.626-1.021-3.902-.858-4.611.312-1.385 1.372-3.798 2.068-4.513l-.006.007zm9.76 4.138c-2.055 0-1.684-.338-3.343-.416-1.424-.065-2.452.715-3.375 1.359a4.63 4.63 0 0 0 1.748.644c.62.094 1.254.061 1.861-.098a7.71 7.71 0 0 0 3.102-1.489h.006zm-4.681-6.986c-.455 2.257.136 1.918.072 3.616-.059 1.457-1.203 3.173-2.192 4.181-.379-.635-.604-1.35-.657-2.087a4.74 4.74 0 0 1 .351-2.16c.442-1.158 1.704-3.063 2.426-3.544v-.006zm7.595 4.994c-1.626-.325-1.301-.579-2.601-.897-1.119-.273-1.983.351-2.751.858a3.29 3.29 0 0 0 1.282.875 3.3 3.3 0 0 0 1.54.191 4.99 4.99 0 0 0 2.536-1.027h-.007zm-1.815-6.646c-.897 1.847-.345 1.619-.8 3.03-.39 1.216-1.717 2.543-2.744 3.284-.507-1.561.442-3.115.761-3.583a10.85 10.85 0 0 1 2.783-2.731zm5.856 3.974c-1.548-.182-1.301-.449-2.536-.65-1.073-.169-1.821.481-2.484 1.021.36.341.797.59 1.273.727s.979.157 1.465.06c.857-.156 1.65-.559 2.283-1.158z"/><path d="M42.347 0c-1.086 1.619-.533 1.554-1.112 2.861-.514 1.125-1.951 2.094-3.063 2.549a4.03 4.03 0 0 1 .155-1.866c.197-.601.534-1.147.983-1.594A8.47 8.47 0 0 1 42.347 0zm3.818 1.952c-1.17.585-.806.754-1.587 1.301a3.99 3.99 0 0 1-2.66.429A2.56 2.56 0 0 1 43.7 2.05c.804-.218 1.646-.251 2.465-.098z"/><path d="M52.871 82.66c-2.068-1.854-14.307-7.278-14.489-7.33-16.849-5.944-26.103-27.51-20.719-45.252 3.765-12.422 10.528-20.324 20.563-24.59l.169-.605C28.354 8.975 20.043 18.086 16.714 30.248c-5.424 19.777 4.331 40.322 21.863 46.22 0 0 6.698 2.933 8.708 4.305 1.145.78 4.142 2.601 5.203 3.479.585.423 1.281-.787.384-1.593zm32.561-17.955c-.455 3.941.241 3.356 0 6.555-.221 2.751-1.99 4.409-3.473 5.918a8.9 8.9 0 0 1-.824-3.54c-.028-1.224.197-2.441.661-3.574.761-2.1 2.549-4.598 3.661-5.358h-.026z"/><path d="M95.615 78.654c-4.155-.65-3.141-1.489-6.061-2.452-2.504-.832-6.139.208-8.558 1.346 2.088 3.173 5.671 3.212 6.841 3.186 2.276-.059 6.432-1.073 7.804-2.075l-.026-.007zm-4.636-18.171c.41 3.857.858 3.096 1.301 6.198.364 2.66-.754 4.748-1.658 6.601-1.314-1.96-1.863-4.335-1.541-6.673.202-2.205 1.171-5.086 1.951-6.126h-.052z"/><path d="M103.301 71.54c-3.901.28-3.108-.65-5.918-.936-2.419-.228-5.684 1.301-7.713 2.783 2.413 2.38 5.814 1.827 6.874 1.567 2.068-.514 5.69-2.257 6.756-3.421v.007zm-7.615-16.428c1.053 3.544 1.379 2.751 2.322 5.586.813 2.432.052 4.611-.546 6.503-1.634-1.57-2.589-3.718-2.66-5.983-.169-2.114.312-5.001.884-6.126v.02z"/><path d="M109.264 62.649c-3.59 1.158-3.056.072-5.755.475-2.315.345-5.04 2.601-6.62 4.494 2.77 1.704 5.852.319 6.763-.175 1.834-.962 4.858-3.447 5.612-4.793zM98.49 47.918c1.821 3.252 1.951 2.406 3.512 5.001 1.301 2.231 1.06 4.552.897 6.64a8.66 8.66 0 0 1-3.934-5.313c-.65-2.061-.793-5.066-.468-6.327h-.007z"/><path d="M113.535 52.366c-3.349 1.951-3.037.78-5.645 1.795-2.243.878-4.506 3.772-5.709 6.015 3.102 1.066 5.852-1.021 6.711-1.73 1.632-1.379 4.155-4.552 4.643-6.08zm-13.61-11.843c2.243 2.777 2.23 1.951 4.11 4.103 1.612 1.873 1.743 4.149 1.951 6.126a8.15 8.15 0 0 1-2.709-1.707 8.14 8.14 0 0 1-1.843-2.618 14.57 14.57 0 0 1-1.483-5.905h-.026z"/><path d="M114.492 41.701c-2.731 2.647-2.692 1.437-4.935 3.004-1.951 1.346-3.434 4.598-4.084 6.991 3.154.28 5.313-2.328 5.95-3.186 1.242-1.684 2.933-5.261 3.063-6.809h.006zm-14.339-7.928c2.465 2.1 2.296 1.346 4.338 2.972 1.749 1.398 2.289 3.401 2.816 5.124a7.49 7.49 0 0 1-4.767-3.089 13.64 13.64 0 0 1-2.38-5.001l-.007-.007z"/><path d="M113.351 31.96c-1.997 2.913-2.146 1.821-3.902 3.661-1.489 1.587-2.315 4.806-2.523 7.088 2.816-.364 4.318-3.128 4.747-4.025.839-1.756 1.775-5.306 1.658-6.718l.02-.007zm-14.563-4.274c2.536 1.385 2.289.722 4.37 1.769 1.788.897 2.536 2.601 3.252 4.11a6.18 6.18 0 0 1-2.587-.376 6.17 6.17 0 0 1-2.2-1.412 11.23 11.23 0 0 1-2.822-4.097l-.013.006z"/><path d="M110.421 22.893c-1.353 3.115-1.769 2.139-3.109 4.214-1.151 1.782-1.242 4.923-.91 7.062 2.803-.949 3.687-3.824 3.902-4.741.442-1.795.566-5.261.11-6.503l.007-.032zm-13.862-.931c2.439 1.073 2.166.488 4.162 1.301 1.716.65 2.516 2.218 3.251 3.525a5.68 5.68 0 0 1-4.552-1.262 10.15 10.15 0 0 1-2.861-3.564zm9.366-6.249c-.651 3.115-1.203 2.315-2.023 4.481-.709 1.86-.221 4.747.462 6.627 2.341-1.444 2.601-4.24 2.647-5.131.071-1.73-.443-4.916-1.086-5.983v.006zm-12.431 1.098c2.406.735 2.101.195 4.064.715 1.691.449 2.569 1.834 3.375 3.004a5.2 5.2 0 0 1-4.435-.65 9.11 9.11 0 0 1-3.011-3.069h.006zm7.5-6.718c-.104 2.907-.65 2.237-1.027 4.299-.319 1.769.468 4.337 1.301 5.976 1.697-1.567 1.541-4.149 1.45-4.955-.176-1.58-1.028-4.422-1.691-5.326l-.033.006zm-11.383 2.731c2.387.208 2.01-.247 3.947-.156 1.658.078 2.712 1.229 3.655 2.198a4.83 4.83 0 0 1-4.279.299 8.09 8.09 0 0 1-3.323-2.335v-.007zm6.479-7.167c.182 2.601-.39 2.081-.54 3.967-.124 1.619.845 3.798 1.743 5.15 1.411-1.626 1.021-3.902.858-4.611-.312-1.385-1.372-3.798-2.068-4.513l.007.007zm-9.761 4.138c2.055 0 1.684-.338 3.343-.416 1.424-.065 2.452.715 3.375 1.359a4.63 4.63 0 0 1-1.748.644 4.62 4.62 0 0 1-1.861-.098c-1.133-.256-2.193-.765-3.102-1.489h-.007zm4.68-6.986c.455 2.257-.137 1.918-.072 3.616.058 1.457 1.203 3.173 2.191 4.181.379-.635.604-1.35.657-2.087a4.73 4.73 0 0 0-.352-2.16c-.442-1.151-1.697-3.063-2.426-3.544v-.006zm-7.573 4.994c1.626-.325 1.301-.579 2.601-.897 1.125-.273 1.983.351 2.751.858a3.3 3.3 0 0 1-2.822 1.066 4.99 4.99 0 0 1-2.53-1.027zm1.799-6.646c.897 1.847.345 1.619.8 3.03.39 1.216 1.717 2.543 2.744 3.284.507-1.561-.442-3.115-.761-3.583a10.84 10.84 0 0 0-2.777-2.731h-.007zm-5.879 3.974c1.548-.182 1.301-.449 2.536-.65 1.073-.169 1.821.481 2.484 1.021-.36.341-.797.59-1.273.727s-.979.157-1.465.06c-.855-.159-1.646-.564-2.276-1.164l-.007.006z"/><path d="M80.144 0c1.086 1.619.514 1.554 1.112 2.861.514 1.125 1.951 2.094 3.063 2.549a4.03 4.03 0 0 0-.155-1.866c-.197-.601-.534-1.147-.983-1.594C82.32 1.09 81.285.424 80.144 0zm-3.818 1.952c1.171.585.806.754 1.587 1.301a3.99 3.99 0 0 0 2.66.429 2.56 2.56 0 0 0-1.781-1.658c-.806-.209-1.648-.233-2.465-.072z"/><path d="M69.62 82.66c2.068-1.854 14.307-7.278 14.489-7.33 16.849-5.944 26.103-27.51 20.718-45.252-3.765-12.422-10.528-20.324-20.562-24.59l-.182-.605c10.041 4.091 18.352 13.202 21.682 25.364 5.423 19.777-4.331 40.322-21.864 46.221 0 0-6.698 2.933-8.708 4.305-1.145.78-4.142 2.602-5.202 3.48-.553.436-1.249-.774-.351-1.58l-.02-.013z"/></g><path d="M54.282 52.917c.064 0 .112-.032.152-.088a1.38 1.38 0 0 0 .112-.224l.593-1.458h.072l.593 1.402c.064.16.12.256.152.304s.08.064.144.064v.064h-.865v-.064c.088 0 .144-.008.168-.024.024-.008.04-.04.04-.088 0-.024 0-.056-.024-.096-.008-.024-.024-.056-.032-.088l-.064-.16h-.601l-.072.208a.51.51 0 0 0-.032.152c0 .04.024.064.08.08a.52.52 0 0 0 .136.016v.064h-.545v-.064h-.008zm1.002-.561l-.257-.617h-.024l-.24.617h.521zm1.314-.601v.064s-.056.008-.072.016-.032.032-.032.064v.032c0 .008 0 .024.016.048l.208.521h.008l.168-.441s0-.032-.024-.08l-.032-.096c-.016-.024-.024-.04-.04-.048-.016 0-.04-.008-.08-.016v-.064h.625v.064s-.072 0-.088.016c-.024 0-.032.024-.032.048v.048c0 .016.008.04.016.072l.16.481h-.016l.2-.513v-.024-.024c0-.04-.008-.064-.032-.072a.85.85 0 0 0-.096-.024v-.064h.361v.064s-.056.016-.072.032-.04.048-.056.104l-.417 1.066h-.064l-.272-.825h-.008l-.321.825h-.064l-.393-.994-.072-.16c-.016-.024-.04-.04-.08-.048v-.064h.593l.008-.008z" class="B"/><path d="M58.128 52.452c.112-.072.296-.144.545-.216v-.192c0-.08-.016-.136-.048-.176s-.096-.056-.176-.056c-.048 0-.088.008-.12.024s-.048.04-.048.064v.024s.008.016.016.024l.016.016a.48.48 0 0 0 .032.048c0 .016.008.04.008.056 0 .048-.016.088-.048.12-.032.024-.072.04-.12.04s-.096-.016-.128-.048-.056-.072-.056-.128c0-.104.048-.184.144-.24s.216-.088.353-.088c.152 0 .28.032.377.088.104.056.152.168.152.328v.649s0 .032.016.048c.008.016.024.024.032.024h.032c.008 0 .024-.016.04-.032l.04.056c-.048.064-.112.104-.176.128-.04.016-.08.024-.128.024-.08 0-.136-.024-.176-.072-.024-.024-.032-.064-.048-.112-.072.072-.16.128-.248.16-.056.016-.112.032-.168.032-.072 0-.144-.024-.208-.072s-.096-.12-.096-.216c0-.12.056-.216.176-.288l.016-.016zm.465.344s.048-.04.072-.072v-.393c-.072.016-.136.048-.184.08-.088.064-.136.144-.136.24 0 .056.016.104.04.136s.056.048.088.048c.04 0 .08-.016.12-.04z" class="B"/><path d="M59.266 52.917c.048 0 .088-.016.104-.04.016-.016.032-.056.032-.104v-.08-.721c0-.056-.008-.096-.032-.112-.016-.024-.056-.032-.112-.04v-.064h.505v.208c.056-.072.112-.136.168-.176s.12-.064.192-.064c.056 0 .104.016.144.056.04.032.064.088.064.152 0 .048-.016.096-.048.128s-.072.048-.12.048c-.056 0-.104-.024-.144-.08s-.072-.08-.088-.08c-.032 0-.072.024-.104.064-.04.04-.056.104-.056.184v.505c0 .088.016.144.04.168s.08.04.152.04v.064h-.713v-.064l.016.008zm1.354-1.01c.104-.12.224-.184.361-.184.072 0 .136.016.184.056.032.024.08.056.128.112v-.489c0-.064-.016-.112-.04-.128s-.08-.024-.16-.032v-.064h.577v1.539c0 .056.008.096.032.112.024.024.064.032.12.04v.064l-.289.032c-.04 0-.12.024-.232.056v-.176c-.048.056-.096.088-.136.112-.064.04-.136.056-.216.056-.128 0-.24-.056-.337-.168s-.144-.256-.144-.449c0-.208.048-.377.152-.497v.008zm.609.889c.048-.048.072-.088.072-.104v-.649s-.016-.056-.056-.096-.088-.064-.152-.064c-.096 0-.16.064-.192.2-.016.072-.024.168-.024.297a1.55 1.55 0 0 0 .024.313c.032.128.096.192.184.192.056 0 .112-.024.152-.08l-.008-.008z" class="B"/><path d="M61.95 52.58h.072c.024.128.072.216.144.272s.144.08.216.08.12-.016.152-.048.048-.072.048-.12-.016-.088-.048-.12a.25.25 0 0 0-.096-.056l-.2-.096c-.104-.048-.176-.104-.224-.168a.32.32 0 0 1-.072-.216c0-.104.032-.192.112-.264.072-.072.176-.112.304-.112.056 0 .12.008.176.032l.12.032c.024 0 .04 0 .048-.016.008-.008.016-.024.024-.04h.056v.385h-.064c-.024-.088-.064-.16-.12-.216s-.12-.08-.2-.08c-.056 0-.104.016-.128.048-.032.032-.04.072-.04.104s.016.064.04.096a.37.37 0 0 0 .144.096l.144.072c.088.04.152.088.2.128.072.072.104.152.104.256a.42.42 0 0 1-.104.28c-.072.088-.176.128-.321.128-.032 0-.072 0-.104-.008-.032 0-.08-.024-.136-.04l-.048-.016s-.024-.008-.032-.008c-.032 0-.04 0-.056.016-.008.008-.024.032-.04.056h-.064v-.441l-.008-.016zm1.683.337l.553-.641c.128-.184.2-.344.2-.481 0-.08-.024-.16-.072-.232s-.128-.112-.232-.112c-.096 0-.176.032-.24.096a.56.56 0 0 0-.096.144h-.072a.85.85 0 0 1 .248-.409.54.54 0 0 1 .353-.136.51.51 0 0 1 .337.128c.105.088.152.208.152.377a.55.55 0 0 1-.072.265c-.048.088-.128.192-.24.296l-.409.385v.024h.377c.128 0 .216-.008.256-.032s.08-.08.12-.176h.064l-.12.561h-1.106v-.064.008z" class="B"/><path d="M65.196 51.354c.112-.136.24-.208.385-.208.168 0 .313.088.425.256.12.176.176.393.176.665 0 .313-.064.561-.2.729-.112.144-.248.216-.401.216-.112 0-.2-.032-.281-.096a.78.78 0 0 1-.2-.248.86.86 0 0 1-.096-.297l-.024-.28c0-.321.072-.569.216-.737zm.256 1.474c.032.072.08.112.136.112.08 0 .128-.072.152-.208.016-.08.024-.192.024-.345v-.609c0-.216-.016-.361-.048-.441-.032-.072-.072-.112-.136-.112s-.104.04-.136.112c-.032.08-.048.224-.048.441v.609c0 .216.016.361.048.441h.008z" class="B"/><path d="M66.302 52.917l.553-.641c.128-.184.2-.344.2-.481 0-.08-.024-.16-.072-.232s-.128-.112-.232-.112c-.096 0-.176.032-.24.096a.56.56 0 0 0-.096.144h-.072c.056-.184.144-.321.248-.409a.54.54 0 0 1 .353-.136c.12 0 .232.04.337.128s.152.208.152.377c0 .088-.024.176-.072.265s-.128.192-.24.296l-.409.385v.024h.377c.128 0 .216-.008.257-.032s.08-.08.12-.176h.064l-.12.561h-1.106v-.064.008z" class="B"/><path d="M67.656 52.26l.072-.104.281-.393.36-.473.112-.136h.208v1.154h.168v.297h-.168v.377h-.385v-.377h-.665V52.3s.016-.032.024-.04h-.008zm.641.048v-.737h-.016l-.521.713v.024h.537zm-11.478-24.09l.825.874c.665.673 1.474 1.034 2.404 1.122l1.747.096c.337 0 .673-.064 1.01-.096a1.84 1.84 0 0 1 .297 0 .37.37 0 0 1 .329.361c0 .184-.088.353-.281.401-.32.08-.641.168-.962.2-1.282.128-2.524-.048-3.718-.529-.513-.208-.962-.497-1.314-.929a1.69 1.69 0 0 1-.393-1.25c0-.072.04-.136.072-.248h-.016zm5.065-3.454c1.675.176 3.365 1.306 3.999 3.325.593 1.891-.08 4.006-1.619 5.177-1.45 1.098-3.59 1.242-4.784.553 1.563.465 2.965.232 4.239-.673.898-.633 1.491-1.507 1.747-2.58.561-2.356-.609-5.08-3.582-5.809v.008zm-4.367 1.971c.353 1.25 1.33 1.595 2.364 1.843.809.192 1.627.216 2.452.104l.921-.152c.176-.024.345 0 .393.224a.34.34 0 0 1-.256.433c-.305.088-.617.184-.93.208-.585.048-1.17.08-1.747.048-.865-.048-1.723-.216-2.484-.657-.417-.248-.745-.569-.841-1.082-.064-.321.032-.593.136-.962l-.008-.008zm-.2 5.201c1.154.873 2.468 1.154 3.878 1.082.288-.016.569-.08.857-.12l.248-.032c.168-.016.313.048.321.208 0 .128-.048.337-.136.385a2.64 2.64 0 0 1-.833.256c-1.042.136-2.051.008-2.973-.505-.553-.304-1.034-.705-1.354-1.282l-.008.008z" class="B"/><path d="M56.716 30.309l1.17.769c.745.409 1.563.585 2.396.665l.777.096c.224.024.361.144.353.353 0 .2-.176.321-.369.313l-1.186-.104c-.825-.16-1.635-.369-2.324-.889-.425-.32-.737-.713-.825-1.202h.008zm1.939-4.656c-.2.609-.08.906.497 1.234.529.296 1.106.409 1.699.465.096.008.184.016.281.04.192.04.321.16.297.353s-.184.305-.369.272c-.489-.072-.994-.12-1.466-.272a4.17 4.17 0 0 1-1.178-.625c-.609-.465-.481-1.162.24-1.466zm1.106-.625c-.409.497-.353.753.24 1.002.601.256 1.234.288 1.867.224.2-.016.441-.056.489.168.064.256-.192.313-.377.329-.873.088-1.731.064-2.516-.393-.569-.337-.577-.769-.032-1.146.104-.072.216-.12.321-.184h.008z" class="B"/><use href="#B" class="B"/><path d="M55.395 36.809c.072 0 .112-.024.136-.048.016-.024.032-.08.032-.168v-.746l-.024-.024s-.048-.048-.064-.056c-.016 0-.04-.008-.08-.016v-.032h.289l.658.81v-.561c0-.096-.016-.152-.04-.184-.016-.016-.056-.032-.12-.032v-.032h.401v.032c-.064 0-.104.024-.128.048s-.032.08-.032.168v.89h-.032l-.754-.93v.658c0 .096.016.152.04.184.016.016.056.032.12.04v.032h-.401v-.032zm1.234-1.09h.962v.289h-.032a.37.37 0 0 0-.072-.176c-.032-.024-.096-.04-.193-.04h-.096v.866c0 .064.008.104.032.12a.33.33 0 0 0 .136.032v.032h-.497v-.032c.072 0 .12-.016.136-.032s.024-.064.024-.136v-.85h-.096c-.096 0-.16.016-.192.04s-.056.088-.08.176h-.04v-.289h.008zm1.025 1.09c.064 0 .104-.016.12-.032s.024-.056.024-.12v-.754c0-.064-.008-.096-.024-.12-.016-.016-.056-.032-.12-.032v-.032h.898v.241h-.04c-.016-.072-.032-.12-.064-.144s-.096-.032-.192-.032h-.233s-.04 0-.048.016c0 0-.008.024-.008.048v.377h.265c.072 0 .12-.008.136-.032s.032-.064.048-.128h.04v.393h-.04c-.016-.064-.032-.112-.048-.128-.016-.024-.064-.032-.136-.032h-.265v.417s.008.056.032.056l.192.008c.112 0 .2-.016.257-.04s.104-.088.144-.184h.048l-.08.289h-.914v-.032h.008zm1.034.001c.064 0 .104-.016.12-.04.016-.016.024-.064.024-.136v-.738c0-.056-.008-.096-.024-.12-.016-.016-.056-.032-.12-.032v-.032h.473c.096 0 .176.016.241.04.12.048.184.136.184.257 0 .088-.024.152-.08.193a.44.44 0 0 1-.225.088l.353.433s.04.048.064.056l.08.024v.032h-.273l-.425-.521h-.072v.337c0 .064.008.104.032.12.016.016.064.024.128.032v.032h-.473v-.032l-.008.008zm.577-.585a.21.21 0 0 0 .136-.209c0-.104-.04-.168-.12-.201-.04-.016-.096-.032-.168-.032-.048 0-.08 0-.088.008-.008 0-.016.024-.016.048v.417a.7.7 0 0 0 .265-.04l-.008.008zm.552.584c.072 0 .112-.024.136-.048.016-.024.032-.08.032-.168v-.746l-.024-.024s-.048-.048-.064-.056c-.016 0-.04-.008-.08-.016v-.032h.289l.657.81v-.561c0-.096-.016-.152-.04-.184-.016-.016-.056-.032-.12-.032v-.032h.401v.032c-.064 0-.104.024-.128.048s-.032.08-.032.168v.89h-.032l-.754-.93v.658c0 .096.016.152.04.184.016.016.056.032.12.04v.032h-.401v-.032zm1.234.032v-.032c.04 0 .08-.024.096-.048.024-.032.056-.104.112-.233l.353-.834h.032l.425.962c.032.064.048.104.064.12s.048.024.088.032v.032h-.433v-.032a.23.23 0 0 0 .096-.016c.016 0 .024-.024.024-.048 0-.008 0-.024-.008-.04 0-.024-.016-.04-.024-.064l-.064-.16h-.449l-.08.2c-.008.024-.016.04-.016.056 0 .032.008.048.032.056.016 0 .04.008.08.016v.032h-.337.008zm.73-.433l-.192-.465-.192.465h.393-.008zm.312-.689h.962v.289h-.032c-.016-.088-.048-.152-.072-.176-.032-.024-.096-.04-.192-.04h-.096v.866c0 .064.008.104.032.12a.33.33 0 0 0 .136.032v.032h-.497v-.032c.072 0 .12-.016.136-.032s.024-.064.024-.136v-.85h-.096c-.096 0-.16.016-.193.04s-.056.088-.08.176h-.04v-.289h.008z" class="B"/><use href="#B" x="8.292" class="B"/><path d="M63.879 35.847c.104-.096.233-.152.385-.152a.52.52 0 0 1 .385.152c.112.112.168.257.168.433a.58.58 0 0 1-.176.441.54.54 0 0 1-.377.144.53.53 0 0 1-.393-.16c-.104-.112-.16-.249-.16-.425 0-.184.056-.329.168-.433zm.128.834c.072.088.16.128.257.128s.184-.04.257-.128c.072-.08.104-.217.104-.401s-.032-.321-.104-.401-.16-.12-.257-.12-.184.04-.257.128-.104.217-.104.393.032.313.104.393v.008z" class="B"/><path d="M64.905 36.809c.072 0 .112-.024.136-.048.016-.024.032-.08.032-.168v-.746l-.024-.024s-.048-.048-.064-.056c-.016 0-.04-.008-.08-.016v-.032h.289l.657.81v-.561c0-.096-.016-.152-.04-.184-.016-.016-.056-.032-.12-.032v-.032h.401v.032c-.064 0-.104.024-.128.048s-.032.08-.032.168v.89H65.9l-.754-.93v.658c0 .096.016.152.04.184.016.016.056.032.12.04v.032h-.401v-.032zm1.226.032v-.032c.04 0 .08-.024.096-.048.024-.032.056-.104.112-.233l.353-.834h.032l.425.962c.032.064.048.104.064.12s.048.024.088.032v.032h-.433v-.032a.23.23 0 0 0 .096-.016c.016 0 .024-.024.024-.048 0-.008 0-.024-.008-.04 0-.024-.016-.04-.024-.064l-.064-.16h-.449l-.08.2c-.008.024-.016.04-.016.056 0 .032.008.048.032.056.016 0 .04.008.08.016v.032h-.337.008zm.73-.433l-.192-.465-.193.465h.393-.008zm.497.401c.064 0 .104-.016.12-.032s.024-.056.024-.12v-.754c0-.064-.008-.096-.024-.12-.016-.016-.056-.032-.12-.032v-.032h.481v.032c-.064 0-.104.016-.128.032s-.032.056-.032.112v.818s0 .032.008.048c0 .008.024.016.04.024h.04.08c.152 0 .257-.016.305-.04.056-.024.104-.088.152-.192h.04l-.08.297h-.914v-.032l.008-.008zm-12.51 1.339c.056 0 .088-.008.104-.024s.024-.048.024-.096v-.586c0-.048 0-.08-.024-.096-.016-.016-.048-.024-.104-.024v-.024h.369a.55.55 0 0 1 .249.048c.064.032.096.088.096.177 0 .064-.024.112-.064.145-.024.016-.064.032-.112.048.064.016.112.04.152.072s.064.08.064.144a.2.2 0 0 1-.145.209c-.048.016-.112.032-.185.032h-.425v-.024zm.49-.474c.056-.024.08-.072.08-.136a.16.16 0 0 0-.096-.16c-.032-.016-.088-.024-.16-.024h-.048s-.008.016-.008.04v.297h.128c.04 0 .08-.008.112-.024l-.008.008zm.04.417c.048-.024.064-.072.064-.152s-.024-.12-.08-.153c-.056-.024-.12-.04-.201-.04h-.04-.024v.329s0 .04.016.04.04.008.088.008a.38.38 0 0 0 .169-.04l.008.008z" class="B"/><path d="M56.092 37.305v.024c-.048 0-.08.008-.096.024s-.024.048-.024.096v.417c0 .072.008.12.032.16.032.072.104.104.201.104.104 0 .177-.032.217-.104.024-.04.032-.104.032-.185v-.345c0-.072-.008-.112-.024-.136-.016-.016-.048-.032-.096-.032v-.024h.305v.024c-.048 0-.08.016-.096.04-.016.016-.024.064-.024.128v.345c0 .088-.016.16-.04.209-.048.096-.153.136-.289.136s-.241-.048-.289-.136a.43.43 0 0 1-.04-.193v-.409c0-.048 0-.08-.024-.088-.016-.016-.048-.024-.096-.024v-.024h.369l-.016-.008z" class="B"/><path d="M56.732 37.907c.024.056.048.104.08.144.048.064.12.088.193.088.04 0 .08-.016.112-.04s.048-.064.048-.112c0-.04-.016-.08-.048-.112-.016-.024-.064-.048-.128-.088l-.112-.072s-.064-.04-.08-.064c-.04-.04-.056-.088-.056-.136 0-.064.024-.12.064-.169.04-.04.104-.064.177-.064.032 0 .064 0 .104.024.04.016.064.024.072.024.016 0 .024 0 .032-.008l.016-.032h.024l.032.281h-.032c-.024-.08-.056-.145-.104-.177s-.096-.048-.136-.048c-.032 0-.064.008-.096.032-.024.024-.04.048-.04.088 0 .032.008.064.032.088s.048.048.096.072l.112.072c.072.048.12.088.153.12.032.04.04.08.04.136 0 .072-.024.128-.08.169a.28.28 0 0 1-.201.072c-.04 0-.08 0-.129-.024l-.072-.024c-.016 0-.024 0-.032.016 0 .008-.008.016-.008.032h-.032l-.04-.281h.032l.008-.008z" class="B"/><use href="#C" class="B"/><use href="#D" class="B"/><path d="M58.775 38.148c.048 0 .08-.016.096-.024.016-.016.024-.04.024-.096v-.586c0-.048 0-.08-.024-.088-.016-.016-.048-.024-.096-.024v-.024h.698v.185h-.032c-.008-.056-.024-.096-.048-.112s-.072-.024-.153-.024h-.177s-.032 0-.032.008v.032.289h.201c.056 0 .088-.008.104-.024s.024-.048.04-.104h.032v.305h-.032c-.008-.048-.024-.088-.04-.104s-.048-.024-.104-.024h-.201v.321s.008.04.024.048h.145c.088 0 .152-.008.201-.032.04-.016.08-.064.112-.145h.04l-.056.225h-.706v-.024l-.016.024z" class="B"/><path d="M59.641 37.907c.024.056.048.104.08.144.048.064.12.088.193.088.04 0 .08-.016.112-.04s.048-.064.048-.112c0-.04-.016-.08-.048-.112-.016-.024-.064-.048-.128-.088l-.112-.072s-.064-.04-.08-.064c-.04-.04-.056-.088-.056-.136 0-.064.024-.12.064-.169s.104-.064.177-.064c.032 0 .064 0 .104.024.04.016.064.024.072.024.016 0 .024 0 .032-.008l.016-.032h.024l.032.281h-.032c-.024-.08-.056-.145-.104-.177s-.096-.048-.136-.048c-.032 0-.064.008-.096.032-.024.024-.04.048-.04.088 0 .032.008.064.032.088s.056.048.096.072l.112.072a.99.99 0 0 1 .153.12c.032.04.04.08.04.136 0 .072-.024.128-.08.169s-.12.072-.201.072c-.04 0-.08 0-.128-.024l-.072-.024c-.016 0-.024 0-.032.016 0 .008-.008.016-.008.032h-.032l-.04-.281h.032l.008-.008z" class="B"/><path d="M60.37 37.907c.024.056.048.104.08.144.048.064.12.088.193.088.04 0 .08-.016.112-.04s.048-.064.048-.112c0-.04-.016-.08-.048-.112-.016-.024-.064-.048-.128-.088l-.112-.072s-.064-.04-.08-.064c-.04-.04-.056-.088-.056-.136 0-.064.024-.12.064-.169.04-.04.104-.064.176-.064a.18.18 0 0 1 .104.024c.04.016.064.024.072.024.016 0 .024 0 .032-.008l.016-.032h.024l.032.281h-.032c-.024-.08-.056-.145-.104-.177s-.096-.048-.136-.048c-.032 0-.064.008-.096.032-.024.024-.04.048-.04.088 0 .032.008.064.032.088a.5.5 0 0 0 .096.072l.112.072a.99.99 0 0 1 .152.12c.032.04.04.08.04.136 0 .072-.024.128-.08.169a.28.28 0 0 1-.201.072c-.04 0-.08 0-.128-.024l-.072-.024c-.016 0-.024 0-.032.016 0 .008-.008.016-.008.032h-.032l-.04-.281h.032l.008-.008zm.986.24c.056 0 .088-.016.104-.04.016-.016.024-.064.024-.128v-.529c0-.048 0-.08-.024-.096-.016-.016-.048-.024-.104-.024v-.024h.257l.305.65.297-.65h.257v.024c-.048 0-.08.016-.096.024-.016.016-.024.048-.024.088v.585c0 .048 0 .08.024.088.016.016.048.024.096.024v.024h-.369v-.024c.056 0 .088-.016.096-.032.016-.016.016-.048.016-.104v-.585l-.337.746h-.016l-.329-.714v.521c0 .072.008.12.032.136.016.016.048.024.088.032v.024h-.305v-.024l.008.008zm1.169.025v-.024s.056-.016.072-.04.048-.08.088-.177l.273-.642h.024l.329.747c.024.048.04.08.056.088a.27.27 0 0 0 .064.024v.024h-.337v-.024s.064 0 .072-.016c.008 0 .016-.016.016-.032v-.032c0-.016-.008-.032-.016-.048l-.056-.128h-.345l-.064.161c0 .016-.008.032-.008.048 0 .024.008.04.024.048.008 0 .032.008.064.008v.024h-.257v-.008zm.562-.337l-.152-.361-.153.361h.305z" class="B"/><path d="M64.089 37.305a.5.5 0 0 0 .088.024c.016 0 .032 0 .04-.008 0 0 .016-.016.024-.032h.032v.273h-.016a.58.58 0 0 0-.08-.144c-.048-.056-.12-.08-.201-.08s-.16.032-.225.096-.096.169-.096.313c0 .12.032.217.096.281a.33.33 0 0 0 .233.104h.056c.024 0 .04 0 .064-.016.032-.008.048-.016.056-.024 0 0 .008-.016.008-.032v-.209c0-.048 0-.08-.024-.096-.016-.016-.048-.024-.096-.024v-.024h.337v.024s-.056 0-.064.016c-.016.016-.024.04-.024.088v.257s-.04.032-.112.064c-.072.024-.144.04-.217.04a.49.49 0 0 1-.321-.112.41.41 0 0 1-.145-.329c0-.12.04-.225.112-.313.088-.096.201-.145.337-.145.048 0 .104 0 .153.024l-.016-.016z" class="B"/><path d="M64.416 38.172v-.024s.056-.016.072-.04.048-.08.088-.177l.273-.642h.024l.329.747c.024.048.04.08.056.088s.032.016.064.024v.024h-.337v-.024s.064 0 .072-.016c.008 0 .016-.016.016-.032v-.032c0-.016-.008-.032-.016-.048l-.056-.128h-.345l-.064.161c0 .016-.008.032-.008.048 0 .024.008.04.024.048.008 0 .032.008.064.008v.024h-.257v-.008zm.562-.337l-.153-.361-.153.361h.305z" class="B"/><path d="M65.354 38.156l.578-.803h-.305c-.072 0-.128.016-.16.056-.016.024-.032.064-.048.12h-.032l.024-.225h.69v.016l-.578.803h.337c.08 0 .137-.016.169-.056.024-.024.04-.064.056-.128h.032l-.032.233h-.739v-.016h.008z" class="B"/><use href="#C" x="8.775" class="B"/><use href="#D" x="8.766" class="B"/><path d="M67.542 38.148c.048 0 .08-.016.096-.024.016-.016.024-.04.024-.096v-.586c0-.048 0-.08-.024-.088s-.048-.024-.096-.024v-.024h.698v.185h-.032c-.008-.056-.024-.096-.048-.112s-.072-.024-.153-.024h-.177s-.032 0-.032.008v.032.289H68c.056 0 .088-.008.104-.024s.024-.048.04-.104h.032v.305h-.032c-.008-.048-.024-.088-.04-.104s-.048-.024-.104-.024h-.201v.321s.008.04.024.048h.144c.088 0 .153-.008.201-.032.04-.016.08-.064.112-.145h.04l-.056.225h-.706v-.024l-.016.024zm-6.08 5.738l.016.209a3.78 3.78 0 0 1-.521.016c-.032 0-.064 0-.088-.008-.032-.008-.056-.024-.08-.048a.19.19 0 0 1-.048-.072c-.008-.032-.016-.056-.016-.088v-.61s0-.064.016-.088c.008-.032.032-.056.056-.072.024-.024.048-.04.08-.048s.064-.016.088-.008l.521.016-.016.209h-.393-.024c-.008 0-.016 0-.024.016s-.008.016-.016.024v.024.128h.401v.193h-.401v.16.024c0 .008 0 .016.016.024 0 0 .016.008.024.016h.024.393l-.008-.016z" class="B"/><path d="M62.087 44.103l-.161-.305-.169.305h-.273l.225-.385-.209-.369h.281l.153.281.144-.281h.273l-.209.369.225.385h-.273-.008z" class="B"/><path d="M63.05 43.38l-.024.169h-.225c-.112 0-.153.04-.153.177s.04.177.153.177c.08 0 .16 0 .241-.016l.024.177a.7.7 0 0 1-.313.056c-.289 0-.393-.104-.393-.401s.104-.401.393-.401a.92.92 0 0 1 .297.048m.352.472c0 .048.024.064.08.064h.056l.032.184a.58.58 0 0 1-.2.032c-.144 0-.241-.08-.241-.209v-.874h.273v.802zm.963-.49v.755h-.217l-.024-.104a.44.44 0 0 1-.305.129c-.145 0-.217-.072-.217-.209v-.57h.281v.482c0 .048.016.064.064.064a.3.3 0 0 0 .145-.04v-.506h.281-.008z" class="B"/><path d="M65.149 43.356l-.016.169h-.297c-.112 0-.128 0-.128.032s.024.032.096.048l.185.048c.129.032.193.088.193.217 0 .193-.104.241-.361.241-.12 0-.249-.008-.369-.032l.016-.169h.265c.144 0 .177 0 .177-.04s-.024-.032-.104-.056l-.177-.048a.21.21 0 0 1-.193-.241c0-.145.088-.217.337-.217a1.91 1.91 0 0 1 .369.032" class="B"/><path d="M65.532 43.091v.08.032c0 .008-.008.016-.016.024 0 0-.016.016-.024.016h-.032-.12-.032c-.008 0-.016-.008-.024-.016 0 0-.016-.016-.016-.024v-.032-.08-.032c0-.008.008-.024.016-.032 0 0 .016-.016.024-.016h.032.12c.056 0 .08.024.08.08h-.008zm0 1.01h-.273v-.754h.273v.754z" class="B"/><path d="M66.215 44.039s-.016.032-.032.048c-.016.008-.032.016-.056.016h-.241s-.04 0-.056-.016c-.016-.008-.024-.032-.032-.048l-.233-.69h.289l.112.441.024.136h.016l.024-.136.112-.441h.289l-.233.69h.016z" class="B"/><path d="M67.184 43.886l.024.169a.89.89 0 0 1-.353.064c-.305 0-.417-.12-.417-.393 0-.297.112-.401.409-.401.273 0 .377.088.377.265 0 .136-.072.201-.265.201h-.225c.008.088.048.112.153.112.096 0 .201 0 .297-.016zm-.45-.233h.153c.064 0 .072-.016.072-.064 0-.064-.024-.072-.104-.072-.096 0-.12.016-.12.145m-4.769.68l.04.946h-.256l-.032-.833h-.024l-.128.585s-.016.048-.04.064-.048.024-.072.024h-.16s-.056 0-.072-.024c-.024-.016-.032-.04-.04-.064l-.128-.585h-.024l-.024.833h-.264l.04-.946v-.04c0-.016.016-.024.024-.032s.024-.016.032-.024h.04.256s.056 0 .072.024c.024.016.032.04.04.064l.096.465.024.152h.016l.024-.152.096-.465s.016-.048.04-.064a.13.13 0 0 1 .072-.024h.256.04c.016 0 .024.016.032.024s.016.024.024.032v.04z" class="B"/><path d="M62.842 44.807v.482h-.217l-.024-.112c-.032.04-.072.072-.12.096s-.096.032-.152.032c-.145 0-.257-.072-.257-.217v-.072c0-.12.088-.193.241-.193h.249v-.024c0-.064-.024-.088-.104-.088l-.321.008-.024-.177c.136-.024.273-.032.417-.04.201 0 .313.072.313.297m-.425.313c.056 0 .104-.024.144-.056v-.088h-.16c-.048 0-.064.024-.064.064v.024s.024.064.072.064" class="B"/><path d="M63.53 44.51l-.024.257h-.072c-.072 0-.136.016-.209.032v.498h-.273v-.763h.217l.024.112c.08-.08.185-.128.305-.128h.04l-.008-.008z" class="B"/><path d="M63.891 44.951h-.056l.008.112v.225h-.273v-1.067h.273v.425c0 .048 0 .096-.008.144h.056l.16-.257h.305l-.176.257s-.048.064-.08.08l.08.096.2.321h-.305l-.192-.337h.008z" class="B"/><path d="M65.093 45.072l.024.169a.89.89 0 0 1-.353.064c-.305 0-.417-.12-.417-.393 0-.297.112-.401.409-.401.273 0 .377.088.377.265 0 .136-.064.201-.265.201h-.225c.016.088.048.112.153.112.096 0 .201 0 .297-.016zm-.45-.233h.153c.064 0 .072-.016.072-.064 0-.064-.024-.072-.104-.072-.096 0-.12.016-.12.145" class="B"/><path d="M65.565 44.711v.321c0 .048.016.064.072.064h.088l.032.185a.83.83 0 0 1-.241.032c-.144 0-.233-.08-.233-.217v-.385h-.128v-.169h.128v-.209h.281v.201h.193v.177h-.193z" class="B"/><path d="M66.488 44.542l-.016.169h-.297c-.112 0-.128 0-.128.032s.024.032.096.048l.185.048c.128.04.193.096.193.225 0 .193-.104.241-.361.241a1.91 1.91 0 0 1-.369-.032l.016-.169h.265c.144 0 .177 0 .177-.04s-.024-.032-.104-.056l-.177-.048c-.153-.048-.193-.12-.193-.241 0-.144.088-.217.337-.217a1.91 1.91 0 0 1 .369.032m-8.352-1.627l-.689.345-1.635.873.128.072 1.643-.881 2.236 1.21.697-.345-2.372-1.282-.008.008zm-.73 2.14l.777.369.673-.337-.729-.401-.721.369zm.729-1.266l-.689.345-.825.449.12.048.817-.433 1.418.793.705-.353-1.547-.849zm12.476-31.117c-.921-.737-1.546-1.523-2.468-2.26l-2.724.008c-2.508 0-5.08-.016-7.588-.016l-2.724.008-2.332 2.604-5.585 43.09 3.606 13.543 3.093 1.531h.008 2.132 1.499 8.983 1.739 1.13l3.406-1.659 2.981-12.806-5.16-44.044h.008zm1.362 22.102l2.484 21.252-2.284 1.042-4.039-42.265h.016l1.346-1.162 2.476 21.132zm-.962 22.823l-.072.032-18.518.04 1.923-21.108 2.027-21.854 10.682.088 2.18 24.242 1.771 18.56h.008zM54.85 12.511a30.64 30.64 0 0 1 .785-.889h2.196l3.79.008 3.798.008h2.284l.825.777a7.07 7.07 0 0 0 .248.24l-.112.096-.954.825-6.034-.048-6.146-.048-.913-.649-.024-.016.264-.304h-.008zM51.3 33.772l2.588-19.962 1.234.874-3.91 42.866-2.7-2.244 2.797-21.541-.008.008zm1.546 35.533l-1.034-.513-3.149-11.836 2.636 2.084 2.252 10.618-.705-.353zm15.554.649h-1.907-.954-3.574-2.724-2.997-1.386l-.881-4.151-1.434-6.78h18.334l-1.234 5.441-1.242 5.481v.008zm3.317-1.274l-2.003.978 2.524-11.147 2.099-1.058-2.62 11.227zm28.234 42.85l.448-1.711.131.578c-.18 0-.332-.056-.455-.169a.6.6 0 0 1-.178-.455.6.6 0 0 1 .178-.455.62.62 0 0 1 .447-.177c.18 0 .329.059.447.177s.177.27.177.455c0 .056-.005.115-.015.177a.93.93 0 0 1-.046.2 2.67 2.67 0 0 1-.108.286l-.401 1.094h-.625zm1.635 0l.447-1.711.131.578c-.18 0-.332-.056-.455-.169s-.177-.265-.177-.455a.6.6 0 0 1 .177-.455.62.62 0 0 1 .447-.177c.18 0 .329.059.447.177s.177.27.177.455c0 .056-.005.115-.015.177a.93.93 0 0 1-.046.2 2.67 2.67 0 0 1-.108.286l-.401 1.094h-.624zm-6.906 2.159v-.694l2.659-3.477h1.072l-2.621 3.477-.501-.154h4.278v.848H94.68zm2.96 1.225v-1.225l.031-.848v-1.087h.941v3.16h-.971zm-7.326 0v-.671l2.143-2.035c.18-.169.313-.318.401-.447s.144-.246.169-.354a1.2 1.2 0 0 0 .046-.316c0-.247-.085-.437-.254-.571s-.419-.208-.748-.208c-.262 0-.501.046-.717.139a1.44 1.44 0 0 0-.547.424l-.701-.54c.211-.282.493-.501.848-.655.36-.159.761-.239 1.203-.239.391 0 .73.064 1.017.193.293.123.516.3.671.532s.239.506.239.825c0 .174-.023.349-.069.524a1.85 1.85 0 0 1-.262.539 4.11 4.11 0 0 1-.563.64l-1.842 1.75-.208-.378h3.153v.848h-3.978zm-2.859.077a2.13 2.13 0 0 1-1.156-.324c-.339-.215-.606-.529-.802-.94s-.293-.92-.293-1.511.098-1.092.293-1.503.463-.732.802-.948a2.13 2.13 0 0 1 1.156-.324c.432 0 .817.108 1.156.324s.606.532.802.948.301.912.301 1.503-.1 1.095-.301 1.511c-.195.411-.462.725-.802.94s-.725.324-1.156.324zm0-.871c.252 0 .47-.067.655-.2.185-.139.329-.35.432-.632s.162-.64.162-1.072-.054-.794-.162-1.071c-.103-.283-.247-.491-.432-.625a1.09 1.09 0 0 0-.655-.208c-.242 0-.457.07-.648.208-.185.134-.331.342-.439.625-.103.277-.154.634-.154 1.071s.051.789.154 1.072c.108.282.254.493.439.632.19.133.406.2.648.2zm-6.806.794v-.671l2.143-2.035a2.82 2.82 0 0 0 .401-.447 1.11 1.11 0 0 0 .17-.354 1.21 1.21 0 0 0 .046-.316c0-.247-.085-.437-.254-.571s-.419-.208-.748-.208c-.262 0-.501.046-.717.139a1.44 1.44 0 0 0-.547.424l-.702-.54c.211-.282.493-.501.848-.655.36-.159.761-.239 1.203-.239.391 0 .73.064 1.017.193.293.123.516.3.671.532s.239.506.239.825c0 .174-.023.349-.069.524-.046.169-.134.349-.262.539s-.316.404-.563.64l-1.842 1.75-.208-.378h3.153v.848h-3.977zm-2.358-5.719l-.447 1.711-.123-.578a.62.62 0 0 1 .447.169.6.6 0 0 1 .177.455c0 .19-.059.344-.177.463a.61.61 0 0 1-.439.169c-.185 0-.337-.059-.455-.177s-.177-.27-.177-.455l.008-.169a1.4 1.4 0 0 1 .054-.201l.108-.293.409-1.094h.617zm1.634 0l-.447 1.711-.123-.578a.62.62 0 0 1 .447.169.6.6 0 0 1 .177.455c0 .19-.059.344-.177.463a.61.61 0 0 1-.439.169c-.185 0-.337-.059-.455-.177s-.177-.27-.177-.455l.008-.169a1.4 1.4 0 0 1 .054-.201l.108-.293.409-1.094h.617z" class="B"/><use href="#E" class="B"/><path d="M67.147 114.914v-5.396h1.002v5.396h-1.002zm-3.176.077a4.11 4.11 0 0 1-1.21-.177c-.385-.123-.691-.28-.917-.47l.347-.779c.216.17.483.311.802.424a2.91 2.91 0 0 0 .979.17c.283 0 .511-.031.686-.093s.303-.144.385-.246c.082-.108.123-.229.123-.363 0-.164-.059-.295-.177-.393s-.272-.182-.462-.239-.393-.118-.624-.169l-.686-.178c-.226-.072-.434-.162-.624-.27a1.4 1.4 0 0 1-.455-.447c-.118-.185-.177-.421-.177-.709 0-.293.077-.56.231-.801.159-.247.398-.442.717-.586.324-.149.732-.224 1.226-.224a3.85 3.85 0 0 1 .964.123 2.8 2.8 0 0 1 .832.355l-.316.779c-.242-.144-.491-.25-.748-.316a2.74 2.74 0 0 0-.74-.108c-.277 0-.504.033-.678.1s-.295.154-.378.262a.62.62 0 0 0-.116.37c0 .164.056.298.169.401.118.097.27.175.455.231l.632.17.686.177c.231.067.439.154.624.262s.342.254.455.439.177.419.177.702a1.45 1.45 0 0 1-.239.802c-.154.241-.393.436-.717.585s-.732.216-1.226.216z" class="B"/><use href="#E" x="-13.083" class="B"/><path d="M48.757 114.914v-5.396h2.22c.478 0 .886.077 1.226.232s.609.375.794.662.278.63.278 1.026-.093.737-.278 1.025-.45.501-.794.655-.748.224-1.226.224h-1.665l.447-.455v2.027h-1.002zm3.531 0l-1.364-1.958h1.072l1.372 1.958h-1.079zm-2.528-1.919l-.447-.478h1.619c.442 0 .773-.095.994-.285.226-.19.339-.455.339-.794 0-.345-.113-.609-.339-.794-.221-.185-.552-.278-.994-.278h-1.619l.447-.493v3.122zm-5.242-1.234H47.2v.825h-2.682v-.825zm.077 2.313h3.045v.84h-4.047v-5.396h3.939v.841h-2.937v3.715zm-5.724-.432l-.054-1.187 2.829-2.937h1.125l-2.351 2.498-.555.609-.994 1.017zm-.894 1.272v-5.396h1.002v5.396h-1.002zm3.762 0l-2.066-2.459.663-.732 2.575 3.191h-1.172zm-7.723.077c-.421 0-.809-.069-1.164-.208a2.84 2.84 0 0 1-.925-.578 2.68 2.68 0 0 1-.609-.879 2.81 2.81 0 0 1-.216-1.11c0-.401.072-.768.216-1.102a2.58 2.58 0 0 1 .609-.879 2.86 2.86 0 0 1 .925-.586 3.16 3.16 0 0 1 1.156-.208 3.12 3.12 0 0 1 1.156.208c.349.138.663.334.925.586a2.63 2.63 0 0 1 .609.879c.144.334.216.701.216 1.102a2.81 2.81 0 0 1-.216 1.11 2.58 2.58 0 0 1-.609.879 2.85 2.85 0 0 1-.925.578 3.08 3.08 0 0 1-1.149.208zm-.008-.879c.272 0 .524-.046.755-.138s.432-.224.601-.393a1.88 1.88 0 0 0 .393-.602 1.94 1.94 0 0 0 .146-.763c0-.277-.049-.529-.146-.755a1.78 1.78 0 0 0-.393-.601 1.71 1.71 0 0 0-.601-.401c-.231-.092-.483-.139-.755-.139s-.524.046-.755.139c-.226.092-.427.226-.601.401a1.86 1.86 0 0 0-.401.601c-.093.226-.139.478-.139.755a2.02 2.02 0 0 0 .139.756c.098.231.231.434.401.609a1.79 1.79 0 0 0 .601.393c.231.093.483.138.755.138zm-8.158.802v-5.396h2.22c.478 0 .886.077 1.226.232s.609.375.794.662.277.63.277 1.026-.093.737-.277 1.025-.45.501-.794.655c-.339.149-.748.224-1.226.224h-1.665l.447-.455v2.027H25.85zm3.531 0l-1.364-1.958h1.071l1.372 1.958h-1.08zm-2.528-1.919l-.447-.478h1.619c.442 0 .773-.095.994-.285s.339-.455.339-.794c0-.345-.113-.609-.339-.794s-.553-.278-.994-.278h-1.619l.447-.493v3.122zm-6.868 1.919v-5.396h2.528c.648 0 1.141.129 1.48.386a1.2 1.2 0 0 1 .509 1.017c0 .288-.067.535-.2.74s-.313.357-.54.47c-.221.108-.462.162-.725.162l.139-.277c.303 0 .576.056.817.169s.432.268.57.478c.144.211.216.473.216.787 0 .462-.177.822-.532 1.079s-.881.385-1.58.385h-2.683zm1.002-.786h1.619c.375 0 .663-.062.863-.185s.301-.321.301-.594c0-.267-.1-.462-.301-.585-.2-.129-.488-.193-.863-.193H20.91v-.779h1.495c.349 0 .617-.061.802-.185.19-.123.285-.308.285-.555s-.095-.439-.285-.562c-.185-.124-.452-.185-.802-.185h-1.418v3.823zm79.985-8.414v-4.548h-1.788v-.848h4.578v.848h-1.788v4.548h-1.002z" class="B"/><use href="#F" class="B"/><path d="M89.398 102.562h2.683v.824h-2.683v-.824zm.077 2.312h3.045v.84h-4.047v-5.396h3.939v.841h-2.937v3.715zm-6.641.84v-5.396h2.22c.478 0 .886.077 1.226.232s.609.375.794.663.278.629.278 1.025-.093.737-.278 1.025c-.185.283-.45.501-.794.655s-.748.224-1.226.224h-1.665l.447-.455v2.027h-1.002zm3.53 0L85 103.756h1.072l1.372 1.958h-1.079zm-2.528-1.919l-.447-.478h1.619c.442 0 .773-.095.994-.285s.339-.455.339-.794c0-.345-.113-.609-.339-.794s-.552-.278-.994-.278h-1.619l.447-.493v3.122zm-7.538 1.919l2.428-5.396h.987l2.436 5.396H81.1l-2.089-4.864h.401l-2.081 4.864h-1.033zm1.118-1.249l.27-.786H80.6l.27.786h-3.453zm-5.601 1.249v-5.396h2.22c.478 0 .886.077 1.226.232s.609.375.794.663.277.629.277 1.025-.093.737-.277 1.025-.45.509-.794.663-.748.231-1.226.231H72.37l.447-.47v2.027h-1.002zm1.002-1.919l-.447-.486h1.619c.442 0 .773-.092.994-.277s.339-.455.339-.794c0-.345-.113-.609-.339-.794s-.552-.278-.994-.278H72.37l.447-.493v3.122zm-4.179 1.996a4.11 4.11 0 0 1-1.21-.177c-.385-.123-.691-.28-.917-.47l.347-.779c.216.17.483.311.802.424a2.91 2.91 0 0 0 .979.17c.283 0 .511-.031.686-.093s.303-.144.385-.246c.082-.108.123-.229.123-.363 0-.164-.059-.295-.177-.393s-.272-.182-.463-.239a6.41 6.41 0 0 0-.624-.169l-.686-.178a3.33 3.33 0 0 1-.624-.269 1.41 1.41 0 0 1-.455-.448c-.118-.185-.177-.421-.177-.709 0-.293.077-.56.231-.801.159-.247.398-.442.717-.586s.732-.224 1.226-.224a3.81 3.81 0 0 1 .964.124 2.8 2.8 0 0 1 .832.354l-.316.779c-.242-.144-.491-.25-.748-.316a2.74 2.74 0 0 0-.74-.108c-.278 0-.504.033-.678.1s-.295.154-.378.262a.62.62 0 0 0-.116.37c0 .164.056.298.169.401.118.097.27.175.455.231l.632.17.686.177c.231.067.439.154.624.262a1.24 1.24 0 0 1 .455.439c.118.185.177.419.177.702a1.45 1.45 0 0 1-.239.802c-.154.241-.393.436-.717.585s-.732.216-1.226.216z" class="B"/><use href="#F" x="-32.911" class="B"/><use href="#E" x="-14.656" y="-9.2" class="B"/><path d="M49.314 105.714v-5.396h2.22c.478 0 .887.077 1.226.232.344.154.609.375.794.663s.277.629.277 1.025-.092.737-.277 1.025c-.185.283-.45.501-.794.655-.339.149-.748.224-1.226.224h-1.665l.447-.455v2.027h-1.002zm3.53 0l-1.364-1.958h1.072l1.372 1.958h-1.079zm-2.528-1.919l-.447-.478h1.619c.442 0 .773-.095.994-.285.226-.19.339-.455.339-.794 0-.345-.113-.609-.339-.794-.221-.185-.552-.278-.994-.278h-1.619l.447-.493v3.122z" class="B"/><use href="#G" class="B"/><use href="#G" x="-6.767" class="B"/><path d="M34.809 105.791a4.11 4.11 0 0 1-1.21-.177c-.385-.123-.691-.28-.917-.47l.347-.779c.216.17.483.311.802.424a2.91 2.91 0 0 0 .979.17c.283 0 .511-.031.686-.093s.303-.144.385-.246c.082-.108.123-.229.123-.363 0-.164-.059-.295-.177-.393s-.272-.182-.463-.239a6.41 6.41 0 0 0-.624-.169l-.686-.178a3.33 3.33 0 0 1-.624-.269 1.41 1.41 0 0 1-.455-.448c-.118-.185-.177-.421-.177-.709 0-.293.077-.56.231-.801.159-.247.398-.442.717-.586.324-.149.732-.224 1.226-.224a3.81 3.81 0 0 1 .964.124 2.8 2.8 0 0 1 .832.354l-.316.779c-.242-.144-.491-.25-.748-.316a2.74 2.74 0 0 0-.74-.108c-.277 0-.504.033-.678.1s-.295.154-.378.262a.62.62 0 0 0-.116.37c0 .164.056.298.169.401.118.097.27.175.455.231l.632.17.686.177c.231.067.439.154.624.262a1.24 1.24 0 0 1 .455.439c.118.185.177.419.177.702a1.45 1.45 0 0 1-.239.802c-.154.241-.393.436-.717.585s-.732.216-1.226.216zm-5.633 0c-.421 0-.809-.069-1.164-.208a2.84 2.84 0 0 1-.925-.578 2.63 2.63 0 0 1-.609-.879 2.81 2.81 0 0 1-.216-1.11c0-.401.072-.768.216-1.102a2.63 2.63 0 0 1 .609-.879 2.86 2.86 0 0 1 .925-.586 3.16 3.16 0 0 1 1.156-.208 3.12 3.12 0 0 1 1.156.208 2.78 2.78 0 0 1 .925.586 2.63 2.63 0 0 1 .609.879 2.77 2.77 0 0 1 .216 1.102 2.81 2.81 0 0 1-.216 1.11 2.58 2.58 0 0 1-.609.879 2.84 2.84 0 0 1-.925.578 3.08 3.08 0 0 1-1.149.208zm-.008-.879c.272 0 .524-.046.755-.138s.432-.224.601-.393c.169-.175.301-.376.393-.602a1.94 1.94 0 0 0 .146-.763c0-.277-.049-.529-.146-.755a1.78 1.78 0 0 0-.393-.601 1.71 1.71 0 0 0-.601-.401c-.231-.092-.483-.139-.755-.139s-.524.046-.755.139a1.8 1.8 0 0 0-.601.401 1.86 1.86 0 0 0-.401.601c-.093.226-.139.478-.139.755a2.02 2.02 0 0 0 .139.756c.098.231.231.434.401.609a1.79 1.79 0 0 0 .601.393c.231.093.483.138.755.138zm-9.883.802v-5.396h.825l2.359 3.939h-.432l2.32-3.939h.825l.008 5.396h-.948l-.008-3.908h.201l-1.973 3.292h-.447l-2.004-3.292h.231v3.908h-.956z" class="B"/><defs ><path id="B" d="M54.833 36.809c.072 0 .112-.016.136-.032s.032-.056.032-.12v-.754c0-.064-.008-.104-.032-.12s-.064-.032-.136-.032v-.032h.505v.032c-.072 0-.112.016-.136.032s-.032.056-.032.12v.754c0 .064.008.104.032.12s.064.024.136.032v.032h-.505v-.032z"/><path id="C" d="M57.397 38.148c.056 0 .088-.008.104-.024s.024-.04.024-.096v-.586c0-.048 0-.08-.024-.096-.016-.016-.048-.024-.104-.024v-.024h.385v.024c-.056 0-.088.008-.104.024s-.024.048-.024.096v.586c0 .048 0 .08.024.096.016.016.048.016.104.024v.024h-.385v-.024z"/><path id="D" d="M57.83 38.148c.056 0 .088-.016.104-.04.016-.016.024-.064.024-.129v-.578l-.016-.024s-.032-.04-.048-.04-.032-.008-.064-.008v-.024h.225l.506.626v-.434c0-.072-.008-.12-.032-.136-.016-.016-.048-.024-.096-.024v-.024h.305v.024c-.048 0-.08.016-.096.04-.016.016-.024.064-.024.128v.69h-.024l-.578-.722v.514c0 .072.008.12.032.136.016.016.048.024.088.032v.024h-.305v-.024-.008z"/><path id="E" d="M68.845 114.914l2.428-5.396h.987l2.436 5.396h-1.048l-2.089-4.864h.401l-2.081 4.864h-1.033zm1.118-1.249l.27-.786h2.914l.27.786h-3.453z"/><path id="F" d="M93.637 105.714v-5.396h.825l3.384 4.155h-.409v-4.155h.994v5.396h-.825l-3.384-4.155h.409v4.155h-.994z"/><path id="G" d="M45.771 105.714v-4.548h-1.788v-.848h4.579v.848h-1.788v4.548h-1.002z"/></defs></svg>