<svg width="50" height="50" viewBox="0 0 50 50" fill="none" xmlns="http://www.w3.org/2000/svg">
<path d="M32.1014 40.1779C36.7626 40.1779 40.5412 36.3993 40.5412 31.7381C40.5412 27.077 36.7626 23.2983 32.1014 23.2983C27.4402 23.2983 23.6616 27.077 23.6616 31.7381C23.6616 36.3993 27.4402 40.1779 32.1014 40.1779Z" fill="#A9DAF0"/>
<path d="M36.1998 36.7619C35.2262 37.4685 34.0251 37.8846 32.7296 37.8846C29.4636 37.8846 26.8179 35.2388 26.8179 31.9728C26.8179 28.7068 29.4636 26.061 32.7296 26.061C33.3734 26.061 33.9936 26.1631 34.5746 26.3594" stroke="#001D3A" stroke-width="1.5" stroke-miterlimit="10" stroke-linecap="round"/>
<path d="M25.1377 30.521H31.5048" stroke="#001D3A" stroke-width="1.5" stroke-miterlimit="10" stroke-linecap="round"/>
<path d="M25.1377 33.4341H31.5048" stroke="#001D3A" stroke-width="1.5" stroke-miterlimit="10" stroke-linecap="round"/>
<path d="M16.9867 26.1427C21.6478 26.1427 25.4264 22.3641 25.4264 17.703C25.4264 13.0418 21.6478 9.26318 16.9867 9.26318C12.3255 9.26318 8.54688 13.0418 8.54688 17.703C8.54688 22.3641 12.3255 26.1427 16.9867 26.1427Z" fill="#A9DAF0"/>
<path d="M13.5481 20.3006C13.5402 21.7452 14.7022 22.9229 16.1468 22.9307L18.2351 22.9464C19.6797 22.9543 20.8573 21.7923 20.8652 20.3477V20.442C20.8809 18.9974 19.7111 17.8197 18.2665 17.8119L15.7071 17.7962C14.2625 17.7883 13.1006 16.6107 13.1084 15.1661V15.2603C13.1241 13.8158 14.3018 12.6538 15.7464 12.6617L17.8347 12.6774C19.2793 12.6852 20.4412 13.8629 20.4334 15.3074" stroke="#001D3A" stroke-width="1.5" stroke-miterlimit="10" stroke-linecap="round"/>
<path d="M17.042 10.9507L16.9399 24.4543" stroke="#001D3A" stroke-width="1.5" stroke-miterlimit="10" stroke-linecap="round"/>
<path d="M41.6023 24.1481C39.3873 21.5999 36.4006 20.201 33.3362 19.9345C31.4764 19.7735 29.9831 18.2802 29.8221 16.4204C29.5556 13.356 28.1567 10.3693 25.603 8.14874C20.9342 4.07952 13.7728 4.16834 9.19286 8.32639C3.91897 13.1118 3.77463 21.2724 8.74874 26.2465C10.8472 28.345 13.5064 29.5274 16.2432 29.7995C18.1918 29.9938 19.7573 31.5593 19.9516 33.5078C20.2236 36.2447 21.4061 38.9039 23.5045 41.0023C28.4787 45.9764 36.6393 45.8321 41.4247 40.5582C45.5883 35.9727 45.666 28.8113 41.6079 24.1425L41.6023 24.1481Z" stroke="#001D3A" stroke-width="1.5" stroke-miterlimit="10"/>
</svg>
