<svg width="50" height="50" viewBox="0 0 50 50" fill="none" xmlns="http://www.w3.org/2000/svg">
<path d="M20.5158 41.5744C24.1915 41.5744 27.1713 38.5947 27.1713 34.9189C27.1713 31.2432 24.1915 28.2635 20.5158 28.2635C16.8401 28.2635 13.8604 31.2432 13.8604 34.9189C13.8604 38.5947 16.8401 41.5744 20.5158 41.5744Z" fill="#A9DAF0"/>
<path d="M18.9534 36.4035C18.9492 36.5616 18.9767 36.719 19.0343 36.8664C19.092 37.0137 19.1785 37.148 19.2889 37.2614C19.3993 37.3747 19.5313 37.4648 19.6771 37.5262C19.8228 37.5877 19.9795 37.6194 20.1377 37.6193H21.0851C21.4006 37.6193 21.7035 37.4951 21.9281 37.2734C22.1527 37.0518 22.281 36.7506 22.2851 36.4351V36.1193C22.2861 35.9627 22.2563 35.8075 22.1974 35.6624C22.1384 35.5174 22.0515 35.3854 21.9415 35.274C21.8316 35.1625 21.7007 35.0739 21.5565 35.013C21.4122 34.9521 21.2574 34.9203 21.1009 34.9192H19.9403C19.779 34.9206 19.6191 34.8888 19.4706 34.8258C19.3221 34.7627 19.1882 34.6698 19.0771 34.5528C18.9661 34.4359 18.8802 34.2973 18.825 34.1457C18.7698 33.9941 18.7463 33.8328 18.7561 33.6718V33.356C18.7601 33.1991 18.7953 33.0446 18.8596 32.9014C18.924 32.7582 19.0161 32.6293 19.1307 32.522C19.2453 32.4147 19.3801 32.3313 19.5272 32.2766C19.6743 32.2219 19.8308 32.197 19.9877 32.2034H20.9351C21.2506 32.2075 21.5518 32.3358 21.7734 32.5604C21.9951 32.785 22.1193 33.0878 22.1193 33.4034" stroke="#001D3A" stroke-width="1.2" stroke-miterlimit="10" stroke-linecap="round"/>
<path d="M20.5395 31.0743L20.5 38.6534" stroke="#001D3A" stroke-width="1.2" stroke-miterlimit="10" stroke-linecap="round"/>
<path d="M43.3643 34.1452L43.1985 34.5558C42.7923 33.3516 42.1331 32.2484 41.2653 31.3202C40.3974 30.3919 39.3409 29.6602 38.1667 29.1741C36.9926 28.688 35.7281 28.4588 34.458 28.5019C33.188 28.545 31.9419 28.8594 30.8034 29.424C30.5308 27.9289 29.8805 26.5284 28.9142 25.3554C27.9479 24.1824 26.6977 23.276 25.2824 22.7223C23.8672 22.1685 22.3338 21.9858 20.8281 22.1915C19.3223 22.3972 17.8942 22.9845 16.6793 23.8975C16.2085 22.7143 15.4892 21.6459 14.5699 20.7646C13.6507 19.8833 12.553 19.2096 11.351 18.7889C10.149 18.3683 8.87075 18.2106 7.60257 18.3265C6.33439 18.4423 5.10586 18.8291 4 19.4606L4.19737 18.9316C5.14365 16.2889 6.60975 13.8625 8.50914 11.7956C10.4085 9.7288 12.7027 8.0634 15.2563 6.89774C17.8099 5.73208 20.5711 5.08978 23.377 5.00876C26.1828 4.92773 28.9765 5.40962 31.5931 6.42598C34.2097 7.44234 36.5962 8.97257 38.6117 10.9264C40.6271 12.8802 42.2308 15.2179 43.328 17.8016C44.4252 20.3854 44.9937 23.1627 45 25.9698C45.0062 28.7768 44.45 31.5566 43.3643 34.1452Z" stroke="#001D3A" stroke-width="1.5" stroke-linecap="round" stroke-linejoin="round"/>
<path d="M30.8038 29.4241C37.5619 16.8632 31.3801 6.94714 31.3801 6.94714C31.3801 6.94714 22.0404 7.30242 16.6797 23.8976" stroke="#001D3A" stroke-width="1.5" stroke-linecap="round" stroke-linejoin="round"/>
<path d="M17.8796 41.7169L17.5322 42.6169C17.3706 43.0348 17.1282 43.4168 16.8189 43.741C16.5096 44.0652 16.1394 44.3253 15.7296 44.5063C15.3197 44.6874 14.8782 44.786 14.4303 44.7964C13.9823 44.8068 13.5367 44.7288 13.1189 44.5669C12.2763 44.239 11.5984 43.5899 11.2342 42.7623C10.87 41.9348 10.8494 40.9965 11.1767 40.1536L11.4136 39.5378" stroke="#001D3A" stroke-width="1.5" stroke-miterlimit="10" stroke-linecap="round"/>
<path d="M25.2611 22.7134L23.1689 28.1056" stroke="#001D3A" stroke-width="1.5" stroke-miterlimit="10" stroke-linecap="round"/>
<path d="M31.3799 6.94747L32.1141 5.05267" stroke="#001D3A" stroke-width="1.5" stroke-miterlimit="10" stroke-linecap="round"/>
</svg>
