<svg width="50" height="50" viewBox="0 0 50 50" fill="none" xmlns="http://www.w3.org/2000/svg">
<path d="M7.5 37.6588V17.2085C7.5 15.7492 8.68523 14.564 10.1445 14.564H37.117C38.5762 14.564 39.7615 15.7492 39.7615 17.2085V37.6588" stroke="#001D3A" stroke-width="1.5" stroke-miterlimit="10"/>
<path d="M40.8991 37.6587H6.27404C6.08906 37.6587 6 37.8437 6 37.9327V39.9332C6 40.1182 6.18498 40.2073 6.27404 40.2073H40.9882C41.1731 40.2073 41.2622 40.0223 41.2622 39.9332V37.9327C41.2622 37.8437 41.0772 37.6587 40.8991 37.6587Z" stroke="#001D3A" stroke-width="1.5" stroke-miterlimit="10"/>
<path d="M19.9072 38.1172H27.3611" stroke="#001D3A" stroke-width="1.5" stroke-miterlimit="10"/>
<path d="M23.6342 33.4374C29.866 33.4374 34.9178 28.3855 34.9178 22.1537C34.9178 15.922 29.866 10.8701 23.6342 10.8701C17.4024 10.8701 12.3506 15.922 12.3506 22.1537C12.3506 28.3855 17.4024 33.4374 23.6342 33.4374Z" fill="#A9DAF0"/>
<path d="M46.3797 29.6017L45.8042 38.1929C45.8042 38.3642 45.6878 38.5354 45.5782 38.6519L40.2481 42.831C39.9603 43.0571 39.563 43.0571 39.33 42.831L33.9451 38.6519C33.8287 38.5354 33.719 38.3642 33.719 38.1929L33.1436 29.6017C33.1436 29.314 33.3148 29.0262 33.6026 28.9714L38.5901 27.9986C39.3369 27.8273 40.1384 27.8273 40.8852 27.9986L45.9276 28.9714C46.2153 29.0262 46.3866 29.314 46.3866 29.6017H46.3797Z" fill="#A9DAF0"/>
<path d="M23.6346 29.348H27.5808V27.834H31.5269L27.6904 20.7843C27.6904 20.7843 27.6904 16.3379 27.6904 12.5973C27.6904 8.85663 23.6346 7 23.6346 7C23.6346 7 19.5788 8.84293 19.5788 12.5836V20.7706L15.7422 27.8203H19.6884V29.3343H23.6346V29.348Z" stroke="#001D3A" stroke-width="1.5" stroke-miterlimit="10"/>
<path d="M23.6348 25.915V21.0576" stroke="#001D3A" stroke-width="1.5" stroke-miterlimit="10"/>
<path d="M23.6348 11.2611V10.6719" stroke="#071C38" stroke-width="1.5" stroke-miterlimit="10"/>
<path d="M23.6348 13.0638V12.4678" stroke="#071C38" stroke-width="1.5" stroke-miterlimit="10"/>
<path d="M23.6348 14.8587V14.2695" stroke="#071C38" stroke-width="1.5" stroke-miterlimit="10"/>
<path d="M40.0292 31.3481H39.5016C38.8433 31.3481 38.3096 31.8819 38.3096 32.5402V38.2129C38.3096 38.8712 38.8433 39.4049 39.5016 39.4049H40.0292C40.6875 39.4049 41.2213 38.8712 41.2213 38.2129V32.5402C41.2213 31.8819 40.6875 31.3481 40.0292 31.3481Z" stroke="#071C38" stroke-width="1.5" stroke-miterlimit="10"/>
<path d="M39.7617 31.3345V30.0054" stroke="#071C38" stroke-width="1.5" stroke-miterlimit="10"/>
<path d="M39.7617 40.8642V39.542" stroke="#071C38" stroke-width="1.5" stroke-miterlimit="10"/>
</svg>
