<svg width="50" height="50" viewBox="0 0 50 50" fill="none" xmlns="http://www.w3.org/2000/svg">
<path d="M35.4359 6C33.3928 5.99978 31.3971 6.61473 29.7085 7.76476C28.0199 8.91478 26.7167 10.5466 25.9686 12.4477C23.6325 10.6058 20.7558 9.58266 17.7812 9.53589C14.8067 9.48912 11.8992 10.4213 9.50633 12.1889C7.11346 13.9565 5.36787 16.4615 4.53826 19.3184C3.70864 22.1754 3.84098 25.2257 4.91491 28.0001C5.98884 30.7744 7.94483 33.1189 10.4818 34.6726C13.0187 36.2263 15.996 36.9031 18.9554 36.5989C21.9147 36.2947 24.692 35.0263 26.8598 32.9889C29.0276 30.9516 30.4657 28.2582 30.9528 25.3234C32.3284 25.9962 33.8382 26.35 35.3695 26.3583C36.9009 26.3667 38.4144 26.0294 39.7973 25.3716C41.1803 24.7138 42.3969 23.7525 43.3568 22.5592C44.3166 21.3659 44.9948 19.9715 45.3409 18.4797C45.687 16.988 45.692 15.4373 45.3557 13.9434C45.0193 12.4494 44.3502 11.0505 43.3981 9.85104C42.4461 8.65155 41.2357 7.68232 39.8571 7.01554C38.4785 6.34877 36.9672 6.00163 35.4359 6Z" stroke="#001D3A" stroke-width="1.5" stroke-miterlimit="10"/>
<path d="M17.5368 32.9125C22.8929 32.9125 27.2348 28.5706 27.2348 23.2146C27.2348 17.8585 22.8929 13.5166 17.5368 13.5166C12.1808 13.5166 7.83887 17.8585 7.83887 23.2146C7.83887 28.5706 12.1808 32.9125 17.5368 32.9125Z" fill="#A9DAF0"/>
<path d="M35.3894 19.1655C37.0752 19.1655 38.4418 17.7988 38.4418 16.113C38.4418 14.4272 37.0752 13.0605 35.3894 13.0605C33.7035 13.0605 32.3369 14.4272 32.3369 16.113C32.3369 17.7988 33.7035 19.1655 35.3894 19.1655Z" fill="#A9DAF0"/>
<path d="M14.6883 25.937C14.6866 26.2253 14.7417 26.5111 14.8504 26.7781C14.9591 27.0451 15.1194 27.2881 15.322 27.4932C15.5246 27.6983 15.7657 27.8615 16.0314 27.9734C16.2971 28.0853 16.5822 28.1438 16.8705 28.1455H18.6242C18.9125 28.1473 19.1983 28.0922 19.4654 27.9835C19.7324 27.8748 19.9754 27.7145 20.1805 27.5119C20.3855 27.3092 20.5487 27.0682 20.6606 26.8025C20.7726 26.5368 20.8311 26.2516 20.8328 25.9633V25.3832C20.8345 25.0949 20.7795 24.8091 20.6707 24.542C20.562 24.275 20.4017 24.032 20.1991 23.8269C19.9965 23.6218 19.7554 23.4587 19.4897 23.3468C19.224 23.2348 18.9389 23.1763 18.6506 23.1746H16.4947C16.2064 23.1729 15.9213 23.1144 15.6556 23.0025C15.3899 22.8905 15.1489 22.7274 14.9462 22.5223C14.7436 22.3172 14.5833 22.0742 14.4746 21.8072C14.3659 21.5402 14.3108 21.2543 14.3125 20.966V20.3727C14.3143 20.0844 14.3728 19.7992 14.4847 19.5335C14.5966 19.2678 14.7598 19.0268 14.9649 18.8241C15.17 18.6215 15.4129 18.4613 15.68 18.3525C15.947 18.2438 16.2328 18.1887 16.5211 18.1905H18.2748C18.5631 18.1922 18.8482 18.2507 19.1139 18.3626C19.3796 18.4745 19.6207 18.6377 19.8233 18.8428C20.026 19.0479 20.1862 19.2909 20.2949 19.5579C20.4037 19.8249 20.4587 20.1107 20.457 20.399" stroke="#001D3A" stroke-width="1.5" stroke-miterlimit="10" stroke-linecap="round"/>
<path d="M17.6218 16.1143L17.5361 30.0909" stroke="#001D3A" stroke-width="1.5" stroke-miterlimit="10" stroke-linecap="round"/>
<path d="M38.6793 20.1097C38.0447 20.5668 37.3112 20.8675 36.5384 20.9873C35.7655 21.1071 34.9754 21.0426 34.2322 20.7991C33.489 20.5557 32.8139 20.14 32.2618 19.5862C31.7097 19.0323 31.2963 18.3558 31.0552 17.6119C30.8142 16.8679 30.7523 16.0775 30.8746 15.3051C30.9969 14.5327 31.2999 13.8001 31.7591 13.167C32.2182 12.534 32.8204 12.0183 33.5166 11.6621C34.2127 11.3059 34.9833 11.1192 35.7653 11.1172C36.2934 11.1173 36.8183 11.1996 37.3212 11.3611" stroke="#001D3A" stroke-width="1.5" stroke-miterlimit="10" stroke-linecap="round"/>
<path d="M29.3965 15.5596H34.7432" stroke="#001D3A" stroke-width="1.5" stroke-miterlimit="10" stroke-linecap="round"/>
<path d="M29.3965 18.0059H34.7432" stroke="#001D3A" stroke-width="1.5" stroke-miterlimit="10" stroke-linecap="round"/>
<path d="M8.66895 37.0716L21.8413 41.6008L33.3852 30.0898L43.6106 33.373" stroke="#001D3A" stroke-width="1.5" stroke-miterlimit="10" stroke-linecap="round"/>
<path d="M33.3857 30.0898V37.2891" stroke="#001D3A" stroke-width="1.5" stroke-miterlimit="10" stroke-linecap="round"/>
<path d="M21.8418 41.5996V43.9994" stroke="#001D3A" stroke-width="1.5" stroke-miterlimit="10" stroke-linecap="round"/>
</svg>
