<svg xmlns="http://www.w3.org/2000/svg" width="122" height="116" fill="none" xmlns:v="https://vecta.io/nano"><g fill="#969697"><path d="M97.904 111.62l.447-1.709.131.577c-.18 0-.331-.056-.454-.169a.6.6 0 0 1-.177-.455c0-.19.059-.341.177-.454a.62.62 0 0 1 .447-.177c.18 0 .329.059.447.177s.177.27.177.454c0 .057-.005.116-.015.177a.88.88 0 0 1-.046.201 2.57 2.57 0 0 1-.108.285l-.4 1.093h-.624zm1.632 0l.447-1.709.13.577c-.179 0-.331-.056-.454-.169a.6.6 0 0 1-.177-.455c0-.19.059-.341.177-.454a.62.62 0 0 1 .447-.177c.179 0 .328.059.446.177s.177.27.177.454c0 .057-.005.116-.015.177a.94.94 0 0 1-.046.201c-.021.071-.057.166-.108.285l-.4 1.093h-.624zm-6.898 2.156v-.693l2.657-3.473h1.07l-2.618 3.473-.501-.154h4.273v.847h-4.882zM95.595 115v-1.224l.031-.847v-1.086h.939V115h-.97zm-7.319 0v-.67l2.141-2.032c.18-.17.313-.319.4-.447s.144-.246.169-.354c.031-.113.046-.218.046-.316 0-.246-.085-.436-.254-.57s-.418-.208-.747-.208c-.262 0-.5.047-.716.139a1.44 1.44 0 0 0-.547.423l-.701-.539a2.05 2.05 0 0 1 .847-.654c.359-.159.76-.239 1.201-.239.39 0 .729.064 1.016.193.293.123.516.3.67.531.159.231.239.506.239.824 0 .174-.023.349-.069.524-.046.169-.133.349-.262.539s-.316.402-.562.639l-1.84 1.748-.208-.378h3.149V115h-3.973zm-2.856.077c-.426 0-.811-.108-1.155-.323s-.606-.529-.801-.94-.293-.918-.293-1.509.098-1.091.293-1.501c.195-.416.462-.732.801-.947s.729-.324 1.155-.324.816.108 1.155.324.606.531.801.947c.2.41.3.911.3 1.501s-.1 1.094-.3 1.509c-.195.411-.462.724-.801.94a2.11 2.11 0 0 1-1.155.323zm0-.87a1.09 1.09 0 0 0 .654-.2c.185-.139.329-.349.431-.631.108-.283.162-.64.162-1.071 0-.436-.054-.793-.162-1.07-.103-.282-.246-.49-.431-.624a1.09 1.09 0 0 0-.654-.208c-.241 0-.457.07-.647.208-.185.134-.331.342-.439.624s-.154.634-.154 1.07.051.788.154 1.071c.108.282.254.492.439.631a1.1 1.1 0 0 0 .647.2zm-6.799.793v-.67l2.141-2.032a2.91 2.91 0 0 0 .4-.447c.087-.128.144-.246.169-.354.031-.113.046-.218.046-.316 0-.246-.085-.436-.254-.57s-.418-.208-.747-.208c-.262 0-.501.047-.716.139a1.44 1.44 0 0 0-.547.423l-.701-.539a2.05 2.05 0 0 1 .847-.654c.359-.159.76-.239 1.201-.239.39 0 .729.064 1.016.193.293.123.516.3.67.531.159.231.239.506.239.824 0 .174-.023.349-.069.524-.046.169-.133.349-.262.539s-.316.402-.562.639l-1.84 1.748-.208-.378h3.149V115H78.62zm-2.354-5.713l-.447 1.709-.123-.577a.62.62 0 0 1 .447.169.6.6 0 0 1 .177.454c0 .19-.059.344-.177.462a.61.61 0 0 1-.439.17c-.185 0-.336-.059-.454-.177s-.177-.27-.177-.455l.008-.169c.01-.056.028-.123.054-.2l.108-.293.408-1.093h.616zm1.632 0l-.447 1.709-.123-.577a.62.62 0 0 1 .447.169.6.6 0 0 1 .177.454c0 .19-.059.344-.177.462a.61.61 0 0 1-.439.17c-.185 0-.336-.059-.454-.177s-.177-.27-.177-.455l.008-.169c.01-.056.028-.123.054-.2l.108-.293.408-1.093h.616z"/><use href="#B"/><path d="M63.171 115.077c-.421 0-.809-.069-1.163-.208a2.84 2.84 0 0 1-.924-.577c-.262-.252-.465-.544-.608-.878a2.81 2.81 0 0 1-.216-1.109c0-.4.072-.767.216-1.101s.346-.631.608-.878.57-.446.924-.585.739-.208 1.155-.208c.421 0 .806.07 1.155.208.354.139.662.334.924.585a2.57 2.57 0 0 1 .608.878c.144.334.216.701.216 1.101s-.072.77-.216 1.109a2.57 2.57 0 0 1-.608.878 2.84 2.84 0 0 1-.924.577c-.349.139-.732.208-1.147.208zm-.008-.878a2.02 2.02 0 0 0 .755-.138c.231-.093.431-.223.601-.393s.3-.375.393-.6c.098-.231.146-.486.146-.763s-.049-.529-.146-.754c-.092-.231-.223-.432-.393-.601a1.7 1.7 0 0 0-.601-.4 2 2 0 0 0-.755-.139c-.272 0-.524.046-.755.139a1.8 1.8 0 0 0-.601.4c-.169.169-.303.37-.4.601a1.97 1.97 0 0 0-.139.754c0 .272.046.524.139.755a1.95 1.95 0 0 0 .4.608c.169.17.37.3.601.393a2.02 2.02 0 0 0 .755.138z"/><use href="#C"/><use href="#D"/><path d="M49.894 115.077c-.739 0-1.319-.208-1.74-.623-.416-.416-.624-1.017-.624-1.802v-3.042h1.001v3.003c0 .555.118.958.354 1.209s.58.378 1.016.378.773-.126 1.009-.378.354-.654.354-1.209v-3.003h.986v3.042c0 .785-.21 1.386-.631 1.802-.416.415-.991.623-1.725.623z"/><use href="#D" x="-10.513"/><use href="#C" x="-17.604"/><use href="#D" x="-17.604"/><path d="M32.855 115.077c-.421 0-.824-.059-1.209-.177-.385-.123-.69-.28-.916-.47l.346-.777c.216.169.482.31.801.423s.644.17.978.17a2.09 2.09 0 0 0 .685-.093c.175-.061.303-.144.385-.246.082-.108.123-.229.123-.362 0-.164-.059-.295-.177-.393a1.23 1.23 0 0 0-.462-.238 6.11 6.11 0 0 0-.624-.17l-.685-.177a3.32 3.32 0 0 1-.624-.269 1.4 1.4 0 0 1-.454-.447c-.118-.185-.177-.421-.177-.708 0-.293.077-.56.231-.801.159-.247.398-.442.716-.585.323-.149.732-.224 1.224-.224.323 0 .644.041.963.123s.595.201.832.355l-.316.777a2.86 2.86 0 0 0-.747-.315c-.257-.072-.503-.108-.739-.108a1.92 1.92 0 0 0-.678.1c-.169.067-.295.154-.377.262a.62.62 0 0 0-.116.369c0 .165.056.298.169.401.118.097.27.174.454.231l.631.169.685.177c.231.067.439.154.624.262a1.24 1.24 0 0 1 .454.439c.118.185.177.418.177.701s-.08.554-.239.8c-.154.242-.393.437-.716.586-.323.143-.732.215-1.224.215z"/><use href="#B" x="-42.177"/><use href="#C" x="-35.696"/><path d="M108.602 106v-5.39h1.001v4.543h2.818V106h-3.819zm-6.531 0l2.426-5.39h.985l2.434 5.39h-1.048l-2.086-4.858h.4L103.103 106h-1.032zm1.117-1.247l.269-.785h2.911l.269.785h-3.449zM100.375 106v-5.39h1.001V106h-1.001zm-3.1.077c-.411 0-.793-.067-1.147-.2a2.88 2.88 0 0 1-.916-.577 2.71 2.71 0 0 1-.601-.886 2.81 2.81 0 0 1-.216-1.109c0-.4.072-.77.216-1.109a2.57 2.57 0 0 1 .608-.877 2.7 2.7 0 0 1 .916-.578 3.09 3.09 0 0 1 1.147-.208c.442 0 .844.077 1.209.231s.672.372.924.67l-.647.608c-.195-.21-.413-.367-.654-.469a1.9 1.9 0 0 0-.785-.162c-.282 0-.542.046-.778.139a1.85 1.85 0 0 0-.608.392 1.87 1.87 0 0 0-.4.601c-.092.231-.139.485-.139.762a2.04 2.04 0 0 0 .139.763 1.86 1.86 0 0 0 .4.6 1.85 1.85 0 0 0 .608.393c.236.092.495.138.778.138a1.98 1.98 0 0 0 .785-.154c.241-.107.459-.269.654-.485l.647.616a2.46 2.46 0 0 1-.924.67c-.365.154-.77.231-1.217.231z"/><use href="#E"/><path d="M82.017 106l2.425-5.39h.986l2.433 5.39h-1.047l-2.087-4.858h.4L83.048 106h-1.032zm1.117-1.247l.27-.785h2.911l.27.785h-3.45z"/><use href="#E" x="-12.002"/><path d="M74.087 106v-5.39h1.001V106h-1.001zm-3.987-2.91h2.687v.847H70.1v-.847zm.085 2.91h-1.001v-5.39h3.935v.84h-2.934V106zm-9.491 0v-5.39h2.356c.585 0 1.099.113 1.54.339s.785.539 1.032.94.37.872.37 1.416-.123 1.012-.37 1.417-.59.714-1.032.94-.955.338-1.54.338h-2.356zm1.001-.847h1.309c.406 0 .755-.077 1.047-.231.298-.154.526-.369.685-.646s.246-.601.246-.971-.082-.698-.246-.97a1.64 1.64 0 0 0-.685-.647c-.293-.154-.642-.231-1.047-.231h-1.309v3.696zm-5.235-2.302h2.68v.824h-2.68v-.824zm.077 2.31h3.041V106h-4.043v-5.39h3.935v.84h-2.934v3.711zm-4.54.839v-4.543h-1.786v-.847h4.574v.847h-1.786V106h-1.001zm-4.19.077c-.421 0-.824-.059-1.209-.177s-.69-.28-.916-.47l.346-.777c.216.169.483.31.801.423a2.9 2.9 0 0 0 .978.17c.282 0 .511-.031.685-.093s.303-.144.385-.246c.082-.108.123-.229.123-.362 0-.164-.059-.295-.177-.393a1.29 1.29 0 0 0-.462-.238 6.11 6.11 0 0 0-.624-.17l-.685-.177c-.226-.072-.434-.162-.624-.269a1.4 1.4 0 0 1-.454-.447c-.118-.185-.177-.421-.177-.708 0-.293.077-.56.231-.801.159-.247.398-.442.716-.585.323-.149.732-.224 1.224-.224a3.84 3.84 0 0 1 .962.123c.318.082.596.201.832.355l-.316.777a2.86 2.86 0 0 0-.747-.315c-.257-.072-.503-.108-.739-.108-.277 0-.503.033-.678.1-.169.067-.295.154-.377.262a.62.62 0 0 0-.116.369c0 .165.056.298.169.401.118.097.27.174.454.231l.631.169.685.177c.231.067.439.154.624.262a1.24 1.24 0 0 1 .454.439c.118.185.177.418.177.701s-.08.554-.239.8-.393.437-.716.586c-.323.143-.732.215-1.224.215zm-5.428 0c-.739 0-1.319-.208-1.74-.623-.416-.416-.624-1.017-.624-1.802v-3.042h1.001v3.003c0 .555.118.958.354 1.209.241.252.58.378 1.016.378s.773-.126 1.009-.378.354-.654.354-1.209v-3.003h.986v3.042c0 .785-.21 1.386-.631 1.802-.416.415-.991.623-1.725.623zm-7.95-.077v-5.39h2.218c.477 0 .886.077 1.224.231.344.154.608.375.793.663s.277.628.277 1.024-.092.736-.277 1.024c-.185.282-.449.5-.793.654-.339.149-.747.224-1.224.224h-1.663l.447-.455V106H34.43zm3.527 0l-1.363-1.955h1.07l1.37 1.955h-1.078zm-2.526-1.917l-.447-.477H36.6c.442 0 .773-.095.993-.285.226-.19.339-.455.339-.793 0-.344-.113-.609-.339-.793-.221-.185-.552-.278-.993-.278h-1.617l.447-.492v3.118zM30.89 106v-4.543h-1.786v-.847h4.574v.847h-1.786V106H30.89zm-8.809 0v-5.39h2.218c.477 0 .886.077 1.224.231.344.154.608.375.793.663s.277.628.277 1.024-.092.736-.277 1.024a1.78 1.78 0 0 1-.793.662c-.339.154-.747.231-1.224.231h-1.663l.447-.47V106h-1.001zm1.001-1.917l-.447-.485h1.617c.441 0 .772-.092.993-.277s.339-.455.339-.793c0-.344-.113-.609-.339-.793s-.552-.278-.993-.278h-1.617l.447-.492v3.118zm-4.957 1.994a3.16 3.16 0 0 1-1.163-.208 2.84 2.84 0 0 1-.924-.577c-.262-.252-.464-.544-.608-.878a2.81 2.81 0 0 1-.216-1.109c0-.4.072-.767.216-1.101a2.62 2.62 0 0 1 .608-.878c.262-.247.57-.446.924-.585s.739-.208 1.155-.208.806.07 1.155.208a2.8 2.8 0 0 1 .924.585 2.57 2.57 0 0 1 .608.878c.144.334.216.701.216 1.101s-.072.77-.216 1.109a2.57 2.57 0 0 1-.608.878 2.84 2.84 0 0 1-.924.577c-.349.139-.732.208-1.147.208zm-.008-.878a2.02 2.02 0 0 0 .755-.138c.231-.093.431-.223.601-.393a1.83 1.83 0 0 0 .393-.6c.098-.231.146-.486.146-.763s-.049-.529-.146-.754a1.75 1.75 0 0 0-.393-.601 1.7 1.7 0 0 0-.601-.4 2 2 0 0 0-.755-.139c-.272 0-.524.046-.755.139a1.8 1.8 0 0 0-.601.4 1.86 1.86 0 0 0-.4.601 1.97 1.97 0 0 0-.139.754c0 .272.046.524.139.755a1.95 1.95 0 0 0 .4.608c.169.17.37.3.601.393a2.02 2.02 0 0 0 .755.138zm-5.981.801v-4.543H10.35v-.847h4.574v.847h-1.786V106h-1.001z"/><g fill-rule="evenodd"><path d="M36.999 64.563c.454 3.933-.24 3.349 0 6.541.221 2.745 1.986 4.4 3.465 5.905.514-1.109.794-2.311.822-3.533a8.88 8.88 0 0 0-.66-3.566c-.759-2.096-2.544-4.588-3.653-5.347h.026z"/><path d="M26.822 78.483c4.147-.649 3.134-1.486 6.048-2.447 2.498-.831 6.126.208 8.54 1.343-2.083 3.167-5.659 3.206-6.827 3.18-2.271-.058-6.418-1.071-7.787-2.07l.026-.007zm4.642-18.132c-.409 3.848-.857 3.089-1.298 6.184-.363 2.654.753 4.737 1.655 6.587a9.6 9.6 0 0 0 1.538-6.658c-.201-2.2-1.168-5.075-1.947-6.113h.052z"/><path d="M19.168 71.383c3.893.279 3.102-.649 5.905-.934 2.414-.227 5.672 1.298 7.696 2.777-2.408 2.375-5.801 1.823-6.859 1.564-2.064-.513-5.678-2.252-6.742-3.413v.007zm7.598-16.391c-1.051 3.537-1.376 2.765-2.317 5.574-.811 2.427-.052 4.601.545 6.489 1.631-1.567 2.583-3.71 2.654-5.97.169-2.109-.311-4.99-.883-6.113v.019z"/><path d="M13.193 62.512c3.582 1.155 3.05.071 5.743.474 2.31.344 5.029 2.596 6.606 4.484-2.764 1.7-5.84.318-6.749-.175-1.804-.96-4.822-3.439-5.6-4.783zm10.778-14.699c-1.817 3.245-1.947 2.401-3.504 4.99-1.33 2.226-1.058 4.543-.896 6.626 1.958-1.179 3.37-3.085 3.926-5.302.649-2.057.792-5.055.467-6.314h.006z"/><path d="M8.954 52.251c3.342 1.947 3.031.779 5.633 1.791 2.239.876 4.497 3.764 5.698 6.003-3.095 1.064-5.84-1.019-6.697-1.726-1.629-1.376-4.147-4.549-4.633-6.068zm13.58-11.816c-2.239 2.771-2.226 1.947-4.101 4.095-1.609 1.869-1.739 4.14-1.927 6.087a8.14 8.14 0 0 0 4.543-4.315c.901-1.83 1.407-3.828 1.486-5.866z"/><path d="M8 41.61c2.719 2.641 2.687 1.434 4.925 2.998 1.947 1.343 3.426 4.588 4.075 6.976-3.147.279-5.302-2.323-5.938-3.18C9.823 46.723 8.136 43.154 8 41.61zm14.31-7.911c-2.459 2.096-2.291 1.343-4.328 2.966-1.746 1.395-2.284 3.394-2.81 5.114 1.929-.363 3.637-1.47 4.757-3.082a13.63 13.63 0 0 0 2.349-4.99l.032-.007z"/><path d="M9.13 31.89c1.992 2.907 2.141 1.817 3.894 3.653 1.486 1.583 2.31 4.796 2.518 7.073-2.81-.363-4.309-3.121-4.737-4.017-.857-1.752-1.798-5.295-1.681-6.703l.006-.006zm14.542-4.264c-2.531 1.382-2.284.72-4.361 1.765-1.785.895-2.531 2.596-3.245 4.101.877.06 1.757-.068 2.581-.375s1.572-.788 2.195-1.409a11.21 11.21 0 0 0 2.816-4.088l.013.007z"/><path d="M12.062 22.843c1.35 3.115 1.778 2.135 3.076 4.205 1.149 1.778 1.239 4.912.908 7.047-2.797-.947-3.679-3.816-3.894-4.731-.441-1.791-.565-5.25-.11-6.489l.019-.032zm13.837-.929c-2.434 1.071-2.161.487-4.153 1.298-1.713.649-2.511 2.213-3.245 3.517a5.67 5.67 0 0 0 4.543-1.259c1.21-.953 2.186-2.169 2.855-3.556zm-9.348-6.235c.649 3.108 1.2 2.31 2.018 4.471.707 1.856.221 4.737-.461 6.613-2.336-1.441-2.596-4.231-2.641-5.12-.071-1.726.441-4.906 1.084-5.97v.007zm12.403 1.095c-2.401.733-2.096.195-4.056.714-1.687.448-2.563 1.83-3.368 2.998a5.19 5.19 0 0 0 2.286.177 5.17 5.17 0 0 0 2.139-.826c1.232-.766 2.262-1.817 3.005-3.063h-.006zm-7.49-6.703c.104 2.901.649 2.232 1.025 4.29.318 1.765-.467 4.328-1.298 5.964-1.694-1.564-1.538-4.14-1.447-4.945.175-1.577 1.025-4.413 1.687-5.315l.032.007zm11.365 2.726c-2.382.208-2.005-.247-3.939-.156-1.655.078-2.706 1.226-3.647 2.193.641.375 1.359.597 2.1.649a4.82 4.82 0 0 0 2.17-.351c1.285-.482 2.427-1.284 3.316-2.33v-.007zm-6.464-7.152c-.182 2.596.389 2.077.539 3.958.123 1.616-.844 3.79-1.739 5.14-1.408-1.622-1.019-3.894-.857-4.601.311-1.382 1.369-3.79 2.064-4.504l-.006.006zm9.74 4.129c-2.051 0-1.681-.337-3.335-.415-1.421-.065-2.447.714-3.368 1.356a4.63 4.63 0 0 0 1.745.643c.619.094 1.251.06 1.857-.098a7.69 7.69 0 0 0 3.095-1.486h.006zm-4.672-6.97c-.454 2.252.136 1.914.071 3.608-.058 1.454-1.201 3.167-2.187 4.173-.378-.633-.603-1.347-.656-2.083a4.72 4.72 0 0 1 .351-2.155c.441-1.155 1.7-3.056 2.421-3.537v-.006zm7.579 4.983c-1.622-.324-1.298-.578-2.596-.896-1.116-.273-1.979.35-2.745.857a3.29 3.29 0 0 0 2.816 1.064c.923-.099 1.799-.454 2.531-1.025h-.006zM37.2 1.155c-.896 1.843-.344 1.616-.798 3.024-.389 1.213-1.713 2.537-2.738 3.277-.506-1.557.441-3.108.759-3.576A10.83 10.83 0 0 1 37.2 1.155zm5.845 3.965c-1.544-.182-1.298-.448-2.531-.649-1.071-.169-1.817.48-2.479 1.019a3.09 3.09 0 0 0 2.732.785c.855-.156 1.646-.557 2.278-1.155z"/><path d="M42.275 0c-1.084 1.616-.532 1.551-1.11 2.855-.513 1.123-1.947 2.09-3.056 2.544-.095-.624-.042-1.262.155-1.862a4.02 4.02 0 0 1 .981-1.59c.858-.86 1.892-1.524 3.031-1.947zm3.809 1.948c-1.168.584-.805.753-1.583 1.298a3.98 3.98 0 0 1-2.654.428 2.55 2.55 0 0 1 .685-1.037 2.56 2.56 0 0 1 1.093-.592c.802-.217 1.643-.25 2.46-.097z"/><path d="M52.776 82.479c-2.064-1.849-14.276-7.261-14.458-7.313-16.814-5.931-26.048-27.45-20.675-45.152 3.758-12.395 10.506-20.28 20.519-24.537l.169-.603C28.312 8.955 20.018 18.047 16.696 30.182c-5.412 19.734 4.322 40.234 21.817 46.119 0 0 6.684 2.927 8.689 4.296 1.142.779 4.134 2.596 5.191 3.472.584.422 1.278-.785.383-1.59zm32.492-17.916c-.454 3.933.24 3.348 0 6.541-.221 2.745-1.986 4.4-3.465 5.905a8.88 8.88 0 0 1-.162-7.1c.759-2.096 2.544-4.588 3.653-5.347h-.026z"/><path d="M95.428 78.482c-4.147-.649-3.134-1.486-6.048-2.446-2.498-.831-6.126.208-8.54 1.343 2.083 3.167 5.659 3.206 6.827 3.18 2.271-.058 6.418-1.071 7.787-2.07l-.026-.007zM90.802 60.35c.409 3.848.857 3.089 1.298 6.184.363 2.654-.753 4.737-1.655 6.587a9.6 9.6 0 0 1-1.538-6.658c.201-2.2 1.168-5.075 1.947-6.113h-.052z"/><path d="M103.1 71.383c-3.894.279-3.102-.649-5.906-.934-2.414-.227-5.672 1.298-7.696 2.778 2.408 2.375 5.801 1.823 6.859 1.564 2.064-.513 5.678-2.252 6.743-3.413v.007zm-7.6-16.392c1.051 3.537 1.376 2.745 2.317 5.574.811 2.427.052 4.601-.545 6.489-1.631-1.567-2.583-3.71-2.654-5.97-.169-2.109.311-4.99.882-6.113v.02z"/><path d="M109.048 62.512c-3.582 1.155-3.05.071-5.743.474-2.31.344-5.029 2.596-6.606 4.484 2.764 1.7 5.841.318 6.749-.175 1.83-.96 4.848-3.439 5.6-4.783zM98.299 47.813c1.817 3.245 1.946 2.401 3.504 4.99 1.298 2.226 1.058 4.543.895 6.626a8.65 8.65 0 0 1-3.926-5.302c-.649-2.057-.792-5.055-.467-6.314h-.007z"/><path d="M113.312 52.251c-3.342 1.947-3.031.779-5.633 1.791-2.239.876-4.497 3.764-5.698 6.003 3.096 1.064 5.841-1.019 6.697-1.726 1.629-1.376 4.147-4.542 4.634-6.067zM99.729 40.435c2.239 2.771 2.225 1.947 4.102 4.095 1.609 1.869 1.739 4.14 1.947 6.113a8.14 8.14 0 0 1-2.704-1.703 8.15 8.15 0 0 1-1.839-2.612 14.57 14.57 0 0 1-1.48-5.892h-.026z"/><path d="M114.266 41.61c-2.725 2.641-2.686 1.434-4.925 2.998-1.947 1.343-3.426 4.588-4.075 6.976 3.147.279 5.301-2.323 5.937-3.18 1.24-1.681 2.927-5.25 3.057-6.794h.006zm-14.309-7.911c2.459 2.096 2.291 1.343 4.328 2.966 1.746 1.395 2.285 3.394 2.81 5.114-1.928-.363-3.637-1.47-4.756-3.082-1.125-1.484-1.933-3.182-2.376-4.99l-.007-.007z"/><path d="M113.127 31.89c-1.992 2.907-2.141 1.817-3.893 3.653-1.486 1.583-2.311 4.796-2.518 7.073 2.81-.363 4.309-3.121 4.737-4.017.837-1.752 1.772-5.295 1.655-6.703l.019-.006zm-14.531-4.264c2.531 1.382 2.284.72 4.361 1.765 1.784.896 2.53 2.596 3.244 4.101-.877.06-1.757-.068-2.581-.375s-1.572-.788-2.195-1.409a11.2 11.2 0 0 1-2.816-4.088l-.013.007z"/><path d="M110.203 22.843c-1.35 3.108-1.765 2.135-3.102 4.205-1.148 1.778-1.239 4.912-.908 7.047 2.797-.947 3.679-3.816 3.893-4.731.442-1.791.565-5.25.111-6.489l.006-.032zm-13.833-.929c2.434 1.071 2.161.487 4.153 1.298 1.713.649 2.512 2.213 3.245 3.517a5.67 5.67 0 0 1-4.543-1.259c-1.21-.953-2.186-2.169-2.855-3.556zm9.346-6.235c-.649 3.108-1.201 2.31-2.019 4.471-.707 1.856-.22 4.737.461 6.613 2.336-1.441 2.596-4.231 2.641-5.12.072-1.726-.441-4.906-1.083-5.97v.007zm-12.404 1.095c2.401.733 2.096.195 4.056.714 1.687.448 2.563 1.83 3.368 2.998a5.19 5.19 0 0 1-4.426-.649 9.08 9.08 0 0 1-3.004-3.063h.006zm7.484-6.703c-.104 2.901-.649 2.232-1.026 4.29-.318 1.765.468 4.328 1.297 5.964 1.694-1.564 1.538-4.14 1.448-4.945-.176-1.577-1.026-4.413-1.688-5.315l-.032.006zm-11.358 2.725c2.382.208 2.005-.247 3.939-.156 1.655.078 2.706 1.227 3.647 2.193a4.82 4.82 0 0 1-4.27.299c-1.285-.482-2.427-1.284-3.316-2.33v-.006zm6.465-7.151c.182 2.596-.389 2.077-.539 3.958-.123 1.616.844 3.79 1.739 5.14 1.408-1.622 1.019-3.894.857-4.601-.312-1.382-1.369-3.79-2.064-4.504l.007.006zm-9.741 4.128c2.051 0 1.681-.337 3.336-.415 1.421-.065 2.447.714 3.368 1.356-.532.331-1.126.549-1.745.643s-1.251.06-1.857-.098c-1.13-.256-2.189-.764-3.095-1.486h-.007zm4.669-6.969c.454 2.252-.136 1.914-.071 3.608.058 1.454 1.201 3.167 2.187 4.173.378-.633.603-1.347.656-2.083a4.72 4.72 0 0 0-.351-2.155c-.441-1.149-1.694-3.056-2.421-3.537v-.006zm-7.556 4.983c1.622-.324 1.298-.578 2.596-.896 1.123-.273 1.979.35 2.745.857A3.29 3.29 0 0 1 85.8 8.812a4.97 4.97 0 0 1-2.524-1.025zm1.796-6.632c.896 1.843.344 1.616.798 3.024.389 1.213 1.713 2.537 2.739 3.277.506-1.557-.441-3.108-.759-3.576a10.83 10.83 0 0 0-2.771-2.726h-.007zM79.205 5.12c1.544-.182 1.298-.448 2.531-.649 1.071-.169 1.817.48 2.479 1.019a3.09 3.09 0 0 1-2.732.785 4.48 4.48 0 0 1-2.271-1.162l-.007.006z"/><path d="M79.99 0c1.084 1.616.513 1.551 1.11 2.855.513 1.123 1.947 2.09 3.057 2.544a4.02 4.02 0 0 0-.155-1.862 4 4 0 0 0-.981-1.59C82.163 1.087 81.129.423 79.99 0zm-3.809 1.947c1.168.584.805.753 1.583 1.298a3.98 3.98 0 0 0 2.654.428 2.56 2.56 0 0 0-1.778-1.655 5.52 5.52 0 0 0-2.459-.071z"/><path d="M69.489 82.479c2.064-1.85 14.276-7.262 14.458-7.314 16.814-5.931 26.048-27.45 20.675-45.152-3.757-12.395-10.506-20.279-20.519-24.536l-.182-.603c10.02 4.082 18.313 13.173 21.636 25.308 5.412 19.734-4.322 40.234-21.817 46.119 0 0-6.684 2.927-8.689 4.296-1.142.779-4.134 2.596-5.191 3.472-.552.435-1.246-.772-.35-1.577l-.019-.013z"/></g><path d="M69.333 69.695c-1.935-.723-4.827-1.182-8.057-1.182-2.913 0-5.551.373-7.46.977v1.913l-.182-.137V69.55l-.415.146c-1.504.562-2.431 1.283-2.491 2.072.141 1.804 4.809 3.031 10.548 3.031s10.407-1.227 10.548-3.031c-.06-.789-.987-1.51-2.491-2.072zm0 1.854c0 1.407-3.607 2.548-8.057 2.548s-8.057-1.141-8.057-2.548v-.146c0 1.407 3.608 2.161 8.057 2.161s8.057-.753 8.057-2.161v.146zm-8.057 3.636c-5.827 0-10.551-1.493-10.551-3.336v1.815c0 1.843 4.724 3.336 10.551 3.336s10.551-1.493 10.551-3.336v-1.815c0 1.843-4.724 3.336-10.551 3.336zm6.121-12.06v2.371c0 1.069-2.741 1.604-6.123 1.604s-6.122-.535-6.122-1.604v-2.371c0 1.069 2.741 2.157 6.122 2.157s6.123-1.088 6.123-2.157z"/><path d="M67.397 63.069c-.092 1.044-2.797 1.881-6.12 1.881s-6.027-.837-6.119-1.881c.066-.742 1.452-1.38 3.442-1.685a.56.56 0 0 0 .012.096c.059.281-.279.835-.279 1.302 0 .677-.828 1.16 1.117 1.16 1.34 0 1.572 0 1.225-1.102-.132-.42-.157-1.042-.138-1.637l.74-.014.774.016c.031.604.004 1.23-.179 1.635-.434.958.05 1.063 1.406 1.063 1.743 0 .655-.595.655-1.178 0-.388-.063-.932-.004-1.217a.6.6 0 0 0 .013-.126c1.997.305 3.389.944 3.454 1.687zM51.859 9.14h5.892l.009 1.866h-.282c-.092-.668-.357-1.119-.793-1.355-.245-.13-.612-.201-1.099-.213v4.874c0 .341.063.566.189.678s.388.167.786.167v.235h-3.488v-.235c.382 0 .636-.056.762-.17s.189-.339.189-.676V9.438c-.478.012-.844.083-1.099.213-.469.242-.733.693-.793 1.355h-.282l.009-1.866h.001zm12.111.764c.672.617 1.008 1.413 1.008 2.386s-.336 1.768-1.008 2.385c-.656.602-1.476.903-2.461.903-1.045 0-1.897-.33-2.556-.99a3.08 3.08 0 0 1-.922-2.25c0-.97.322-1.766.965-2.39.65-.632 1.487-.948 2.514-.948s1.808.301 2.461.903h-.001zm-.951 4.129c.147-.446.22-1.027.22-1.744 0-.985-.155-1.728-.466-2.228s-.733-.75-1.266-.75c-.74 0-1.247.417-1.522 1.251-.144.442-.215 1.018-.215 1.726s.074 1.301.22 1.744c.271.822.777 1.234 1.517 1.234s1.237-.411 1.512-1.234v.001zm2.529 1.125c.322-.021.538-.085.647-.192s.165-.325.165-.653V10.22c0-.347-.056-.567-.167-.658s-.326-.154-.645-.186V9.14h3.148c.835 0 1.469.128 1.904.384s.652.696.652 1.319a1.56 1.56 0 0 1-.256.856c-.17.267-.451.481-.844.644a3.18 3.18 0 0 1-.889.208c-.296.024-.736.036-1.319.036v1.726c0 .34.06.563.181.669s.347.164.679.176v.235h-3.258v-.235h.001zm3.564-3.081c.309-.187.464-.589.464-1.206 0-.421-.075-.762-.225-1.021s-.436-.388-.86-.388c-.194 0-.334.022-.418.065s-.127.129-.127.255v2.485c.583-.009.971-.072 1.166-.19v.001zm-14.287 8.815c.445 0 .73-.055.856-.166s.188-.321.188-.632v-3.085c0-.198-.025-.338-.075-.422s-.142-.125-.276-.125c-.071 0-.181.022-.33.066l-.385.125v-.203l2.213-.872h.154v4.563c0 .292.051.49.154.594s.365.157.788.157v.191h-3.287v-.191l-.001.001z"/><path d="M59.234 16.205c.371-.417.796-.626 1.276-.626.554 0 1.02.257 1.399.771.385.527.577 1.189.577 1.987 0 .941-.218 1.675-.655 2.199-.368.441-.808.661-1.318.661-.36 0-.666-.096-.92-.289s-.471-.442-.651-.747c-.154-.258-.263-.554-.325-.888-.037-.196-.066-.477-.086-.845 0-.957.234-1.698.702-2.222h0zm.835 4.427c.1.228.251.342.453.342.254 0 .425-.211.513-.634.049-.232.073-.576.073-1.03v-1.836c0-.65-.051-1.089-.152-1.318s-.249-.342-.443-.342-.347.116-.449.347-.154.669-.154 1.314v1.836c.005.653.059 1.093.158 1.322h.001zm4.203-4.427c.371-.417.796-.626 1.275-.626.554 0 1.02.257 1.399.771.385.527.578 1.189.578 1.987 0 .941-.218 1.675-.655 2.199-.368.441-.808.661-1.318.661-.36 0-.666-.096-.92-.289s-.471-.442-.651-.747c-.154-.258-.263-.554-.325-.888a6.85 6.85 0 0 1-.086-.845c0-.957.234-1.698.702-2.222h0zm.835 4.427c.1.228.251.342.454.342.254 0 .425-.211.513-.634.049-.232.073-.576.073-1.03v-1.836c0-.65-.051-1.089-.152-1.318s-.249-.342-.443-.342-.347.116-.449.347-.154.669-.154 1.314v1.836c.005.653.059 1.093.158 1.322h.001zm6.01-5.495c-.029-.013-.071-.018-.121-.018-.27 0-.78.159-.78.159s-2.199 1.515-2.228 4.665c-.021 2.27-.187 3.54-.333 4.352s-.5 4.123-1.437 5.435-1.083 2.645-1.083 2.645-.43.785-1.274.785c-.198 0-.419-.043-.663-.15-.675-.297-.58-1.256-.34-2.096 0 0 .278-.309.278-1.735s.281-2.395-1.864-2.395-1.864.968-1.864 2.395.278 1.735.278 1.735c.241.841.335 1.8-.34 2.096-.243.107-.464.15-.663.15-.844 0-1.274-.785-1.274-.785s-.145-1.333-1.083-2.645-1.292-4.623-1.437-5.435-.312-2.082-.333-4.352c-.029-3.15-2.229-4.665-2.229-4.665s-.501-.163-.772-.163c-.054 0-.099.007-.129.022-.861.441 1.109 2.093 1.078 3.545s-.623 8.168.001 10.323 2.015 6.263 4.139 8.465c0 0 .89 1.015.39 6.31-.427 4.522.734 5.107.906 7.871s-.234 5.545.718 7.231c.219 1.32.076 1.976-.023 2.241a.61.61 0 0 0-.038.26c.597-.092 1.25-.154 1.937-.181.022-.689.102-1.344.138-1.612.068-.499 0-2.317 0-2.317l.387-3.618.151-6.864c.001-.016.013-.024.025-.024s.024.008.026.023l.276 6.823.332 3.66s-.067 1.817 0 2.317l.179 1.614a16.75 16.75 0 0 1 1.891.178.66.66 0 0 0-.059-.274c-.124-.276-.29-.934.003-2.225.953-1.687.547-4.467.719-7.231s1.333-3.349.906-7.871c-.5-5.295.391-6.31.391-6.31 2.124-2.202 3.514-6.31 4.138-8.465s.032-8.871.001-10.323 2.08-3.104 1.078-3.545zM60.583 27.556c.029.154.096.42.232.549.198.188.261.781.458.781s.261-.594.458-.781c.136-.129.203-.395.232-.549.244.047.332.114.359.142.04.041.066.119.082.221-.149.205-.449.685-.439 1.249a7.47 7.47 0 0 0 .205 1.538l-.003.011c-.165.58-.232 1.086-.199 1.507.014.181.047.341.092.483l-.851-.196-.716.165a2.21 2.21 0 0 0 .083-.451c.034-.421-.033-.928-.199-1.508l-.002-.009a7.52 7.52 0 0 0 .205-1.539c.01-.564-.29-1.045-.439-1.249.016-.101.041-.179.082-.22.028-.028.116-.095.36-.142h0zm-.622 31.94a18.05 18.05 0 0 0-.107 1.025l-.377.031c.035-.439.018-1.022-.108-1.787l-.021-.126-.062-.111-.049-.092a.71.71 0 0 0 .147-.159c.468-.641.068-1.986.175-2.731a15.16 15.16 0 0 0 .13-1.581 4.49 4.49 0 0 0 .09.779c.097.41.222.716.349.891l-.167 1.562-.006.051.002.052.006 2.194v.001zm9.359-40.798l.079 1.552c.132 2.264.408 6.973-.051 8.556a34.12 34.12 0 0 1-1.474 4.126l-.27.592c-.574.748-2.447 1.399-2.876 2.141-.111.191-.198 1.07-.286 1.473a.69.69 0 0 0 .035.402c.378.95.015 1.571-.542 1.927a.54.54 0 0 0-.243.524l.559 3.337c.212.822.25 1.928.252 2.552a1.2 1.2 0 0 0 .118.516c.087.181.079.394-.016.572l-.889 1.586-.594 1.503c-.249.813-.348 1.87-.321 2.72l.166 2.772c.107.745-.294 2.09.175 2.731.063.086.116.141.161.169l-.044.081-.052.092-.023.103c-.176.774-.206 1.37-.165 1.823l-.302-.024-.111-.867-.023-.16c-.041-.302-.021-1.465.006-2.194l.002-.046-.004-.046-.163-1.792a3.44 3.44 0 0 0 .223-.673c.268-1.138-.032-4.805-.525-4.487l-.142-3.495v-.017l-.002-.017a.74.74 0 0 0-.742-.679c-.396 0-.722.31-.743.705v.011l-.001.011-.08 3.599a.54.54 0 0 0-.095-.106c-.28-.23-.5.825-.594 2.004-.017-.739-.121-1.559-.323-2.218-.157-.511-.391-1.009-.593-1.503-.12-.291-.235-.346-.948-1.697-.088-.166-.098-.363-.029-.538a1.21 1.21 0 0 0 .084-.438c.002-.623.04-1.73.252-2.552.238-.922.465-2.596.559-3.337a.54.54 0 0 0-.242-.524c-.558-.356-.92-.978-.542-1.927a.69.69 0 0 0 .035-.402c-.088-.403-.175-1.282-.286-1.473-.379-.657-1.887-1.241-2.627-1.885-.866-1.774-1.494-3.687-1.866-4.974-.458-1.582-.183-6.288-.051-8.549l.079-1.558c.019-.888-.48-1.736-.882-2.418l-.054-.091a5.06 5.06 0 0 1 .692.851 5.74 5.74 0 0 1 .301 1.823c-.002 1.34-.153 4.571 1.022 6.357.214 1.427.602 3.758 1.438 4.928.793 1.111.946 2.256.953 2.306l.006.062c-.04.01-.079.031-.114.067-.391.39 2.004 3.696 3.655 3.842h1.937c1.646-.146 4.031-3.432 3.657-3.838l.014-.133a5.56 5.56 0 0 1 .954-2.305c.835-1.17 1.223-3.502 1.437-4.927 1.175-1.785 1.024-5.017 1.022-6.357a5.73 5.73 0 0 1 .299-1.816l.102-.152c.262-.375.526-.647.712-.817l-.142.231c-.416.672-.933 1.508-.914 2.39v-.002zM67.4 64.016l-.409-.14c-.885.725-3.11 1.461-5.714 1.461s-4.828-.736-5.713-1.461l-.409.14c-1.206.445-1.935 1.024-1.935 1.656v.21a.72.72 0 0 1 .008-.097c.041.297.243.581.579.843 1.116.862 3.649 1.485 6.674 1.58-3.024-.086-5.557-.655-6.664-1.438v4.633l-.182-.137v-4.638c-.267-.231-.413-.477-.415-.734v5.177c0 1.407 3.608 2.548 8.057 2.548s8.057-1.141 8.057-2.548v-5.182c0 1.209-3.184 2.204-7.26 2.319 3.959-.124 7.076-1.153 7.252-2.423a.65.65 0 0 1 .008.103v-.216c0-.632-.728-1.211-1.934-1.656zm0 1.625c0 1.069-2.741 1.936-6.123 1.936s-6.122-.867-6.122-1.936v-.146c0 1.069 2.741 1.604 6.122 1.604s6.123-.535 6.123-1.604v.146z"/></g><defs ><path id="B" d="M67.127 115v-5.39h.824l3.38 4.151h-.408v-4.151h.993V115h-.824l-3.38-4.15h.408V115h-.993z"/><path id="C" d="M58.187 115v-5.39h1.001V115h-1.001z"/><path id="D" d="M54.648 115v-4.543h-1.786v-.847h4.574v.847h-1.786V115h-1.001z"/><path id="E" d="M88.547 106v-5.39h.824l3.38 4.151h-.408v-4.151h.993V106h-.824l-3.38-4.15h.408V106h-.993z"/></defs></svg>