<svg width="50" height="50" viewBox="0 0 50 50" fill="none" xmlns="http://www.w3.org/2000/svg">
<path d="M42.4016 16.5996H8.40156C8.00156 16.5996 7.60156 16.8996 7.60156 17.3996V40.2996C7.60156 40.6996 7.90156 41.0996 8.40156 41.0996H42.3016C42.7016 41.0996 43.1016 40.7996 43.1016 40.2996V17.2996C43.2016 16.8996 42.9016 16.5996 42.4016 16.5996Z" stroke="#001D3A" stroke-width="1.5" stroke-miterlimit="10"/>
<path d="M44.4 41.0996H6.3C6.1 41.0996 6 41.2996 6 41.3996V43.5996C6 43.7996 6.2 43.8996 6.3 43.8996H44.5C44.7 43.8996 44.8 43.6996 44.8 43.5996V41.3996C44.8 41.2996 44.6 41.0996 44.4 41.0996Z" stroke="#001D3A" stroke-width="1.5" stroke-miterlimit="10"/>
<path d="M21.2969 41.5996H29.4969" stroke="#001D3A" stroke-width="1.2385" stroke-miterlimit="10"/>
<path d="M36.8984 37.3H13.8984V11.8C13.8984 8.6 16.4984 6 19.6984 6H36.7984V37.3H36.8984Z" fill="#A9DAF0"/>
<path d="M32.0938 37.2992V21.6992" stroke="#001D3A" stroke-width="1.5" stroke-miterlimit="10"/>
<path d="M27.3984 37.2988V25.2988" stroke="#001D3A" stroke-width="1.5" stroke-miterlimit="10"/>
<path d="M22.5938 37.299V28.999" stroke="#001D3A" stroke-width="1.5" stroke-miterlimit="10"/>
<path d="M17.7969 37.2992V32.6992" stroke="#001D3A" stroke-width="1.5" stroke-miterlimit="10"/>
<path d="M17.5 24.8996L30.3 14.0996" stroke="#001D3A" stroke-width="1.5" stroke-miterlimit="10"/>
<path d="M26.7969 12.5996L31.0969 13.3996V17.8996" stroke="#001D3A" stroke-width="1.5" stroke-miterlimit="10"/>
</svg>
